{"glyphs":{"0":{"ha":764,"x_min":60,"x_max":704,"o":"m 704 443 q 684 257 704 341 q 622 114 663 174 q 519 21 581 54 q 375 -12 458 -12 q 245 15 304 -12 q 146 97 187 41 q 82 239 104 153 q 60 443 60 325 q 80 629 60 545 q 142 773 101 713 q 245 866 183 833 q 389 899 307 899 q 518 872 460 899 q 618 789 576 845 q 682 647 659 733 q 704 443 704 561 m 585 439 q 583 485 585 462 q 579 529 581 507 l 204 250 q 230 185 214 215 q 268 134 245 155 q 318 101 290 113 q 382 89 346 89 q 466 111 428 89 q 530 178 503 134 q 570 287 556 222 q 585 439 585 353 m 179 447 q 179 405 179 426 q 182 364 180 384 l 557 642 q 531 705 547 676 q 494 754 515 733 q 444 786 472 774 q 382 798 416 798 q 298 775 336 798 q 234 708 260 753 q 193 598 208 664 q 179 447 179 533 z "},"1":{"ha":764,"x_min":92,"x_max":676,"o":"m 676 0 l 119 0 l 119 110 l 347 110 l 347 757 l 135 642 l 92 742 l 374 890 l 478 890 l 478 110 l 676 110 l 676 0 z "},"2":{"ha":764,"x_min":100,"x_max":684,"o":"m 684 0 l 100 0 l 100 106 l 329 334 q 420 430 385 389 q 475 504 456 471 q 502 568 495 538 q 509 632 509 597 q 500 694 509 665 q 473 746 491 724 q 425 781 454 768 q 355 794 396 794 q 253 769 299 794 q 168 704 207 744 l 103 782 q 219 867 153 835 q 371 899 284 899 q 478 881 430 899 q 562 830 527 863 q 617 749 597 797 q 636 640 636 701 q 623 546 636 589 q 582 459 609 503 q 512 370 554 416 q 414 269 471 324 l 253 113 l 684 113 l 684 0 z "},"3":{"ha":764,"x_min":111,"x_max":667,"o":"m 667 269 q 643 160 667 211 q 572 70 619 109 q 452 10 524 32 q 285 -12 380 -12 q 190 -9 232 -12 q 111 0 148 -5 l 111 106 q 200 94 153 98 q 296 90 247 90 q 409 102 362 90 q 486 136 456 114 q 530 191 516 159 q 543 262 543 222 q 527 326 543 299 q 481 372 511 353 q 411 399 452 390 q 321 408 370 408 l 220 408 l 220 505 l 322 505 q 395 516 362 505 q 451 546 428 526 q 487 594 475 566 q 500 660 500 623 q 456 764 500 731 q 329 796 413 796 q 237 787 284 796 q 135 761 189 779 l 135 864 q 184 879 158 872 q 236 889 210 885 q 288 896 262 894 q 338 899 314 899 q 462 883 408 899 q 551 840 515 868 q 606 770 587 811 q 624 679 624 730 q 585 551 624 603 q 478 469 546 500 q 546 448 513 464 q 607 406 580 431 q 650 346 633 380 q 667 269 667 311 z "},"4":{"ha":764,"x_min":29,"x_max":728,"o":"m 728 196 l 576 196 l 576 0 l 456 0 l 456 196 l 29 196 l 29 300 l 407 886 l 576 886 l 576 300 l 728 300 l 728 196 m 456 772 l 147 300 l 456 300 l 456 772 z "},"5":{"ha":764,"x_min":121,"x_max":661,"o":"m 661 283 q 633 163 661 218 q 554 70 604 109 q 437 9 505 31 q 290 -12 369 -12 q 248 -11 271 -12 q 203 -8 225 -10 q 159 -5 180 -7 q 121 0 138 -3 l 121 107 q 204 94 157 98 q 300 90 252 90 q 397 103 354 90 q 471 140 441 116 q 518 198 502 164 q 534 275 534 233 q 475 396 534 358 q 304 433 416 433 l 136 433 l 136 886 l 614 886 l 614 783 l 248 783 l 248 534 l 325 534 q 449 523 389 534 q 556 483 509 511 q 632 405 604 454 q 661 283 661 357 z "},"6":{"ha":764,"x_min":83,"x_max":694,"o":"m 694 281 q 672 166 694 220 q 610 73 650 113 q 512 11 569 33 q 385 -12 454 -12 q 255 11 311 -12 q 161 83 199 35 q 103 205 123 132 q 83 380 83 279 q 92 512 83 448 q 121 632 101 576 q 176 735 142 688 q 260 815 210 782 q 379 868 311 849 q 538 886 448 886 l 625 886 l 625 783 l 530 783 q 393 764 451 783 q 295 711 334 745 q 235 627 256 676 q 208 518 214 578 l 205 490 q 304 531 248 515 q 425 546 360 546 q 543 526 492 546 q 627 472 593 507 q 677 388 661 437 q 694 281 694 339 m 571 273 q 561 347 571 314 q 530 402 551 380 q 477 438 509 425 q 400 450 445 450 q 348 446 374 450 q 296 432 321 441 q 248 413 271 424 q 205 390 224 402 q 218 244 205 302 q 254 150 230 185 q 313 100 278 115 q 395 85 349 85 q 466 97 433 85 q 521 134 498 110 q 558 194 545 159 q 571 273 571 229 z "},"7":{"ha":764,"x_min":79,"x_max":679,"o":"m 679 777 l 307 0 l 172 0 l 558 777 l 79 777 l 79 886 l 679 886 l 679 777 z "},"8":{"ha":764,"x_min":81,"x_max":684,"o":"m 684 222 q 661 122 684 166 q 596 49 637 79 q 498 3 555 19 q 376 -12 442 -12 q 249 4 304 -12 q 156 50 193 20 q 100 119 119 79 q 81 207 81 159 q 126 347 81 288 q 267 454 172 406 q 140 552 180 498 q 100 676 100 606 q 117 759 100 719 q 171 830 135 799 q 260 880 206 861 q 386 899 313 899 q 506 884 454 899 q 593 842 558 869 q 646 777 629 815 q 664 690 664 738 q 621 559 664 613 q 498 464 578 505 q 572 420 538 444 q 631 368 606 397 q 670 302 656 338 q 684 222 684 267 m 543 681 q 501 771 543 741 q 382 800 458 800 q 263 771 306 800 q 221 684 221 742 q 231 635 221 657 q 263 593 241 612 q 316 554 284 573 q 392 515 348 535 q 506 590 469 551 q 543 681 543 629 m 555 214 q 547 262 555 239 q 518 309 539 286 q 462 355 497 332 q 372 403 427 378 q 295 358 326 380 q 244 314 263 336 q 216 267 224 291 q 208 215 208 242 q 221 161 208 184 q 258 121 235 138 q 313 97 281 105 q 382 89 345 89 q 450 96 418 89 q 505 119 481 104 q 542 158 528 134 q 555 214 555 181 z "},"9":{"ha":764,"x_min":68,"x_max":679,"o":"m 679 493 q 648 270 679 363 q 555 117 616 177 q 404 28 494 57 q 196 0 314 0 l 122 0 l 122 103 l 204 103 q 355 121 292 103 q 461 173 419 138 q 526 256 504 207 q 554 368 549 305 l 557 396 q 458 356 514 371 q 338 340 403 340 q 220 360 271 340 q 135 415 169 380 q 85 499 102 450 q 68 604 68 547 q 90 720 68 666 q 153 813 113 773 q 250 876 193 852 q 374 899 306 899 q 495 877 439 899 q 592 807 551 855 q 656 681 633 758 q 679 493 679 604 m 368 802 q 298 789 330 802 q 242 752 266 777 q 205 693 219 728 q 192 612 192 658 q 202 538 192 571 q 232 483 212 506 q 286 448 253 460 q 363 436 318 436 q 415 441 388 436 q 467 454 441 446 q 515 473 492 462 q 557 496 538 484 q 544 642 557 583 q 507 736 531 701 q 447 787 482 772 q 368 802 412 802 z "},"\u0000":{"ha":764,"x_min":0,"x_max":0,"o":""},"\r":{"ha":0,"x_min":0,"x_max":0,"o":""}," ":{"ha":764,"x_min":0,"x_max":0,"o":""},"A":{"ha":764,"x_min":7,"x_max":757,"o":"m 757 0 l 625 0 l 564 193 l 195 193 l 132 0 l 7 0 l 301 886 l 467 886 l 757 0 m 529 301 l 379 775 l 229 301 l 529 301 z "},"B":{"ha":764,"x_min":107,"x_max":689,"o":"m 689 265 q 664 152 689 201 q 594 69 640 103 q 483 18 548 35 q 339 0 418 0 l 107 0 l 107 886 l 361 886 q 657 671 657 886 q 623 547 657 599 q 511 471 589 496 q 579 448 547 464 q 636 406 612 431 q 675 345 661 380 q 689 265 689 309 m 532 654 q 524 706 532 682 q 495 747 515 730 q 440 774 475 764 q 353 785 406 785 l 228 785 l 228 507 l 349 507 q 424 516 390 507 q 481 543 457 525 q 518 589 505 562 q 532 654 532 616 m 561 261 q 547 322 561 295 q 505 368 532 349 q 439 397 478 387 q 351 407 400 407 l 228 407 l 228 102 l 355 102 q 510 140 459 102 q 561 261 561 179 z "},"C":{"ha":764,"x_min":62,"x_max":675,"o":"m 675 33 q 452 -11 568 -11 q 163 101 264 -11 q 62 433 62 214 q 90 626 62 540 q 170 772 118 712 q 294 865 221 832 q 458 897 368 897 q 573 887 520 897 q 675 854 626 876 l 675 736 q 575 776 627 762 q 463 790 524 790 q 350 767 400 790 q 264 699 299 743 q 210 590 229 654 q 191 444 191 526 q 260 184 191 272 q 465 97 330 97 q 574 110 522 97 q 675 147 627 123 l 675 33 z "},"D":{"ha":764,"x_min":74,"x_max":714,"o":"m 714 453 q 704 331 714 389 q 673 222 694 273 q 616 131 651 172 q 532 61 582 90 q 415 16 481 32 q 264 0 349 0 l 74 0 l 74 886 l 302 886 q 612 780 510 886 q 714 453 714 673 m 587 444 q 570 604 587 538 q 516 709 552 669 q 426 767 480 749 q 298 785 372 785 l 195 785 l 195 104 l 285 104 q 587 444 587 104 z "},"E":{"ha":764,"x_min":136,"x_max":640,"o":"m 640 0 l 136 0 l 136 886 l 640 886 l 640 785 l 257 785 l 257 510 l 625 510 l 625 408 l 257 408 l 257 103 l 640 103 l 640 0 z "},"F":{"ha":764,"x_min":139,"x_max":639,"o":"m 639 783 l 262 783 l 262 496 l 619 496 l 619 395 l 262 395 l 262 0 l 139 0 l 139 886 l 639 886 l 639 783 z "},"G":{"ha":764,"x_min":45,"x_max":686,"o":"m 682 734 q 581 775 633 761 q 467 790 528 790 q 341 765 396 790 q 249 694 286 740 q 191 584 211 648 q 171 441 171 519 q 187 296 171 360 q 238 186 203 231 q 327 118 273 142 q 456 94 380 94 q 484 96 469 94 q 513 99 498 97 q 542 105 528 102 q 567 113 556 109 l 567 395 l 386 395 l 386 494 l 686 494 l 686 41 q 628 18 659 28 q 565 1 597 8 q 500 -9 532 -5 q 439 -12 469 -12 q 275 16 348 -12 q 151 101 202 45 q 72 240 100 157 q 45 433 45 323 q 75 629 45 543 q 161 775 106 715 q 294 867 216 836 q 465 899 372 899 q 579 888 525 899 q 682 854 633 878 l 682 734 z "},"H":{"ha":764,"x_min":75,"x_max":689,"o":"m 689 0 l 568 0 l 568 407 l 196 407 l 196 0 l 75 0 l 75 886 l 196 886 l 196 511 l 568 511 l 568 886 l 689 886 l 689 0 z "},"I":{"ha":764,"x_min":117,"x_max":647,"o":"m 321 785 l 117 785 l 117 886 l 647 886 l 647 785 l 443 785 l 443 103 l 647 103 l 647 0 l 117 0 l 117 103 l 321 103 l 321 785 z "},"J":{"ha":764,"x_min":123,"x_max":595,"o":"m 595 886 l 595 271 q 578 162 595 214 q 526 73 561 111 q 439 13 492 35 q 317 -9 387 -9 q 263 -6 290 -9 q 210 4 235 -2 q 162 20 184 11 q 123 40 140 29 l 123 161 q 217 113 165 131 q 318 96 268 96 q 432 141 392 96 q 472 271 472 186 l 472 782 l 135 782 l 135 886 l 595 886 z "},"K":{"ha":764,"x_min":106,"x_max":710,"o":"m 710 0 l 558 0 l 227 435 l 227 0 l 106 0 l 106 886 l 227 886 l 227 475 l 551 886 l 694 886 l 345 465 l 710 0 z "},"L":{"ha":764,"x_min":158,"x_max":668,"o":"m 668 0 l 158 0 l 158 886 l 281 886 l 281 103 l 668 103 l 668 0 z "},"M":{"ha":764,"x_min":33,"x_max":730,"o":"m 730 0 l 612 0 l 595 553 l 587 765 l 546 642 l 415 289 l 332 289 l 207 628 l 165 765 l 163 543 l 147 0 l 33 0 l 77 886 l 220 886 l 339 553 l 378 440 l 415 553 l 541 886 l 688 886 l 730 0 z "},"N":{"ha":764,"x_min":81,"x_max":684,"o":"m 684 0 l 526 0 l 268 553 l 193 730 l 193 283 l 193 0 l 81 0 l 81 886 l 236 886 l 482 363 l 571 160 l 571 635 l 571 886 l 684 886 l 684 0 z "},"O":{"ha":764,"x_min":39,"x_max":726,"o":"m 726 449 q 698 243 726 330 q 622 99 670 156 q 510 15 574 43 q 375 -12 446 -12 q 226 19 290 -12 q 121 108 163 50 q 59 250 79 166 q 39 439 39 334 q 66 644 39 557 q 142 787 94 730 q 254 871 190 844 q 389 899 317 899 q 537 867 474 899 q 643 778 601 836 q 706 637 685 720 q 726 449 726 553 m 601 440 q 589 583 601 518 q 551 694 577 648 q 483 767 524 741 q 382 793 441 793 q 284 765 325 793 q 216 691 243 738 q 177 580 190 644 q 164 446 164 517 q 176 302 164 367 q 215 191 189 237 q 282 119 241 144 q 382 93 323 93 q 480 120 439 93 q 548 195 522 148 q 588 305 575 242 q 601 440 601 368 z "},"P":{"ha":764,"x_min":107,"x_max":689,"o":"m 689 615 q 669 508 689 561 q 606 412 648 454 q 496 344 563 370 q 338 318 430 318 l 228 318 l 228 0 l 107 0 l 107 886 l 357 886 q 483 872 422 886 q 589 825 543 857 q 662 741 635 792 q 689 615 689 689 m 564 610 q 508 741 564 695 q 351 786 452 786 l 228 786 l 228 421 l 340 421 q 506 468 448 421 q 564 610 564 515 z "},"Q":{"ha":764,"x_min":39,"x_max":764,"o":"m 317 -8 q 194 37 246 2 q 107 128 142 71 q 56 261 73 184 q 39 432 39 338 q 66 641 39 553 q 142 786 94 729 q 254 871 190 844 q 389 899 317 899 q 537 868 474 899 q 643 779 601 837 q 706 638 685 721 q 726 453 726 556 q 703 263 726 345 q 640 124 680 181 q 546 35 600 67 q 429 -8 492 2 q 477 -104 439 -68 q 582 -140 514 -140 q 646 -130 614 -140 q 710 -93 677 -119 l 764 -176 q 671 -229 719 -213 q 574 -244 624 -244 q 474 -229 519 -244 q 395 -185 429 -214 q 341 -111 361 -155 q 317 -8 321 -66 m 601 439 q 589 582 601 517 q 551 693 577 647 q 483 766 524 740 q 382 791 441 791 q 284 764 325 791 q 216 691 243 737 q 177 582 190 644 q 164 450 164 520 q 176 304 164 370 q 215 192 189 239 q 282 120 241 145 q 382 94 323 94 q 480 121 439 94 q 548 195 522 149 q 588 305 575 242 q 601 439 601 368 z "},"R":{"ha":764,"x_min":115,"x_max":713,"o":"m 713 0 l 576 0 l 444 283 q 414 337 429 316 q 380 371 398 359 q 341 389 362 384 q 293 395 319 395 l 236 395 l 236 0 l 115 0 l 115 886 l 353 886 q 486 869 430 886 q 577 822 541 852 q 629 748 612 791 q 646 653 646 705 q 633 575 646 612 q 597 508 621 538 q 537 455 573 477 q 456 422 502 433 q 519 377 493 410 q 572 292 545 345 l 713 0 m 519 643 q 475 749 519 714 q 350 785 431 785 l 236 785 l 236 492 l 334 492 q 411 502 376 492 q 469 531 445 511 q 506 578 493 550 q 519 643 519 606 z "},"S":{"ha":764,"x_min":75,"x_max":676,"o":"m 676 240 q 650 130 676 177 q 578 51 625 82 q 468 3 532 19 q 325 -12 403 -12 q 255 -9 290 -12 q 188 -3 220 -7 q 127 7 155 1 q 75 18 98 12 l 75 135 q 190 105 126 116 q 334 94 253 94 q 433 103 392 94 q 500 131 474 113 q 538 174 526 149 q 550 233 550 200 q 530 295 550 269 q 477 340 510 320 q 403 377 445 360 q 318 411 361 393 q 233 449 275 429 q 159 498 191 470 q 106 564 126 526 q 86 654 86 602 q 105 744 86 700 q 164 822 124 788 q 267 878 204 857 q 416 899 330 899 q 465 897 439 899 q 518 891 491 895 q 571 882 545 887 q 619 872 597 878 l 619 764 q 515 786 567 779 q 414 794 463 794 q 261 760 310 794 q 212 667 212 725 q 232 605 212 631 q 285 559 252 579 q 359 522 317 538 q 444 488 401 505 q 529 449 488 470 q 604 399 571 428 q 656 332 636 370 q 676 240 676 293 z "},"T":{"ha":764,"x_min":58,"x_max":705,"o":"m 705 783 l 443 783 l 443 0 l 321 0 l 321 783 l 58 783 l 58 886 l 705 886 l 705 783 z "},"U":{"ha":764,"x_min":74,"x_max":690,"o":"m 690 309 q 670 176 690 235 q 609 75 649 117 q 511 11 569 33 q 378 -12 453 -12 q 237 9 295 -12 q 143 71 180 31 q 91 166 107 111 q 74 290 74 222 l 74 886 l 195 886 l 195 300 q 204 208 195 248 q 237 142 214 169 q 295 102 259 116 q 382 89 330 89 q 524 144 478 89 q 570 301 570 200 l 570 886 l 690 886 l 690 309 z "},"V":{"ha":764,"x_min":3,"x_max":761,"o":"m 761 886 l 460 0 l 297 0 l 3 886 l 139 886 l 330 289 l 385 114 l 440 289 l 632 886 l 761 886 z "},"W":{"ha":764,"x_min":31,"x_max":733,"o":"m 733 886 l 673 0 l 517 0 l 407 315 l 376 416 l 345 307 l 243 0 l 92 0 l 31 886 l 144 886 l 179 283 l 189 118 l 232 258 l 339 587 l 422 587 l 546 235 l 587 118 l 590 240 l 625 886 l 733 886 z "},"X":{"ha":764,"x_min":12,"x_max":747,"o":"m 747 0 l 595 0 l 379 358 l 163 0 l 12 0 l 307 453 l 36 886 l 179 886 l 382 553 l 586 886 l 725 886 l 453 458 l 747 0 z "},"Y":{"ha":764,"x_min":0,"x_max":764,"o":"m 764 886 l 443 317 l 443 0 l 321 0 l 321 319 l 0 886 l 146 886 l 322 562 l 387 432 l 447 550 l 625 886 l 764 886 z "},"Z":{"ha":764,"x_min":75,"x_max":688,"o":"m 679 791 l 227 113 l 688 113 l 688 0 l 75 0 l 75 90 l 530 777 l 87 777 l 87 886 l 679 886 l 679 791 z "},"À":{"ha":764,"x_min":0,"x_max":757,"o":"m 757 0 l 625 0 l 564 193 l 195 193 l 132 0 l 7 0 l 301 886 l 467 886 l 757 0 m 529 301 l 379 775 l 229 301 l 529 301 m 453 981 l 332 981 l 139 1125 l 310 1125 l 453 981 m 0 886 z "},"Á":{"ha":764,"x_min":0,"x_max":757,"o":"m 757 0 l 625 0 l 564 193 l 195 193 l 132 0 l 7 0 l 301 886 l 467 886 l 757 0 m 529 301 l 379 775 l 229 301 l 529 301 m 625 1125 l 432 981 l 311 981 l 454 1125 l 625 1125 m 0 886 z "},"Â":{"ha":764,"x_min":0,"x_max":757,"o":"m 757 0 l 625 0 l 564 193 l 195 193 l 132 0 l 7 0 l 301 886 l 467 886 l 757 0 m 529 301 l 379 775 l 229 301 l 529 301 m 596 981 l 472 981 l 380 1050 l 289 981 l 168 981 l 325 1125 l 439 1125 l 596 981 m 0 886 z "},"Ã":{"ha":764,"x_min":0,"x_max":757,"o":"m 757 0 l 625 0 l 564 193 l 195 193 l 132 0 l 7 0 l 301 886 l 467 886 l 757 0 m 529 301 l 379 775 l 229 301 l 529 301 m 136 1035 q 202 1108 165 1084 q 286 1133 239 1133 q 353 1122 326 1133 q 401 1097 380 1110 q 440 1072 422 1083 q 482 1060 459 1060 q 530 1079 509 1060 q 570 1126 551 1097 l 628 1071 q 562 997 598 1022 q 478 972 525 972 q 411 984 438 972 q 363 1009 385 996 q 324 1034 342 1023 q 282 1046 305 1046 q 234 1027 254 1046 q 195 979 214 1008 l 136 1035 m 0 886 z "},"Ä":{"ha":764,"x_min":0,"x_max":757,"o":"m 757 0 l 625 0 l 564 193 l 195 193 l 132 0 l 7 0 l 301 886 l 467 886 l 757 0 m 529 301 l 379 775 l 229 301 l 529 301 m 233 1125 q 261 1119 248 1125 q 284 1104 275 1114 q 300 1081 294 1095 q 306 1053 306 1067 q 300 1024 306 1038 q 284 1002 294 1011 q 261 986 275 992 q 233 981 248 981 q 182 1001 203 981 q 161 1053 161 1022 q 167 1081 161 1067 q 182 1104 173 1095 q 205 1119 192 1114 q 233 1125 218 1125 m 530 1125 q 559 1119 545 1125 q 582 1104 572 1114 q 597 1081 591 1095 q 603 1053 603 1067 q 597 1024 603 1038 q 582 1002 591 1011 q 559 986 572 992 q 530 981 545 981 q 479 1001 500 981 q 458 1053 458 1022 q 464 1081 458 1067 q 479 1104 470 1095 q 502 1119 489 1114 q 530 1125 515 1125 m 0 886 z "},"Ā":{"ha":764,"x_min":0,"x_max":757,"o":"m 757 0 l 625 0 l 564 193 l 195 193 l 132 0 l 7 0 l 301 886 l 467 886 l 757 0 m 529 301 l 379 775 l 229 301 l 529 301 m 574 1006 l 191 1006 l 191 1096 l 574 1096 l 574 1006 m 0 886 z "},"Ă":{"ha":764,"x_min":0,"x_max":757,"o":"m 757 0 l 625 0 l 564 193 l 195 193 l 132 0 l 7 0 l 301 886 l 467 886 l 757 0 m 529 301 l 379 775 l 229 301 l 529 301 m 562 1129 q 548 1058 562 1088 q 508 1010 533 1029 q 451 982 484 991 q 382 972 418 972 q 313 982 346 972 q 256 1010 281 991 q 216 1058 231 1029 q 201 1129 201 1088 l 294 1129 q 317 1077 294 1095 q 382 1060 340 1060 q 447 1077 424 1060 q 469 1129 469 1095 l 562 1129 m 0 886 z "},"Å":{"ha":764,"x_min":0,"x_max":757,"o":"m 757 0 l 625 0 l 564 193 l 195 193 l 132 0 l 7 0 l 301 886 l 467 886 l 757 0 m 529 301 l 379 775 l 229 301 l 529 301 m 382 1180 q 436 1171 411 1180 q 479 1144 461 1162 q 508 1103 498 1127 q 518 1051 518 1080 q 508 999 518 1023 q 479 958 498 975 q 436 931 461 941 q 382 921 411 921 q 328 931 353 921 q 285 958 303 941 q 256 999 267 975 q 245 1051 245 1023 q 256 1103 245 1080 q 285 1144 267 1127 q 328 1171 303 1162 q 382 1180 353 1180 m 382 1111 q 338 1095 355 1111 q 321 1051 321 1079 q 338 1007 321 1024 q 382 990 355 990 q 427 1007 410 990 q 443 1051 443 1024 q 427 1095 443 1079 q 382 1111 410 1111 m 0 886 z "},"Ǻ":{"ha":764,"x_min":0,"x_max":757,"o":"m 757 0 l 625 0 l 564 193 l 195 193 l 132 0 l 7 0 l 301 886 l 467 886 l 757 0 m 529 301 l 379 775 l 229 301 l 529 301 m 381 1160 q 439 1152 412 1160 q 486 1128 467 1144 q 515 1090 505 1112 q 526 1041 526 1067 q 515 992 526 1015 q 485 954 504 970 q 438 929 465 938 q 381 920 412 920 q 323 929 349 920 q 277 953 297 937 q 247 992 257 969 q 236 1041 236 1015 q 247 1089 236 1067 q 278 1127 258 1111 q 324 1152 298 1143 q 381 1160 350 1160 m 381 1096 q 334 1081 352 1096 q 316 1041 316 1066 q 334 1000 316 1016 q 381 985 352 985 q 428 1000 411 985 q 446 1041 446 1016 q 428 1081 446 1066 q 381 1096 411 1096 m 649 1322 l 466 1194 l 351 1194 l 487 1322 l 649 1322 m 0 886 z "},"Ą":{"ha":764,"x_min":7,"x_max":767,"o":"m 767 -254 q 729 -259 750 -258 q 692 -261 709 -261 q 581 -230 618 -261 q 543 -150 543 -199 q 546 -119 543 -134 q 558 -85 549 -103 q 583 -47 567 -68 q 625 0 599 -26 l 564 193 l 195 193 l 132 0 l 7 0 l 301 886 l 467 886 l 757 0 l 731 0 q 692 -43 707 -24 q 669 -77 677 -62 q 657 -105 661 -92 q 654 -131 654 -118 q 669 -166 654 -153 q 720 -180 684 -180 q 742 -180 729 -180 q 767 -178 755 -179 l 767 -254 m 529 301 l 379 775 l 229 301 l 529 301 z "},"Æ":{"ha":764,"x_min":-29,"x_max":736,"o":"m 736 0 l 396 0 l 396 191 l 164 191 l 90 0 l -29 0 l 332 886 l 726 886 l 726 790 l 509 790 l 509 507 l 717 507 l 717 411 l 509 411 l 509 97 l 736 97 l 736 0 m 396 288 l 396 791 l 201 288 l 396 288 z "},"Ǽ":{"ha":764,"x_min":-29,"x_max":736,"o":"m 736 0 l 396 0 l 396 191 l 164 191 l 90 0 l -29 0 l 332 886 l 726 886 l 726 790 l 509 790 l 509 507 l 717 507 l 717 411 l 509 411 l 509 97 l 736 97 l 736 0 m 396 288 l 396 791 l 201 288 l 396 288 m 667 1125 l 473 981 l 353 981 l 496 1125 l 667 1125 m 41 886 z "},"Ć":{"ha":764,"x_min":41,"x_max":675,"o":"m 675 33 q 452 -11 568 -11 q 163 101 264 -11 q 62 433 62 214 q 90 626 62 540 q 170 772 118 712 q 294 865 221 832 q 458 897 368 897 q 573 887 520 897 q 675 854 626 876 l 675 736 q 575 776 627 762 q 463 790 524 790 q 350 767 400 790 q 264 699 299 743 q 210 590 229 654 q 191 444 191 526 q 260 184 191 272 q 465 97 330 97 q 574 110 522 97 q 675 147 627 123 l 675 33 m 667 1125 l 473 981 l 353 981 l 496 1125 l 667 1125 m 41 886 z "},"Ĉ":{"ha":764,"x_min":41,"x_max":675,"o":"m 675 33 q 452 -11 568 -11 q 163 101 264 -11 q 62 433 62 214 q 90 626 62 540 q 170 772 118 712 q 294 865 221 832 q 458 897 368 897 q 573 887 520 897 q 675 854 626 876 l 675 736 q 575 776 627 762 q 463 790 524 790 q 350 767 400 790 q 264 699 299 743 q 210 590 229 654 q 191 444 191 526 q 260 184 191 272 q 465 97 330 97 q 574 110 522 97 q 675 147 627 123 l 675 33 m 637 981 l 513 981 l 422 1050 l 330 981 l 210 981 l 366 1125 l 480 1125 l 637 981 m 41 886 z "},"Č":{"ha":764,"x_min":41,"x_max":675,"o":"m 675 33 q 452 -11 568 -11 q 163 101 264 -11 q 62 433 62 214 q 90 626 62 540 q 170 772 118 712 q 294 865 221 832 q 458 897 368 897 q 573 887 520 897 q 675 854 626 876 l 675 736 q 575 776 627 762 q 463 790 524 790 q 350 767 400 790 q 264 699 299 743 q 210 590 229 654 q 191 444 191 526 q 260 184 191 272 q 465 97 330 97 q 574 110 522 97 q 675 147 627 123 l 675 33 m 210 1125 l 333 1125 l 425 1055 l 516 1125 l 637 1125 l 480 981 l 366 981 l 210 1125 m 41 886 z "},"Ċ":{"ha":764,"x_min":41,"x_max":675,"o":"m 675 33 q 452 -11 568 -11 q 163 101 264 -11 q 62 433 62 214 q 90 626 62 540 q 170 772 118 712 q 294 865 221 832 q 458 897 368 897 q 573 887 520 897 q 675 854 626 876 l 675 736 q 575 776 627 762 q 463 790 524 790 q 350 767 400 790 q 264 699 299 743 q 210 590 229 654 q 191 444 191 526 q 260 184 191 272 q 465 97 330 97 q 574 110 522 97 q 675 147 627 123 l 675 33 m 337 1053 q 344 1086 337 1070 q 362 1113 351 1101 q 389 1132 374 1125 q 423 1139 405 1139 q 457 1132 441 1139 q 485 1113 473 1125 q 503 1086 496 1101 q 509 1053 509 1070 q 503 1019 509 1035 q 485 992 496 1004 q 457 973 473 980 q 423 966 441 966 q 389 973 405 966 q 362 992 374 980 q 344 1019 351 1004 q 337 1053 337 1035 m 41 886 z "},"Ç":{"ha":764,"x_min":62,"x_max":675,"o":"m 675 33 q 458 -11 567 -11 l 403 -200 l 300 -200 l 345 0 q 135 139 208 28 q 62 433 62 250 q 90 626 62 540 q 170 772 118 712 q 294 865 221 832 q 458 897 368 897 q 573 887 520 897 q 675 854 626 876 l 675 736 q 575 776 627 762 q 463 790 524 790 q 350 767 400 790 q 264 699 299 743 q 210 590 229 654 q 191 444 191 526 q 260 185 191 273 q 465 97 330 97 q 574 110 522 97 q 675 147 627 123 l 675 33 z "},"Ď":{"ha":764,"x_min":-26,"x_max":714,"o":"m 714 453 q 704 331 714 389 q 673 222 694 273 q 616 131 651 172 q 532 61 582 90 q 415 16 481 32 q 264 0 349 0 l 74 0 l 74 886 l 302 886 q 612 780 510 886 q 714 453 714 673 m 587 444 q 570 604 587 538 q 516 709 552 669 q 426 767 480 749 q 298 785 372 785 l 195 785 l 195 104 l 285 104 q 587 444 587 104 m 142 1125 l 265 1125 l 357 1055 l 448 1125 l 570 1125 l 412 981 l 298 981 l 142 1125 m -26 886 z "},"Ð":{"ha":764,"x_min":0,"x_max":714,"o":"m 94 886 l 310 886 q 615 780 517 886 q 714 453 714 673 q 705 331 714 389 q 675 222 696 273 q 620 131 654 172 q 537 61 586 90 q 421 16 488 32 q 271 0 355 0 l 94 0 l 94 408 l 0 408 l 0 510 l 94 510 l 94 886 m 215 104 l 292 104 q 515 190 443 104 q 587 444 587 275 q 571 604 587 538 q 519 709 554 669 q 432 767 485 749 q 306 785 378 785 l 215 785 l 215 510 l 368 510 l 368 408 l 215 408 l 215 104 z "},"Đ":{"ha":764,"x_min":0,"x_max":714,"o":"m 94 886 l 310 886 q 615 780 517 886 q 714 453 714 673 q 705 331 714 389 q 675 222 696 273 q 620 131 654 172 q 537 61 586 90 q 421 16 488 32 q 271 0 355 0 l 94 0 l 94 408 l 0 408 l 0 510 l 94 510 l 94 886 m 215 104 l 292 104 q 515 190 443 104 q 587 444 587 275 q 571 604 587 538 q 519 709 554 669 q 432 767 485 749 q 306 785 378 785 l 215 785 l 215 510 l 368 510 l 368 408 l 215 408 l 215 104 z "},"È":{"ha":764,"x_min":0,"x_max":640,"o":"m 640 0 l 136 0 l 136 886 l 640 886 l 640 785 l 257 785 l 257 510 l 625 510 l 625 408 l 257 408 l 257 103 l 640 103 l 640 0 m 453 981 l 332 981 l 139 1125 l 310 1125 l 453 981 m 0 886 z "},"É":{"ha":764,"x_min":0,"x_max":640,"o":"m 640 0 l 136 0 l 136 886 l 640 886 l 640 785 l 257 785 l 257 510 l 625 510 l 625 408 l 257 408 l 257 103 l 640 103 l 640 0 m 625 1125 l 432 981 l 311 981 l 454 1125 l 625 1125 m 0 886 z "},"Ê":{"ha":764,"x_min":0,"x_max":640,"o":"m 640 0 l 136 0 l 136 886 l 640 886 l 640 785 l 257 785 l 257 510 l 625 510 l 625 408 l 257 408 l 257 103 l 640 103 l 640 0 m 596 981 l 472 981 l 380 1050 l 289 981 l 168 981 l 325 1125 l 439 1125 l 596 981 m 0 886 z "},"Ě":{"ha":764,"x_min":0,"x_max":640,"o":"m 640 0 l 136 0 l 136 886 l 640 886 l 640 785 l 257 785 l 257 510 l 625 510 l 625 408 l 257 408 l 257 103 l 640 103 l 640 0 m 168 1125 l 292 1125 l 383 1055 l 475 1125 l 596 1125 l 439 981 l 325 981 l 168 1125 m 0 886 z "},"Ë":{"ha":764,"x_min":0,"x_max":640,"o":"m 640 0 l 136 0 l 136 886 l 640 886 l 640 785 l 257 785 l 257 510 l 625 510 l 625 408 l 257 408 l 257 103 l 640 103 l 640 0 m 233 1125 q 261 1119 248 1125 q 284 1104 275 1114 q 300 1081 294 1095 q 306 1053 306 1067 q 300 1024 306 1038 q 284 1002 294 1011 q 261 986 275 992 q 233 981 248 981 q 182 1001 203 981 q 161 1053 161 1022 q 167 1081 161 1067 q 182 1104 173 1095 q 205 1119 192 1114 q 233 1125 218 1125 m 530 1125 q 559 1119 545 1125 q 582 1104 572 1114 q 597 1081 591 1095 q 603 1053 603 1067 q 597 1024 603 1038 q 582 1002 591 1011 q 559 986 572 992 q 530 981 545 981 q 479 1001 500 981 q 458 1053 458 1022 q 464 1081 458 1067 q 479 1104 470 1095 q 502 1119 489 1114 q 530 1125 515 1125 m 0 886 z "},"Ē":{"ha":764,"x_min":0,"x_max":640,"o":"m 640 0 l 136 0 l 136 886 l 640 886 l 640 785 l 257 785 l 257 510 l 625 510 l 625 408 l 257 408 l 257 103 l 640 103 l 640 0 m 574 1006 l 191 1006 l 191 1096 l 574 1096 l 574 1006 m 0 886 z "},"Ĕ":{"ha":764,"x_min":0,"x_max":640,"o":"m 640 0 l 136 0 l 136 886 l 640 886 l 640 785 l 257 785 l 257 510 l 625 510 l 625 408 l 257 408 l 257 103 l 640 103 l 640 0 m 562 1129 q 548 1058 562 1088 q 508 1010 533 1029 q 451 982 484 991 q 382 972 418 972 q 313 982 346 972 q 256 1010 281 991 q 216 1058 231 1029 q 201 1129 201 1088 l 294 1129 q 317 1077 294 1095 q 382 1060 340 1060 q 447 1077 424 1060 q 469 1129 469 1095 l 562 1129 m 0 886 z "},"Ė":{"ha":764,"x_min":0,"x_max":640,"o":"m 640 0 l 136 0 l 136 886 l 640 886 l 640 785 l 257 785 l 257 510 l 625 510 l 625 408 l 257 408 l 257 103 l 640 103 l 640 0 m 296 1053 q 302 1086 296 1070 q 321 1113 309 1101 q 348 1132 332 1125 q 382 1139 363 1139 q 416 1132 400 1139 q 443 1113 431 1125 q 461 1086 455 1101 q 468 1053 468 1070 q 461 1019 468 1035 q 443 992 455 1004 q 416 973 431 980 q 382 966 400 966 q 348 973 363 966 q 321 992 332 980 q 302 1019 309 1004 q 296 1053 296 1035 m 0 886 z "},"Ę":{"ha":764,"x_min":136,"x_max":677,"o":"m 677 -254 q 639 -259 660 -258 q 602 -261 618 -261 q 491 -230 528 -261 q 453 -150 453 -199 q 456 -119 453 -134 q 468 -85 459 -103 q 493 -47 477 -68 q 535 0 509 -26 l 136 0 l 136 886 l 640 886 l 640 785 l 257 785 l 257 510 l 625 510 l 625 408 l 257 408 l 257 103 l 640 103 l 640 0 l 641 0 q 602 -43 616 -24 q 578 -77 587 -62 q 567 -105 570 -92 q 564 -131 564 -118 q 579 -166 564 -153 q 629 -180 593 -180 q 652 -180 639 -180 q 677 -178 665 -179 l 677 -254 z "},"Ĝ":{"ha":764,"x_min":41,"x_max":686,"o":"m 682 734 q 581 775 633 761 q 467 790 528 790 q 341 765 396 790 q 249 694 286 740 q 191 584 211 648 q 171 441 171 519 q 187 296 171 360 q 238 186 203 231 q 327 118 273 142 q 456 94 380 94 q 484 96 469 94 q 513 99 498 97 q 542 105 528 102 q 567 113 556 109 l 567 395 l 386 395 l 386 494 l 686 494 l 686 41 q 628 18 659 28 q 565 1 597 8 q 500 -9 532 -5 q 439 -12 469 -12 q 275 16 348 -12 q 151 101 202 45 q 72 240 100 157 q 45 433 45 323 q 75 629 45 543 q 161 775 106 715 q 294 867 216 836 q 465 899 372 899 q 579 888 525 899 q 682 854 633 878 l 682 734 m 637 981 l 513 981 l 422 1050 l 330 981 l 210 981 l 366 1125 l 480 1125 l 637 981 m 41 886 z "},"Ğ":{"ha":764,"x_min":41,"x_max":686,"o":"m 682 734 q 581 775 633 761 q 467 790 528 790 q 341 765 396 790 q 249 694 286 740 q 191 584 211 648 q 171 441 171 519 q 187 296 171 360 q 238 186 203 231 q 327 118 273 142 q 456 94 380 94 q 484 96 469 94 q 513 99 498 97 q 542 105 528 102 q 567 113 556 109 l 567 395 l 386 395 l 386 494 l 686 494 l 686 41 q 628 18 659 28 q 565 1 597 8 q 500 -9 532 -5 q 439 -12 469 -12 q 275 16 348 -12 q 151 101 202 45 q 72 240 100 157 q 45 433 45 323 q 75 629 45 543 q 161 775 106 715 q 294 867 216 836 q 465 899 372 899 q 579 888 525 899 q 682 854 633 878 l 682 734 m 604 1129 q 589 1058 604 1088 q 550 1010 574 1029 q 492 982 525 991 q 423 972 459 972 q 355 982 387 972 q 297 1010 322 991 q 257 1058 272 1029 q 243 1129 243 1088 l 336 1129 q 358 1077 336 1095 q 423 1060 381 1060 q 488 1077 465 1060 q 511 1129 511 1095 l 604 1129 m 41 886 z "},"Ġ":{"ha":764,"x_min":41,"x_max":686,"o":"m 682 734 q 581 775 633 761 q 467 790 528 790 q 341 765 396 790 q 249 694 286 740 q 191 584 211 648 q 171 441 171 519 q 187 296 171 360 q 238 186 203 231 q 327 118 273 142 q 456 94 380 94 q 484 96 469 94 q 513 99 498 97 q 542 105 528 102 q 567 113 556 109 l 567 395 l 386 395 l 386 494 l 686 494 l 686 41 q 628 18 659 28 q 565 1 597 8 q 500 -9 532 -5 q 439 -12 469 -12 q 275 16 348 -12 q 151 101 202 45 q 72 240 100 157 q 45 433 45 323 q 75 629 45 543 q 161 775 106 715 q 294 867 216 836 q 465 899 372 899 q 579 888 525 899 q 682 854 633 878 l 682 734 m 337 1053 q 344 1086 337 1070 q 362 1113 351 1101 q 389 1132 374 1125 q 423 1139 405 1139 q 457 1132 441 1139 q 485 1113 473 1125 q 503 1086 496 1101 q 509 1053 509 1070 q 503 1019 509 1035 q 485 992 496 1004 q 457 973 473 980 q 423 966 441 966 q 389 973 405 966 q 362 992 374 980 q 344 1019 351 1004 q 337 1053 337 1035 m 41 886 z "},"Ģ":{"ha":764,"x_min":45,"x_max":686,"o":"m 682 734 q 581 775 633 761 q 467 790 528 790 q 341 765 396 790 q 249 694 286 740 q 191 584 211 648 q 171 441 171 519 q 187 296 171 360 q 238 186 203 231 q 327 118 273 142 q 456 94 380 94 q 484 96 469 94 q 513 99 498 97 q 542 105 528 102 q 567 113 556 109 l 567 395 l 386 395 l 386 494 l 686 494 l 686 41 q 628 18 659 28 q 565 1 597 8 q 500 -9 532 -5 q 439 -12 469 -12 q 275 16 348 -12 q 151 101 202 45 q 72 240 100 157 q 45 433 45 323 q 75 629 45 543 q 161 775 106 715 q 294 867 216 836 q 465 899 372 899 q 579 888 525 899 q 682 854 633 878 l 682 734 m 453 -78 l 393 -278 l 293 -278 l 338 -78 l 453 -78 z "},"Ĥ":{"ha":764,"x_min":0,"x_max":689,"o":"m 689 0 l 568 0 l 568 407 l 196 407 l 196 0 l 75 0 l 75 886 l 196 886 l 196 511 l 568 511 l 568 886 l 689 886 l 689 0 m 596 981 l 472 981 l 380 1050 l 289 981 l 168 981 l 325 1125 l 439 1125 l 596 981 m 0 886 z "},"Ħ":{"ha":764,"x_min":21,"x_max":743,"o":"m 668 637 l 668 0 l 547 0 l 547 387 l 216 387 l 216 0 l 96 0 l 96 637 l 21 637 l 21 739 l 96 739 l 96 886 l 216 886 l 216 739 l 547 739 l 547 886 l 668 886 l 668 739 l 743 739 l 743 637 l 668 637 m 547 489 l 547 637 l 216 637 l 216 489 l 547 489 z "},"Ì":{"ha":764,"x_min":0,"x_max":647,"o":"m 321 785 l 117 785 l 117 886 l 647 886 l 647 785 l 443 785 l 443 103 l 647 103 l 647 0 l 117 0 l 117 103 l 321 103 l 321 785 m 453 981 l 332 981 l 139 1125 l 310 1125 l 453 981 m 0 886 z "},"Í":{"ha":764,"x_min":0,"x_max":647,"o":"m 321 785 l 117 785 l 117 886 l 647 886 l 647 785 l 443 785 l 443 103 l 647 103 l 647 0 l 117 0 l 117 103 l 321 103 l 321 785 m 625 1125 l 432 981 l 311 981 l 454 1125 l 625 1125 m 0 886 z "},"Î":{"ha":764,"x_min":0,"x_max":647,"o":"m 321 785 l 117 785 l 117 886 l 647 886 l 647 785 l 443 785 l 443 103 l 647 103 l 647 0 l 117 0 l 117 103 l 321 103 l 321 785 m 596 981 l 472 981 l 380 1050 l 289 981 l 168 981 l 325 1125 l 439 1125 l 596 981 m 0 886 z "},"Ĩ":{"ha":764,"x_min":0,"x_max":647,"o":"m 321 785 l 117 785 l 117 886 l 647 886 l 647 785 l 443 785 l 443 103 l 647 103 l 647 0 l 117 0 l 117 103 l 321 103 l 321 785 m 136 1035 q 202 1108 165 1084 q 286 1133 239 1133 q 353 1122 326 1133 q 401 1097 380 1110 q 440 1072 422 1083 q 482 1060 459 1060 q 530 1079 509 1060 q 570 1126 551 1097 l 628 1071 q 562 997 598 1022 q 478 972 525 972 q 411 984 438 972 q 363 1009 385 996 q 324 1034 342 1023 q 282 1046 305 1046 q 234 1027 254 1046 q 195 979 214 1008 l 136 1035 m 0 886 z "},"Ï":{"ha":764,"x_min":0,"x_max":647,"o":"m 321 785 l 117 785 l 117 886 l 647 886 l 647 785 l 443 785 l 443 103 l 647 103 l 647 0 l 117 0 l 117 103 l 321 103 l 321 785 m 233 1125 q 261 1119 248 1125 q 284 1104 275 1114 q 300 1081 294 1095 q 306 1053 306 1067 q 300 1024 306 1038 q 284 1002 294 1011 q 261 986 275 992 q 233 981 248 981 q 182 1001 203 981 q 161 1053 161 1022 q 167 1081 161 1067 q 182 1104 173 1095 q 205 1119 192 1114 q 233 1125 218 1125 m 530 1125 q 559 1119 545 1125 q 582 1104 572 1114 q 597 1081 591 1095 q 603 1053 603 1067 q 597 1024 603 1038 q 582 1002 591 1011 q 559 986 572 992 q 530 981 545 981 q 479 1001 500 981 q 458 1053 458 1022 q 464 1081 458 1067 q 479 1104 470 1095 q 502 1119 489 1114 q 530 1125 515 1125 m 0 886 z "},"Ī":{"ha":764,"x_min":0,"x_max":647,"o":"m 321 785 l 117 785 l 117 886 l 647 886 l 647 785 l 443 785 l 443 103 l 647 103 l 647 0 l 117 0 l 117 103 l 321 103 l 321 785 m 574 1006 l 191 1006 l 191 1096 l 574 1096 l 574 1006 m 0 886 z "},"Ĭ":{"ha":764,"x_min":0,"x_max":647,"o":"m 321 785 l 117 785 l 117 886 l 647 886 l 647 785 l 443 785 l 443 103 l 647 103 l 647 0 l 117 0 l 117 103 l 321 103 l 321 785 m 562 1129 q 548 1058 562 1088 q 508 1010 533 1029 q 451 982 484 991 q 382 972 418 972 q 313 982 346 972 q 256 1010 281 991 q 216 1058 231 1029 q 201 1129 201 1088 l 294 1129 q 317 1077 294 1095 q 382 1060 340 1060 q 447 1077 424 1060 q 469 1129 469 1095 l 562 1129 m 0 886 z "},"İ":{"ha":764,"x_min":0,"x_max":647,"o":"m 321 785 l 117 785 l 117 886 l 647 886 l 647 785 l 443 785 l 443 103 l 647 103 l 647 0 l 117 0 l 117 103 l 321 103 l 321 785 m 296 1053 q 302 1086 296 1070 q 321 1113 309 1101 q 348 1132 332 1125 q 382 1139 363 1139 q 416 1132 400 1139 q 443 1113 431 1125 q 461 1086 455 1101 q 468 1053 468 1070 q 461 1019 468 1035 q 443 992 455 1004 q 416 973 431 980 q 382 966 400 966 q 348 973 363 966 q 321 992 332 980 q 302 1019 309 1004 q 296 1053 296 1035 m 0 886 z "},"Į":{"ha":764,"x_min":117,"x_max":684,"o":"m 684 -254 q 646 -259 667 -258 q 608 -261 625 -261 q 497 -230 535 -261 q 460 -150 460 -199 q 463 -119 460 -134 q 475 -85 466 -103 q 499 -47 484 -68 q 542 0 515 -26 l 117 0 l 117 103 l 321 103 l 321 785 l 117 785 l 117 886 l 647 886 l 647 785 l 443 785 l 443 103 l 647 103 l 647 0 l 648 0 q 608 -43 623 -24 q 585 -77 593 -62 q 574 -105 577 -92 q 571 -131 571 -118 q 586 -166 571 -153 q 636 -180 600 -180 q 659 -180 646 -180 q 684 -178 672 -179 l 684 -254 z "},"Ĳ":{"ha":764,"x_min":75,"x_max":689,"o":"m 322 119 q 348 110 333 115 q 378 100 362 104 q 409 94 393 96 q 437 92 425 92 q 534 128 500 92 q 568 250 568 165 l 568 886 l 689 886 l 689 240 q 674 139 689 184 q 628 60 659 93 q 552 10 597 28 q 444 -8 506 -8 q 322 11 376 -8 l 322 119 m 196 0 l 75 0 l 75 886 l 196 886 l 196 0 z "},"Ĵ":{"ha":764,"x_min":0,"x_max":596,"o":"m 595 886 l 595 271 q 578 162 595 214 q 526 73 561 111 q 439 13 492 35 q 317 -9 387 -9 q 263 -6 290 -9 q 210 4 235 -2 q 162 20 184 11 q 123 40 140 29 l 123 161 q 217 113 165 131 q 318 96 268 96 q 432 141 392 96 q 472 271 472 186 l 472 782 l 135 782 l 135 886 l 595 886 m 596 981 l 472 981 l 380 1050 l 289 981 l 168 981 l 325 1125 l 439 1125 l 596 981 m 0 886 z "},"Ķ":{"ha":764,"x_min":106,"x_max":710,"o":"m 710 0 l 558 0 l 227 435 l 227 0 l 106 0 l 106 886 l 227 886 l 227 475 l 551 886 l 694 886 l 345 465 l 710 0 m 453 -78 l 393 -278 l 293 -278 l 338 -78 l 453 -78 z "},"Ĺ":{"ha":764,"x_min":0,"x_max":668,"o":"m 668 0 l 158 0 l 158 886 l 281 886 l 281 103 l 668 103 l 668 0 m 625 1125 l 432 981 l 311 981 l 454 1125 l 625 1125 m 0 886 z "},"Ľ":{"ha":764,"x_min":-165,"x_max":672,"o":"m 668 0 l 158 0 l 158 886 l 281 886 l 281 103 l 668 103 l 668 0 m 672 994 l 598 794 l 500 794 l 557 994 l 672 994 m -165 681 z "},"Ļ":{"ha":764,"x_min":158,"x_max":668,"o":"m 668 0 l 158 0 l 158 886 l 281 886 l 281 103 l 668 103 l 668 0 m 453 -78 l 393 -278 l 293 -278 l 338 -78 l 453 -78 z "},"Ł":{"ha":764,"x_min":31,"x_max":668,"o":"m 294 103 l 668 103 l 668 0 l 172 0 l 172 408 l 31 336 l 31 443 l 172 515 l 172 886 l 294 886 l 294 576 l 539 700 l 539 593 l 294 469 l 294 103 z "},"Ŀ":{"ha":764,"x_min":132,"x_max":758,"o":"m 642 0 l 132 0 l 132 886 l 254 886 l 254 103 l 642 103 l 642 0 m 646 525 q 689 516 669 525 q 725 491 710 507 q 749 455 741 476 q 758 411 758 434 q 749 368 758 388 q 725 332 741 347 q 689 308 710 317 q 646 298 669 298 q 602 308 622 298 q 566 332 581 317 q 542 368 551 347 q 533 411 533 388 q 542 455 533 434 q 566 491 551 476 q 602 516 581 507 q 646 525 622 525 z "},"Ń":{"ha":764,"x_min":0,"x_max":684,"o":"m 684 0 l 526 0 l 268 553 l 193 730 l 193 283 l 193 0 l 81 0 l 81 886 l 236 886 l 482 363 l 571 160 l 571 635 l 571 886 l 684 886 l 684 0 m 625 1125 l 432 981 l 311 981 l 454 1125 l 625 1125 m 0 886 z "},"Ň":{"ha":764,"x_min":0,"x_max":684,"o":"m 684 0 l 526 0 l 268 553 l 193 730 l 193 283 l 193 0 l 81 0 l 81 886 l 236 886 l 482 363 l 571 160 l 571 635 l 571 886 l 684 886 l 684 0 m 168 1125 l 292 1125 l 383 1055 l 475 1125 l 596 1125 l 439 981 l 325 981 l 168 1125 m 0 886 z "},"Ñ":{"ha":764,"x_min":0,"x_max":684,"o":"m 684 0 l 526 0 l 268 553 l 193 730 l 193 283 l 193 0 l 81 0 l 81 886 l 236 886 l 482 363 l 571 160 l 571 635 l 571 886 l 684 886 l 684 0 m 136 1035 q 202 1108 165 1084 q 286 1133 239 1133 q 353 1122 326 1133 q 401 1097 380 1110 q 440 1072 422 1083 q 482 1060 459 1060 q 530 1079 509 1060 q 570 1126 551 1097 l 628 1071 q 562 997 598 1022 q 478 972 525 972 q 411 984 438 972 q 363 1009 385 996 q 324 1034 342 1023 q 282 1046 305 1046 q 234 1027 254 1046 q 195 979 214 1008 l 136 1035 m 0 886 z "},"Ņ":{"ha":764,"x_min":81,"x_max":684,"o":"m 684 0 l 526 0 l 268 553 l 193 730 l 193 283 l 193 0 l 81 0 l 81 886 l 236 886 l 482 363 l 571 160 l 571 635 l 571 886 l 684 886 l 684 0 m 453 -78 l 393 -278 l 293 -278 l 338 -78 l 453 -78 z "},"Ŋ":{"ha":764,"x_min":81,"x_max":684,"o":"m 277 557 l 193 730 l 193 0 l 81 0 l 81 886 l 229 886 l 498 376 l 571 229 l 571 886 l 684 886 l 684 12 q 665 -114 684 -59 q 610 -208 646 -170 q 524 -265 574 -245 q 410 -285 473 -285 l 411 -183 q 525 -135 485 -183 q 566 8 566 -87 l 277 557 z "},"Ò":{"ha":764,"x_min":0,"x_max":726,"o":"m 726 449 q 698 243 726 330 q 622 99 670 156 q 510 15 574 43 q 375 -12 446 -12 q 226 19 290 -12 q 121 108 163 50 q 59 250 79 166 q 39 439 39 334 q 66 644 39 557 q 142 787 94 730 q 254 871 190 844 q 389 899 317 899 q 537 867 474 899 q 643 778 601 836 q 706 637 685 720 q 726 449 726 553 m 601 440 q 589 583 601 518 q 551 694 577 648 q 483 767 524 741 q 382 793 441 793 q 284 765 325 793 q 216 691 243 738 q 177 580 190 644 q 164 446 164 517 q 176 302 164 367 q 215 191 189 237 q 282 119 241 144 q 382 93 323 93 q 480 120 439 93 q 548 195 522 148 q 588 305 575 242 q 601 440 601 368 m 453 981 l 332 981 l 139 1125 l 310 1125 l 453 981 m 0 886 z "},"Ó":{"ha":764,"x_min":0,"x_max":726,"o":"m 726 449 q 698 243 726 330 q 622 99 670 156 q 510 15 574 43 q 375 -12 446 -12 q 226 19 290 -12 q 121 108 163 50 q 59 250 79 166 q 39 439 39 334 q 66 644 39 557 q 142 787 94 730 q 254 871 190 844 q 389 899 317 899 q 537 867 474 899 q 643 778 601 836 q 706 637 685 720 q 726 449 726 553 m 601 440 q 589 583 601 518 q 551 694 577 648 q 483 767 524 741 q 382 793 441 793 q 284 765 325 793 q 216 691 243 738 q 177 580 190 644 q 164 446 164 517 q 176 302 164 367 q 215 191 189 237 q 282 119 241 144 q 382 93 323 93 q 480 120 439 93 q 548 195 522 148 q 588 305 575 242 q 601 440 601 368 m 625 1125 l 432 981 l 311 981 l 454 1125 l 625 1125 m 0 886 z "},"Ô":{"ha":764,"x_min":0,"x_max":726,"o":"m 726 449 q 698 243 726 330 q 622 99 670 156 q 510 15 574 43 q 375 -12 446 -12 q 226 19 290 -12 q 121 108 163 50 q 59 250 79 166 q 39 439 39 334 q 66 644 39 557 q 142 787 94 730 q 254 871 190 844 q 389 899 317 899 q 537 867 474 899 q 643 778 601 836 q 706 637 685 720 q 726 449 726 553 m 601 440 q 589 583 601 518 q 551 694 577 648 q 483 767 524 741 q 382 793 441 793 q 284 765 325 793 q 216 691 243 738 q 177 580 190 644 q 164 446 164 517 q 176 302 164 367 q 215 191 189 237 q 282 119 241 144 q 382 93 323 93 q 480 120 439 93 q 548 195 522 148 q 588 305 575 242 q 601 440 601 368 m 596 981 l 472 981 l 380 1050 l 289 981 l 168 981 l 325 1125 l 439 1125 l 596 981 m 0 886 z "},"Õ":{"ha":764,"x_min":0,"x_max":726,"o":"m 726 449 q 698 243 726 330 q 622 99 670 156 q 510 15 574 43 q 375 -12 446 -12 q 226 19 290 -12 q 121 108 163 50 q 59 250 79 166 q 39 439 39 334 q 66 644 39 557 q 142 787 94 730 q 254 871 190 844 q 389 899 317 899 q 537 867 474 899 q 643 778 601 836 q 706 637 685 720 q 726 449 726 553 m 601 440 q 589 583 601 518 q 551 694 577 648 q 483 767 524 741 q 382 793 441 793 q 284 765 325 793 q 216 691 243 738 q 177 580 190 644 q 164 446 164 517 q 176 302 164 367 q 215 191 189 237 q 282 119 241 144 q 382 93 323 93 q 480 120 439 93 q 548 195 522 148 q 588 305 575 242 q 601 440 601 368 m 136 1035 q 202 1108 165 1084 q 286 1133 239 1133 q 353 1122 326 1133 q 401 1097 380 1110 q 440 1072 422 1083 q 482 1060 459 1060 q 530 1079 509 1060 q 570 1126 551 1097 l 628 1071 q 562 997 598 1022 q 478 972 525 972 q 411 984 438 972 q 363 1009 385 996 q 324 1034 342 1023 q 282 1046 305 1046 q 234 1027 254 1046 q 195 979 214 1008 l 136 1035 m 0 886 z "},"Ö":{"ha":764,"x_min":0,"x_max":726,"o":"m 726 449 q 698 243 726 330 q 622 99 670 156 q 510 15 574 43 q 375 -12 446 -12 q 226 19 290 -12 q 121 108 163 50 q 59 250 79 166 q 39 439 39 334 q 66 644 39 557 q 142 787 94 730 q 254 871 190 844 q 389 899 317 899 q 537 867 474 899 q 643 778 601 836 q 706 637 685 720 q 726 449 726 553 m 601 440 q 589 583 601 518 q 551 694 577 648 q 483 767 524 741 q 382 793 441 793 q 284 765 325 793 q 216 691 243 738 q 177 580 190 644 q 164 446 164 517 q 176 302 164 367 q 215 191 189 237 q 282 119 241 144 q 382 93 323 93 q 480 120 439 93 q 548 195 522 148 q 588 305 575 242 q 601 440 601 368 m 233 1125 q 261 1119 248 1125 q 284 1104 275 1114 q 300 1081 294 1095 q 306 1053 306 1067 q 300 1024 306 1038 q 284 1002 294 1011 q 261 986 275 992 q 233 981 248 981 q 182 1001 203 981 q 161 1053 161 1022 q 167 1081 161 1067 q 182 1104 173 1095 q 205 1119 192 1114 q 233 1125 218 1125 m 530 1125 q 559 1119 545 1125 q 582 1104 572 1114 q 597 1081 591 1095 q 603 1053 603 1067 q 597 1024 603 1038 q 582 1002 591 1011 q 559 986 572 992 q 530 981 545 981 q 479 1001 500 981 q 458 1053 458 1022 q 464 1081 458 1067 q 479 1104 470 1095 q 502 1119 489 1114 q 530 1125 515 1125 m 0 886 z "},"Ō":{"ha":764,"x_min":0,"x_max":726,"o":"m 726 449 q 698 243 726 330 q 622 99 670 156 q 510 15 574 43 q 375 -12 446 -12 q 226 19 290 -12 q 121 108 163 50 q 59 250 79 166 q 39 439 39 334 q 66 644 39 557 q 142 787 94 730 q 254 871 190 844 q 389 899 317 899 q 537 867 474 899 q 643 778 601 836 q 706 637 685 720 q 726 449 726 553 m 601 440 q 589 583 601 518 q 551 694 577 648 q 483 767 524 741 q 382 793 441 793 q 284 765 325 793 q 216 691 243 738 q 177 580 190 644 q 164 446 164 517 q 176 302 164 367 q 215 191 189 237 q 282 119 241 144 q 382 93 323 93 q 480 120 439 93 q 548 195 522 148 q 588 305 575 242 q 601 440 601 368 m 574 1006 l 191 1006 l 191 1096 l 574 1096 l 574 1006 m 0 886 z "},"Ŏ":{"ha":764,"x_min":0,"x_max":726,"o":"m 726 449 q 698 243 726 330 q 622 99 670 156 q 510 15 574 43 q 375 -12 446 -12 q 226 19 290 -12 q 121 108 163 50 q 59 250 79 166 q 39 439 39 334 q 66 644 39 557 q 142 787 94 730 q 254 871 190 844 q 389 899 317 899 q 537 867 474 899 q 643 778 601 836 q 706 637 685 720 q 726 449 726 553 m 601 440 q 589 583 601 518 q 551 694 577 648 q 483 767 524 741 q 382 793 441 793 q 284 765 325 793 q 216 691 243 738 q 177 580 190 644 q 164 446 164 517 q 176 302 164 367 q 215 191 189 237 q 282 119 241 144 q 382 93 323 93 q 480 120 439 93 q 548 195 522 148 q 588 305 575 242 q 601 440 601 368 m 562 1129 q 548 1058 562 1088 q 508 1010 533 1029 q 451 982 484 991 q 382 972 418 972 q 313 982 346 972 q 256 1010 281 991 q 216 1058 231 1029 q 201 1129 201 1088 l 294 1129 q 317 1077 294 1095 q 382 1060 340 1060 q 447 1077 424 1060 q 469 1129 469 1095 l 562 1129 m 0 886 z "},"Ő":{"ha":764,"x_min":0,"x_max":764,"o":"m 726 449 q 698 243 726 330 q 622 99 670 156 q 510 15 574 43 q 375 -12 446 -12 q 226 19 290 -12 q 121 108 163 50 q 59 250 79 166 q 39 439 39 334 q 66 644 39 557 q 142 787 94 730 q 254 871 190 844 q 389 899 317 899 q 537 867 474 899 q 643 778 601 836 q 706 637 685 720 q 726 449 726 553 m 601 440 q 589 583 601 518 q 551 694 577 648 q 483 767 524 741 q 382 793 441 793 q 284 765 325 793 q 216 691 243 738 q 177 580 190 644 q 164 446 164 517 q 176 302 164 367 q 215 191 189 237 q 282 119 241 144 q 382 93 323 93 q 480 120 439 93 q 548 195 522 148 q 588 305 575 242 q 601 440 601 368 m 458 1125 l 307 981 l 184 981 l 314 1125 l 458 1125 m 764 1125 l 587 981 l 464 981 l 607 1125 l 764 1125 m 0 886 z "},"Ø":{"ha":764,"x_min":39,"x_max":725,"o":"m 608 1032 l 555 857 q 683 702 642 806 q 725 449 725 598 q 697 243 725 330 q 622 99 669 156 q 510 15 574 43 q 375 -12 446 -12 q 335 -11 354 -12 q 297 -5 316 -9 l 256 -146 l 157 -146 l 208 28 q 81 182 123 77 q 39 439 39 288 q 66 644 39 557 q 142 787 94 730 q 254 871 190 844 q 389 899 317 899 q 467 890 431 899 l 510 1032 l 608 1032 m 164 446 q 183 270 164 347 q 244 149 201 193 l 436 786 q 410 791 423 789 q 382 793 397 793 q 284 765 325 793 q 216 691 243 738 q 177 580 190 644 q 164 446 164 517 m 600 440 q 581 614 600 539 q 519 736 562 690 l 329 98 q 354 94 340 95 q 382 93 368 93 q 480 120 439 93 q 548 195 521 148 q 587 305 574 242 q 600 440 600 368 z "},"Ǿ":{"ha":764,"x_min":-68,"x_max":725,"o":"m 608 1032 l 555 857 q 683 702 642 806 q 725 449 725 598 q 697 243 725 330 q 622 99 669 156 q 510 15 574 43 q 375 -12 446 -12 q 335 -11 354 -12 q 297 -5 316 -9 l 256 -146 l 157 -146 l 208 28 q 81 182 123 77 q 39 439 39 288 q 66 644 39 557 q 142 787 94 730 q 254 871 190 844 q 389 899 317 899 q 467 890 431 899 l 510 1032 l 608 1032 m 164 446 q 183 270 164 347 q 244 149 201 193 l 436 786 q 410 791 423 789 q 382 793 397 793 q 284 765 325 793 q 216 691 243 738 q 177 580 190 644 q 164 446 164 517 m 600 440 q 581 614 600 539 q 519 736 562 690 l 329 98 q 354 94 340 95 q 382 93 368 93 q 480 120 439 93 q 548 195 521 148 q 587 305 574 242 q 600 440 600 368 m 557 1125 l 364 981 l 243 981 l 387 1125 l 557 1125 m -68 886 z "},"Œ":{"ha":764,"x_min":21,"x_max":742,"o":"m 742 0 l 494 0 q 408 -5 444 0 q 343 -9 372 -9 q 200 20 260 -9 q 99 106 139 50 q 40 247 60 163 q 21 439 21 330 q 47 643 21 557 q 117 785 73 729 q 220 869 161 842 q 346 896 279 896 q 383 895 362 896 q 425 891 404 893 q 464 888 446 889 q 492 886 481 886 l 742 886 l 742 787 l 518 787 l 518 509 l 728 509 l 728 410 l 518 410 l 518 100 l 742 100 l 742 0 m 401 790 q 377 794 392 792 q 346 796 363 796 q 253 769 292 796 q 190 693 214 741 q 153 581 165 646 q 142 443 142 517 q 194 181 142 272 q 350 90 247 90 q 376 92 363 90 q 401 97 388 94 l 401 790 z "},"Þ":{"ha":764,"x_min":107,"x_max":689,"o":"m 228 886 l 228 754 l 357 754 q 483 739 422 754 q 589 689 543 723 q 662 603 635 656 q 689 476 689 550 q 669 368 689 422 q 606 270 648 313 q 496 199 563 227 q 338 172 430 172 l 228 172 l 228 0 l 107 0 l 107 886 l 228 886 m 564 471 q 549 547 564 513 q 508 605 535 581 q 441 642 480 629 q 351 654 401 654 l 228 654 l 228 275 l 340 275 q 506 326 448 275 q 564 471 564 376 z "},"Ŕ":{"ha":764,"x_min":-26,"x_max":713,"o":"m 713 0 l 576 0 l 444 283 q 414 337 429 316 q 380 371 398 359 q 341 389 362 384 q 293 395 319 395 l 236 395 l 236 0 l 115 0 l 115 886 l 353 886 q 486 869 430 886 q 577 822 541 852 q 629 748 612 791 q 646 653 646 705 q 633 575 646 612 q 597 508 621 538 q 537 455 573 477 q 456 422 502 433 q 519 377 493 410 q 572 292 545 345 l 713 0 m 519 643 q 475 749 519 714 q 350 785 431 785 l 236 785 l 236 492 l 334 492 q 411 502 376 492 q 469 531 445 511 q 506 578 493 550 q 519 643 519 606 m 599 1125 l 406 981 l 285 981 l 428 1125 l 599 1125 m -26 886 z "},"Ř":{"ha":764,"x_min":-26,"x_max":713,"o":"m 713 0 l 576 0 l 444 283 q 414 337 429 316 q 380 371 398 359 q 341 389 362 384 q 293 395 319 395 l 236 395 l 236 0 l 115 0 l 115 886 l 353 886 q 486 869 430 886 q 577 822 541 852 q 629 748 612 791 q 646 653 646 705 q 633 575 646 612 q 597 508 621 538 q 537 455 573 477 q 456 422 502 433 q 519 377 493 410 q 572 292 545 345 l 713 0 m 519 643 q 475 749 519 714 q 350 785 431 785 l 236 785 l 236 492 l 334 492 q 411 502 376 492 q 469 531 445 511 q 506 578 493 550 q 519 643 519 606 m 142 1125 l 265 1125 l 357 1055 l 448 1125 l 570 1125 l 412 981 l 298 981 l 142 1125 m -26 886 z "},"Ŗ":{"ha":764,"x_min":115,"x_max":713,"o":"m 713 0 l 576 0 l 444 283 q 414 337 429 316 q 380 371 398 359 q 341 389 362 384 q 293 395 319 395 l 236 395 l 236 0 l 115 0 l 115 886 l 353 886 q 486 869 430 886 q 577 822 541 852 q 629 748 612 791 q 646 653 646 705 q 633 575 646 612 q 597 508 621 538 q 537 455 573 477 q 456 422 502 433 q 519 377 493 410 q 572 292 545 345 l 713 0 m 519 643 q 475 749 519 714 q 350 785 431 785 l 236 785 l 236 492 l 334 492 q 411 502 376 492 q 469 531 445 511 q 506 578 493 550 q 519 643 519 606 m 453 -78 l 393 -278 l 293 -278 l 338 -78 l 453 -78 z "},"Ś":{"ha":764,"x_min":0,"x_max":676,"o":"m 676 240 q 650 130 676 177 q 578 51 625 82 q 468 3 532 19 q 325 -12 403 -12 q 255 -9 290 -12 q 188 -3 220 -7 q 127 7 155 1 q 75 18 98 12 l 75 135 q 190 105 126 116 q 334 94 253 94 q 433 103 392 94 q 500 131 474 113 q 538 174 526 149 q 550 233 550 200 q 530 295 550 269 q 477 340 510 320 q 403 377 445 360 q 318 411 361 393 q 233 449 275 429 q 159 498 191 470 q 106 564 126 526 q 86 654 86 602 q 105 744 86 700 q 164 822 124 788 q 267 878 204 857 q 416 899 330 899 q 465 897 439 899 q 518 891 491 895 q 571 882 545 887 q 619 872 597 878 l 619 764 q 515 786 567 779 q 414 794 463 794 q 261 760 310 794 q 212 667 212 725 q 232 605 212 631 q 285 559 252 579 q 359 522 317 538 q 444 488 401 505 q 529 449 488 470 q 604 399 571 428 q 656 332 636 370 q 676 240 676 293 m 625 1125 l 432 981 l 311 981 l 454 1125 l 625 1125 m 0 886 z "},"Ŝ":{"ha":764,"x_min":0,"x_max":676,"o":"m 676 240 q 650 130 676 177 q 578 51 625 82 q 468 3 532 19 q 325 -12 403 -12 q 255 -9 290 -12 q 188 -3 220 -7 q 127 7 155 1 q 75 18 98 12 l 75 135 q 190 105 126 116 q 334 94 253 94 q 433 103 392 94 q 500 131 474 113 q 538 174 526 149 q 550 233 550 200 q 530 295 550 269 q 477 340 510 320 q 403 377 445 360 q 318 411 361 393 q 233 449 275 429 q 159 498 191 470 q 106 564 126 526 q 86 654 86 602 q 105 744 86 700 q 164 822 124 788 q 267 878 204 857 q 416 899 330 899 q 465 897 439 899 q 518 891 491 895 q 571 882 545 887 q 619 872 597 878 l 619 764 q 515 786 567 779 q 414 794 463 794 q 261 760 310 794 q 212 667 212 725 q 232 605 212 631 q 285 559 252 579 q 359 522 317 538 q 444 488 401 505 q 529 449 488 470 q 604 399 571 428 q 656 332 636 370 q 676 240 676 293 m 596 981 l 472 981 l 380 1050 l 289 981 l 168 981 l 325 1125 l 439 1125 l 596 981 m 0 886 z "},"Š":{"ha":764,"x_min":0,"x_max":676,"o":"m 676 240 q 650 130 676 177 q 578 51 625 82 q 468 3 532 19 q 325 -12 403 -12 q 255 -9 290 -12 q 188 -3 220 -7 q 127 7 155 1 q 75 18 98 12 l 75 135 q 190 105 126 116 q 334 94 253 94 q 433 103 392 94 q 500 131 474 113 q 538 174 526 149 q 550 233 550 200 q 530 295 550 269 q 477 340 510 320 q 403 377 445 360 q 318 411 361 393 q 233 449 275 429 q 159 498 191 470 q 106 564 126 526 q 86 654 86 602 q 105 744 86 700 q 164 822 124 788 q 267 878 204 857 q 416 899 330 899 q 465 897 439 899 q 518 891 491 895 q 571 882 545 887 q 619 872 597 878 l 619 764 q 515 786 567 779 q 414 794 463 794 q 261 760 310 794 q 212 667 212 725 q 232 605 212 631 q 285 559 252 579 q 359 522 317 538 q 444 488 401 505 q 529 449 488 470 q 604 399 571 428 q 656 332 636 370 q 676 240 676 293 m 168 1125 l 292 1125 l 383 1055 l 475 1125 l 596 1125 l 439 981 l 325 981 l 168 1125 m 0 886 z "},"Ş":{"ha":764,"x_min":75,"x_max":676,"o":"m 428 -4 l 371 -200 l 268 -200 l 310 -12 q 251 -9 282 -12 q 188 -3 220 -7 q 127 7 155 1 q 75 18 98 12 l 75 135 q 190 105 126 116 q 334 94 253 94 q 433 103 392 94 q 500 131 474 113 q 538 174 526 149 q 550 233 550 200 q 530 295 550 269 q 477 340 510 320 q 403 377 445 360 q 318 411 361 393 q 233 449 275 429 q 159 498 191 470 q 106 564 126 526 q 86 654 86 602 q 105 744 86 700 q 164 822 124 788 q 267 878 204 857 q 416 899 330 899 q 465 897 439 899 q 518 891 491 895 q 571 882 545 887 q 619 872 597 878 l 619 764 q 515 786 567 779 q 414 794 463 794 q 261 760 310 794 q 212 667 212 725 q 232 605 212 631 q 285 559 252 579 q 359 522 317 538 q 444 488 401 505 q 529 449 488 470 q 604 399 571 428 q 656 332 636 370 q 676 240 676 293 q 650 130 676 177 q 572 46 625 82 q 428 -4 519 11 z "},"Ș":{"ha":764,"x_min":75,"x_max":676,"o":"m 676 240 q 650 130 676 177 q 578 51 625 82 q 468 3 532 19 q 325 -12 403 -12 q 255 -9 290 -12 q 188 -3 220 -7 q 127 7 155 1 q 75 18 98 12 l 75 135 q 190 105 126 116 q 334 94 253 94 q 433 103 392 94 q 500 131 474 113 q 538 174 526 149 q 550 233 550 200 q 530 295 550 269 q 477 340 510 320 q 403 377 445 360 q 318 411 361 393 q 233 449 275 429 q 159 498 191 470 q 106 564 126 526 q 86 654 86 602 q 105 744 86 700 q 164 822 124 788 q 267 878 204 857 q 416 899 330 899 q 465 897 439 899 q 518 891 491 895 q 571 882 545 887 q 619 872 597 878 l 619 764 q 515 786 567 779 q 414 794 463 794 q 261 760 310 794 q 212 667 212 725 q 232 605 212 631 q 285 559 252 579 q 359 522 317 538 q 444 488 401 505 q 529 449 488 470 q 604 399 571 428 q 656 332 636 370 q 676 240 676 293 m 453 -78 l 393 -278 l 293 -278 l 338 -78 l 453 -78 z "},"Ť":{"ha":764,"x_min":0,"x_max":705,"o":"m 705 783 l 443 783 l 443 0 l 321 0 l 321 783 l 58 783 l 58 886 l 705 886 l 705 783 m 168 1125 l 292 1125 l 383 1055 l 475 1125 l 596 1125 l 439 981 l 325 981 l 168 1125 m 0 886 z "},"Ț":{"ha":764,"x_min":58,"x_max":705,"o":"m 705 783 l 443 783 l 443 0 l 321 0 l 321 783 l 58 783 l 58 886 l 705 886 l 705 783 m 453 -78 l 393 -278 l 293 -278 l 338 -78 l 453 -78 z "},"Ŧ":{"ha":764,"x_min":58,"x_max":705,"o":"m 443 395 l 443 0 l 321 0 l 321 395 l 140 395 l 140 496 l 321 496 l 321 783 l 58 783 l 58 886 l 705 886 l 705 783 l 443 783 l 443 496 l 624 496 l 624 395 l 443 395 z "},"Ù":{"ha":764,"x_min":0,"x_max":690,"o":"m 690 309 q 670 176 690 235 q 609 75 649 117 q 511 11 569 33 q 378 -12 453 -12 q 237 9 295 -12 q 143 71 180 31 q 91 166 107 111 q 74 290 74 222 l 74 886 l 195 886 l 195 300 q 204 208 195 248 q 237 142 214 169 q 295 102 259 116 q 382 89 330 89 q 524 144 478 89 q 570 301 570 200 l 570 886 l 690 886 l 690 309 m 453 981 l 332 981 l 139 1125 l 310 1125 l 453 981 m 0 886 z "},"Ú":{"ha":764,"x_min":0,"x_max":690,"o":"m 690 309 q 670 176 690 235 q 609 75 649 117 q 511 11 569 33 q 378 -12 453 -12 q 237 9 295 -12 q 143 71 180 31 q 91 166 107 111 q 74 290 74 222 l 74 886 l 195 886 l 195 300 q 204 208 195 248 q 237 142 214 169 q 295 102 259 116 q 382 89 330 89 q 524 144 478 89 q 570 301 570 200 l 570 886 l 690 886 l 690 309 m 625 1125 l 432 981 l 311 981 l 454 1125 l 625 1125 m 0 886 z "},"Û":{"ha":764,"x_min":0,"x_max":690,"o":"m 690 309 q 670 176 690 235 q 609 75 649 117 q 511 11 569 33 q 378 -12 453 -12 q 237 9 295 -12 q 143 71 180 31 q 91 166 107 111 q 74 290 74 222 l 74 886 l 195 886 l 195 300 q 204 208 195 248 q 237 142 214 169 q 295 102 259 116 q 382 89 330 89 q 524 144 478 89 q 570 301 570 200 l 570 886 l 690 886 l 690 309 m 596 981 l 472 981 l 380 1050 l 289 981 l 168 981 l 325 1125 l 439 1125 l 596 981 m 0 886 z "},"Ũ":{"ha":764,"x_min":0,"x_max":690,"o":"m 690 309 q 670 176 690 235 q 609 75 649 117 q 511 11 569 33 q 378 -12 453 -12 q 237 9 295 -12 q 143 71 180 31 q 91 166 107 111 q 74 290 74 222 l 74 886 l 195 886 l 195 300 q 204 208 195 248 q 237 142 214 169 q 295 102 259 116 q 382 89 330 89 q 524 144 478 89 q 570 301 570 200 l 570 886 l 690 886 l 690 309 m 136 1035 q 202 1108 165 1084 q 286 1133 239 1133 q 353 1122 326 1133 q 401 1097 380 1110 q 440 1072 422 1083 q 482 1060 459 1060 q 530 1079 509 1060 q 570 1126 551 1097 l 628 1071 q 562 997 598 1022 q 478 972 525 972 q 411 984 438 972 q 363 1009 385 996 q 324 1034 342 1023 q 282 1046 305 1046 q 234 1027 254 1046 q 195 979 214 1008 l 136 1035 m 0 886 z "},"Ü":{"ha":764,"x_min":0,"x_max":690,"o":"m 690 309 q 670 176 690 235 q 609 75 649 117 q 511 11 569 33 q 378 -12 453 -12 q 237 9 295 -12 q 143 71 180 31 q 91 166 107 111 q 74 290 74 222 l 74 886 l 195 886 l 195 300 q 204 208 195 248 q 237 142 214 169 q 295 102 259 116 q 382 89 330 89 q 524 144 478 89 q 570 301 570 200 l 570 886 l 690 886 l 690 309 m 233 1125 q 261 1119 248 1125 q 284 1104 275 1114 q 300 1081 294 1095 q 306 1053 306 1067 q 300 1024 306 1038 q 284 1002 294 1011 q 261 986 275 992 q 233 981 248 981 q 182 1001 203 981 q 161 1053 161 1022 q 167 1081 161 1067 q 182 1104 173 1095 q 205 1119 192 1114 q 233 1125 218 1125 m 530 1125 q 559 1119 545 1125 q 582 1104 572 1114 q 597 1081 591 1095 q 603 1053 603 1067 q 597 1024 603 1038 q 582 1002 591 1011 q 559 986 572 992 q 530 981 545 981 q 479 1001 500 981 q 458 1053 458 1022 q 464 1081 458 1067 q 479 1104 470 1095 q 502 1119 489 1114 q 530 1125 515 1125 m 0 886 z "},"Ū":{"ha":764,"x_min":0,"x_max":690,"o":"m 690 309 q 670 176 690 235 q 609 75 649 117 q 511 11 569 33 q 378 -12 453 -12 q 237 9 295 -12 q 143 71 180 31 q 91 166 107 111 q 74 290 74 222 l 74 886 l 195 886 l 195 300 q 204 208 195 248 q 237 142 214 169 q 295 102 259 116 q 382 89 330 89 q 524 144 478 89 q 570 301 570 200 l 570 886 l 690 886 l 690 309 m 574 1006 l 191 1006 l 191 1096 l 574 1096 l 574 1006 m 0 886 z "},"Ŭ":{"ha":764,"x_min":0,"x_max":690,"o":"m 690 309 q 670 176 690 235 q 609 75 649 117 q 511 11 569 33 q 378 -12 453 -12 q 237 9 295 -12 q 143 71 180 31 q 91 166 107 111 q 74 290 74 222 l 74 886 l 195 886 l 195 300 q 204 208 195 248 q 237 142 214 169 q 295 102 259 116 q 382 89 330 89 q 524 144 478 89 q 570 301 570 200 l 570 886 l 690 886 l 690 309 m 562 1129 q 548 1058 562 1088 q 508 1010 533 1029 q 451 982 484 991 q 382 972 418 972 q 313 982 346 972 q 256 1010 281 991 q 216 1058 231 1029 q 201 1129 201 1088 l 294 1129 q 317 1077 294 1095 q 382 1060 340 1060 q 447 1077 424 1060 q 469 1129 469 1095 l 562 1129 m 0 886 z "},"Ů":{"ha":764,"x_min":0,"x_max":690,"o":"m 690 309 q 670 176 690 235 q 609 75 649 117 q 511 11 569 33 q 378 -12 453 -12 q 237 9 295 -12 q 143 71 180 31 q 91 166 107 111 q 74 290 74 222 l 74 886 l 195 886 l 195 300 q 204 208 195 248 q 237 142 214 169 q 295 102 259 116 q 382 89 330 89 q 524 144 478 89 q 570 301 570 200 l 570 886 l 690 886 l 690 309 m 382 1180 q 436 1171 411 1180 q 479 1144 461 1162 q 508 1103 498 1127 q 518 1051 518 1080 q 508 999 518 1023 q 479 958 498 975 q 436 931 461 941 q 382 921 411 921 q 328 931 353 921 q 285 958 303 941 q 256 999 267 975 q 245 1051 245 1023 q 256 1103 245 1080 q 285 1144 267 1127 q 328 1171 303 1162 q 382 1180 353 1180 m 382 1111 q 338 1095 355 1111 q 321 1051 321 1079 q 338 1007 321 1024 q 382 990 355 990 q 427 1007 410 990 q 443 1051 443 1024 q 427 1095 443 1079 q 382 1111 410 1111 m 0 886 z "},"Ű":{"ha":764,"x_min":0,"x_max":764,"o":"m 690 309 q 670 176 690 235 q 609 75 649 117 q 511 11 569 33 q 378 -12 453 -12 q 237 9 295 -12 q 143 71 180 31 q 91 166 107 111 q 74 290 74 222 l 74 886 l 195 886 l 195 300 q 204 208 195 248 q 237 142 214 169 q 295 102 259 116 q 382 89 330 89 q 524 144 478 89 q 570 301 570 200 l 570 886 l 690 886 l 690 309 m 458 1125 l 307 981 l 184 981 l 314 1125 l 458 1125 m 764 1125 l 587 981 l 464 981 l 607 1125 l 764 1125 m 0 886 z "},"Ų":{"ha":764,"x_min":74,"x_max":690,"o":"m 514 -254 q 476 -259 497 -258 q 439 -261 456 -261 q 328 -230 366 -261 q 290 -150 290 -199 q 293 -120 290 -135 q 303 -89 296 -106 q 325 -54 311 -73 q 361 -12 338 -35 q 228 13 283 -9 q 139 75 174 36 q 90 169 105 115 q 74 290 74 224 l 74 886 l 195 886 l 195 300 q 204 208 195 248 q 237 142 214 169 q 295 102 259 116 q 382 89 330 89 q 524 144 478 89 q 570 301 570 200 l 570 886 l 690 886 l 690 309 q 676 197 690 248 q 635 107 663 146 q 569 40 608 68 q 478 0 530 13 q 439 -43 454 -24 q 416 -77 424 -62 q 405 -105 408 -92 q 401 -131 401 -118 q 416 -166 401 -153 q 467 -180 431 -180 q 489 -180 476 -180 q 514 -178 503 -179 l 514 -254 z "},"Ẁ":{"ha":764,"x_min":0,"x_max":733,"o":"m 733 886 l 673 0 l 517 0 l 407 315 l 376 416 l 345 307 l 243 0 l 92 0 l 31 886 l 144 886 l 179 283 l 189 118 l 232 258 l 339 587 l 422 587 l 546 235 l 587 118 l 590 240 l 625 886 l 733 886 m 453 981 l 332 981 l 139 1125 l 310 1125 l 453 981 m 0 886 z "},"Ẃ":{"ha":764,"x_min":0,"x_max":733,"o":"m 733 886 l 673 0 l 517 0 l 407 315 l 376 416 l 345 307 l 243 0 l 92 0 l 31 886 l 144 886 l 179 283 l 189 118 l 232 258 l 339 587 l 422 587 l 546 235 l 587 118 l 590 240 l 625 886 l 733 886 m 625 1125 l 432 981 l 311 981 l 454 1125 l 625 1125 m 0 886 z "},"Ŵ":{"ha":764,"x_min":0,"x_max":733,"o":"m 733 886 l 673 0 l 517 0 l 407 315 l 376 416 l 345 307 l 243 0 l 92 0 l 31 886 l 144 886 l 179 283 l 189 118 l 232 258 l 339 587 l 422 587 l 546 235 l 587 118 l 590 240 l 625 886 l 733 886 m 596 981 l 472 981 l 380 1050 l 289 981 l 168 981 l 325 1125 l 439 1125 l 596 981 m 0 886 z "},"Ẅ":{"ha":764,"x_min":0,"x_max":733,"o":"m 733 886 l 673 0 l 517 0 l 407 315 l 376 416 l 345 307 l 243 0 l 92 0 l 31 886 l 144 886 l 179 283 l 189 118 l 232 258 l 339 587 l 422 587 l 546 235 l 587 118 l 590 240 l 625 886 l 733 886 m 233 1125 q 261 1119 248 1125 q 284 1104 275 1114 q 300 1081 294 1095 q 306 1053 306 1067 q 300 1024 306 1038 q 284 1002 294 1011 q 261 986 275 992 q 233 981 248 981 q 182 1001 203 981 q 161 1053 161 1022 q 167 1081 161 1067 q 182 1104 173 1095 q 205 1119 192 1114 q 233 1125 218 1125 m 530 1125 q 559 1119 545 1125 q 582 1104 572 1114 q 597 1081 591 1095 q 603 1053 603 1067 q 597 1024 603 1038 q 582 1002 591 1011 q 559 986 572 992 q 530 981 545 981 q 479 1001 500 981 q 458 1053 458 1022 q 464 1081 458 1067 q 479 1104 470 1095 q 502 1119 489 1114 q 530 1125 515 1125 m 0 886 z "},"Ỳ":{"ha":764,"x_min":0,"x_max":764,"o":"m 764 886 l 443 317 l 443 0 l 321 0 l 321 319 l 0 886 l 146 886 l 322 562 l 387 432 l 447 550 l 625 886 l 764 886 m 453 981 l 332 981 l 139 1125 l 310 1125 l 453 981 m 0 886 z "},"Ý":{"ha":764,"x_min":0,"x_max":764,"o":"m 764 886 l 443 317 l 443 0 l 321 0 l 321 319 l 0 886 l 146 886 l 322 562 l 387 432 l 447 550 l 625 886 l 764 886 m 625 1125 l 432 981 l 311 981 l 454 1125 l 625 1125 m 0 886 z "},"Ŷ":{"ha":764,"x_min":0,"x_max":764,"o":"m 764 886 l 443 317 l 443 0 l 321 0 l 321 319 l 0 886 l 146 886 l 322 562 l 387 432 l 447 550 l 625 886 l 764 886 m 596 981 l 472 981 l 380 1050 l 289 981 l 168 981 l 325 1125 l 439 1125 l 596 981 m 0 886 z "},"Ÿ":{"ha":764,"x_min":0,"x_max":764,"o":"m 764 886 l 443 317 l 443 0 l 321 0 l 321 319 l 0 886 l 146 886 l 322 562 l 387 432 l 447 550 l 625 886 l 764 886 m 233 1125 q 261 1119 248 1125 q 284 1104 275 1114 q 300 1081 294 1095 q 306 1053 306 1067 q 300 1024 306 1038 q 284 1002 294 1011 q 261 986 275 992 q 233 981 248 981 q 182 1001 203 981 q 161 1053 161 1022 q 167 1081 161 1067 q 182 1104 173 1095 q 205 1119 192 1114 q 233 1125 218 1125 m 530 1125 q 559 1119 545 1125 q 582 1104 572 1114 q 597 1081 591 1095 q 603 1053 603 1067 q 597 1024 603 1038 q 582 1002 591 1011 q 559 986 572 992 q 530 981 545 981 q 479 1001 500 981 q 458 1053 458 1022 q 464 1081 458 1067 q 479 1104 470 1095 q 502 1119 489 1114 q 530 1125 515 1125 m 0 886 z "},"Ź":{"ha":764,"x_min":0,"x_max":688,"o":"m 679 791 l 227 113 l 688 113 l 688 0 l 75 0 l 75 90 l 530 777 l 87 777 l 87 886 l 679 886 l 679 791 m 625 1125 l 432 981 l 311 981 l 454 1125 l 625 1125 m 0 886 z "},"Ž":{"ha":764,"x_min":0,"x_max":688,"o":"m 679 791 l 227 113 l 688 113 l 688 0 l 75 0 l 75 90 l 530 777 l 87 777 l 87 886 l 679 886 l 679 791 m 168 1125 l 292 1125 l 383 1055 l 475 1125 l 596 1125 l 439 981 l 325 981 l 168 1125 m 0 886 z "},"Ż":{"ha":764,"x_min":0,"x_max":688,"o":"m 679 791 l 227 113 l 688 113 l 688 0 l 75 0 l 75 90 l 530 777 l 87 777 l 87 886 l 679 886 l 679 791 m 296 1053 q 302 1086 296 1070 q 321 1113 309 1101 q 348 1132 332 1125 q 382 1139 363 1139 q 416 1132 400 1139 q 443 1113 431 1125 q 461 1086 455 1101 q 468 1053 468 1070 q 461 1019 468 1035 q 443 992 455 1004 q 416 973 431 980 q 382 966 400 966 q 348 973 363 966 q 321 992 332 980 q 302 1019 309 1004 q 296 1053 296 1035 m 0 886 z "},"a":{"ha":764,"x_min":90,"x_max":652,"o":"m 546 0 l 543 92 q 430 12 488 37 q 310 -12 373 -12 q 210 3 252 -12 q 142 44 169 18 q 103 105 115 70 q 90 182 90 140 q 166 342 90 284 q 392 400 243 400 l 533 400 l 533 460 q 494 556 533 520 q 376 593 456 593 q 263 580 319 593 q 147 543 207 567 l 147 650 q 197 666 170 658 q 255 680 224 673 q 319 689 286 686 q 386 693 352 693 q 497 680 448 693 q 581 638 547 666 q 633 568 615 610 q 652 469 652 526 l 652 0 l 546 0 m 533 310 l 383 310 q 307 301 339 310 q 255 276 275 292 q 225 237 235 260 q 215 186 215 214 q 221 148 215 166 q 241 116 227 130 q 276 94 254 102 q 329 86 298 86 q 422 111 370 86 q 533 189 475 136 l 533 310 z "},"b":{"ha":764,"x_min":109,"x_max":690,"o":"m 690 353 q 667 201 690 268 q 601 88 644 134 q 496 17 557 41 q 357 -8 434 -8 q 233 3 296 -8 q 109 40 170 15 l 109 958 l 227 958 l 227 694 l 221 568 q 330 665 272 637 q 454 693 388 693 q 557 669 513 693 q 631 600 601 644 q 675 493 661 555 q 690 353 690 430 m 570 347 q 562 446 570 401 q 537 522 554 490 q 494 572 520 554 q 431 590 467 590 q 385 583 408 590 q 337 559 362 576 q 285 515 313 543 q 227 447 258 488 l 227 117 q 297 95 261 103 q 366 87 333 87 q 443 100 406 87 q 508 143 480 113 q 553 223 536 174 q 570 347 570 273 z "},"c":{"ha":764,"x_min":107,"x_max":637,"o":"m 637 25 q 543 -1 591 7 q 443 -9 494 -9 q 194 78 281 -9 q 107 334 107 165 q 132 480 107 414 q 203 593 157 546 q 311 665 248 640 q 450 690 374 690 q 549 683 503 690 q 637 659 595 675 l 637 546 q 548 579 593 569 q 453 590 502 590 q 367 573 408 590 q 296 523 327 555 q 248 444 266 490 q 231 338 231 397 q 291 153 231 214 q 457 92 351 92 q 550 102 505 92 q 637 135 595 113 l 637 25 z "},"d":{"ha":764,"x_min":74,"x_max":652,"o":"m 74 326 q 98 480 74 413 q 165 594 121 548 q 270 665 209 641 q 407 689 332 689 q 471 685 439 689 q 533 672 503 681 l 533 958 l 652 958 l 652 0 l 546 0 l 542 129 q 435 22 492 57 q 310 -12 377 -12 q 207 12 252 -12 q 133 81 163 37 q 89 188 104 125 q 74 326 74 250 m 195 334 q 231 150 195 210 q 334 89 267 89 q 428 129 378 89 q 533 248 478 169 l 533 564 q 469 584 504 577 q 399 591 433 591 q 249 529 302 591 q 195 334 195 467 z "},"e":{"ha":764,"x_min":79,"x_max":684,"o":"m 684 376 q 683 334 684 351 q 681 302 682 317 l 203 302 q 261 142 203 198 q 429 86 319 86 q 489 89 459 86 q 547 95 519 91 q 600 104 574 99 q 647 115 625 109 l 647 18 q 538 -4 599 5 q 412 -12 477 -12 q 262 12 325 -12 q 158 80 199 35 q 99 191 118 125 q 79 339 79 256 q 100 475 79 411 q 160 588 121 539 q 258 665 200 636 q 389 693 315 693 q 515 671 460 693 q 607 607 570 648 q 664 508 645 566 q 684 376 684 449 m 561 393 q 552 476 563 439 q 518 541 541 514 q 462 584 496 568 q 383 599 428 599 q 313 584 345 599 q 258 542 281 569 q 220 477 235 515 q 203 393 206 439 l 561 393 z "},"f":{"ha":764,"x_min":0,"x_max":713,"o":"m 713 848 q 553 868 620 868 q 393 701 393 868 l 393 582 l 692 582 l 692 484 l 393 484 l 393 0 l 273 0 l 273 484 l 54 484 l 54 582 l 273 582 l 273 694 q 557 966 273 966 q 713 950 627 966 l 713 848 m 0 681 z "},"g":{"ha":764,"x_min":64,"x_max":708,"o":"m 599 585 q 628 529 618 561 q 639 461 639 498 q 620 365 639 408 q 565 290 600 321 q 480 241 530 258 q 372 224 431 224 q 292 233 330 224 q 233 256 255 242 q 212 220 220 237 q 203 182 203 203 q 228 139 203 156 q 293 121 252 122 l 472 114 q 566 101 523 113 q 640 68 609 90 q 688 14 671 46 q 705 -60 705 -18 q 686 -146 705 -105 q 625 -217 666 -186 q 521 -267 584 -248 q 371 -285 458 -285 q 230 -272 288 -285 q 135 -235 172 -258 q 81 -179 98 -212 q 64 -109 64 -147 q 87 -22 64 -59 q 158 50 110 16 q 127 71 140 58 q 106 97 115 83 q 94 128 98 112 q 90 160 90 144 q 111 241 90 204 q 160 310 132 277 q 137 340 147 326 q 120 373 127 355 q 110 410 113 390 q 106 456 106 430 q 125 552 106 509 q 179 627 144 596 q 263 676 214 659 q 372 693 313 693 q 420 690 397 693 q 461 681 444 686 l 708 681 l 708 585 l 599 585 m 189 -98 q 239 -169 189 -146 q 379 -191 290 -191 q 474 -180 435 -191 q 535 -154 512 -170 q 569 -116 559 -137 q 579 -72 579 -94 q 545 -11 579 -31 q 441 12 511 9 l 264 18 q 227 -11 241 3 q 204 -40 212 -25 q 193 -69 196 -54 q 189 -98 189 -83 m 225 458 q 236 399 225 426 q 267 353 247 372 q 313 323 286 334 q 372 313 340 313 q 435 325 408 313 q 481 357 463 336 q 510 404 500 377 q 519 458 519 430 q 509 518 519 491 q 478 564 498 545 q 432 594 458 583 q 372 604 405 604 q 310 592 337 604 q 263 560 282 580 q 235 513 245 540 q 225 458 225 487 z "},"h":{"ha":764,"x_min":109,"x_max":656,"o":"m 656 0 l 538 0 l 538 435 q 508 552 538 513 q 424 591 479 591 q 379 585 400 591 q 336 563 359 578 q 288 519 314 547 q 227 452 261 492 l 227 0 l 109 0 l 109 958 l 227 958 l 227 681 l 222 574 q 277 630 250 607 q 331 667 304 652 q 385 687 357 681 q 443 693 413 693 q 600 631 545 693 q 656 444 656 569 l 656 0 z "},"i":{"ha":764,"x_min":117,"x_max":663,"o":"m 340 583 l 139 583 l 139 681 l 460 681 l 460 98 l 663 98 l 663 0 l 117 0 l 117 98 l 340 98 l 340 583 m 382 966 q 418 959 401 966 q 448 939 435 952 q 468 910 460 926 q 475 873 475 893 q 468 838 475 854 q 448 808 460 821 q 418 788 435 795 q 382 781 401 781 q 345 788 362 781 q 316 808 328 795 q 296 838 303 821 q 289 873 289 854 q 296 910 289 893 q 316 939 303 926 q 345 959 328 952 q 382 966 362 966 z "},"j":{"ha":764,"x_min":89,"x_max":591,"o":"m 570 681 l 570 12 q 549 -114 570 -59 q 491 -208 529 -170 q 398 -265 453 -245 q 273 -285 342 -285 q 175 -276 223 -285 q 89 -250 127 -267 l 89 -138 q 134 -157 110 -149 q 183 -172 158 -166 q 235 -181 209 -178 q 285 -184 260 -184 q 406 -136 362 -184 q 450 8 450 -87 l 450 583 l 117 583 l 117 681 l 570 681 m 498 966 q 535 959 518 966 q 565 939 552 952 q 584 909 577 926 q 591 873 591 892 q 584 837 591 854 q 565 808 577 821 q 535 788 552 795 q 498 781 518 781 q 462 788 479 781 q 432 808 445 795 q 413 837 420 821 q 406 873 406 854 q 413 909 406 892 q 432 939 420 926 q 462 959 445 952 q 498 966 479 966 z "},"k":{"ha":764,"x_min":123,"x_max":721,"o":"m 721 0 l 559 0 l 241 365 l 241 0 l 123 0 l 123 958 l 241 958 l 241 370 l 547 681 l 703 681 l 384 367 l 721 0 z "},"l":{"ha":764,"x_min":117,"x_max":663,"o":"m 340 861 l 139 861 l 139 958 l 460 958 l 460 98 l 663 98 l 663 0 l 117 0 l 117 98 l 340 98 l 340 861 z "},"m":{"ha":764,"x_min":61,"x_max":703,"o":"m 594 0 l 594 489 q 592 541 594 521 q 584 573 589 562 q 571 590 579 585 q 552 595 564 595 q 527 587 538 595 q 502 560 515 578 q 473 512 489 542 q 435 437 457 481 l 435 0 l 328 0 l 328 476 q 325 536 328 513 q 318 572 323 559 q 304 590 313 585 q 285 595 296 595 q 262 588 273 595 q 238 564 251 581 q 208 515 224 546 q 170 437 192 485 l 170 0 l 61 0 l 61 681 l 151 681 l 157 551 q 191 617 174 590 q 225 661 208 644 q 263 685 243 677 q 307 693 283 693 q 391 657 362 693 q 419 546 419 621 q 451 609 435 581 q 485 655 467 636 q 524 683 503 673 q 574 693 546 693 q 703 496 703 693 l 703 0 l 594 0 z "},"n":{"ha":764,"x_min":109,"x_max":656,"o":"m 109 681 l 214 681 l 218 571 q 276 630 248 606 q 331 667 304 653 q 385 687 357 682 q 443 693 413 693 q 602 631 548 693 q 656 444 656 569 l 656 0 l 538 0 l 538 435 q 508 553 538 515 q 419 591 478 591 q 377 585 397 591 q 334 563 356 578 q 285 519 311 547 q 227 452 259 492 l 227 0 l 109 0 l 109 681 z "},"o":{"ha":764,"x_min":62,"x_max":701,"o":"m 701 346 q 679 200 701 267 q 614 87 656 134 q 512 14 572 40 q 375 -12 452 -12 q 244 11 302 -12 q 145 77 186 33 q 84 186 105 121 q 62 336 62 252 q 85 481 62 416 q 149 594 107 547 q 252 667 191 641 q 389 693 312 693 q 520 670 462 693 q 618 604 578 648 q 680 495 659 560 q 701 346 701 430 m 581 340 q 567 451 581 404 q 527 529 553 498 q 464 577 501 561 q 382 593 427 593 q 291 572 329 593 q 230 517 254 551 q 194 436 205 482 q 183 340 183 391 q 197 230 183 277 q 237 151 211 182 q 299 103 262 119 q 382 87 336 87 q 472 108 435 87 q 534 163 510 129 q 569 244 558 198 q 581 340 581 290 z "},"p":{"ha":764,"x_min":109,"x_max":690,"o":"m 690 353 q 665 194 690 262 q 595 81 640 126 q 489 14 550 37 q 357 -8 428 -8 q 292 -5 324 -8 q 227 7 260 -1 l 227 -278 l 109 -278 l 109 681 l 214 681 l 221 567 q 330 665 272 637 q 454 693 387 693 q 557 669 513 693 q 631 600 601 644 q 675 493 661 555 q 690 353 690 430 m 570 347 q 562 446 570 401 q 537 522 554 490 q 494 572 520 554 q 431 590 467 590 q 385 583 408 590 q 337 559 362 576 q 285 515 313 543 q 227 447 258 488 l 227 117 q 295 95 259 103 q 366 87 331 87 q 515 152 461 87 q 570 347 570 217 z "},"q":{"ha":764,"x_min":74,"x_max":652,"o":"m 74 326 q 93 465 74 399 q 153 581 113 531 q 256 660 193 631 q 407 689 319 689 q 475 684 441 689 q 547 667 509 678 l 652 693 l 652 -278 l 533 -278 l 533 -21 l 539 125 q 310 -12 443 -12 q 206 12 250 -12 q 133 81 162 37 q 89 189 103 126 q 74 326 74 251 m 195 334 q 203 231 195 277 q 229 154 212 186 q 272 106 246 123 q 334 89 298 89 q 428 129 378 89 q 533 248 478 169 l 533 564 q 472 585 506 576 q 399 593 437 593 q 247 527 299 593 q 195 334 195 461 z "},"r":{"ha":764,"x_min":136,"x_max":700,"o":"m 136 681 l 244 681 l 248 555 q 367 661 308 628 q 485 693 425 693 q 645 625 591 693 q 696 421 700 556 l 576 421 q 550 551 578 511 q 468 591 522 591 q 420 583 444 591 q 371 556 396 574 q 317 508 345 537 q 256 437 288 479 l 256 0 l 136 0 l 136 681 z "},"s":{"ha":764,"x_min":123,"x_max":648,"o":"m 648 186 q 635 121 648 150 q 602 71 623 93 q 553 33 581 49 q 494 7 526 18 q 429 -7 463 -3 q 364 -12 396 -12 q 237 -6 295 -12 q 123 14 179 0 l 123 122 q 242 96 183 105 q 359 87 301 87 q 485 111 444 87 q 526 176 526 134 q 519 209 526 195 q 496 237 513 224 q 443 264 479 250 q 346 297 408 279 q 261 328 300 311 q 193 369 222 345 q 149 425 165 393 q 132 500 132 456 q 145 562 132 528 q 191 625 159 596 q 277 674 222 654 q 412 693 331 693 q 501 689 452 693 q 603 673 550 684 l 603 568 q 497 588 547 582 q 411 595 448 595 q 337 588 367 595 q 288 569 307 581 q 261 542 269 557 q 253 507 253 526 q 260 474 253 489 q 287 445 267 459 q 340 417 306 431 q 431 387 375 404 q 532 350 491 370 q 600 307 574 331 q 636 254 625 283 q 648 186 648 224 z "},"t":{"ha":764,"x_min":43,"x_max":657,"o":"m 657 9 q 574 -5 617 -1 q 488 -9 532 -9 q 296 48 359 -9 q 233 227 233 106 l 233 582 l 43 582 l 43 681 l 233 681 l 233 868 l 351 899 l 351 681 l 657 681 l 657 582 l 351 582 l 351 236 q 390 126 351 163 q 505 90 429 90 q 576 95 538 90 q 657 111 615 100 l 657 9 z "},"u":{"ha":764,"x_min":109,"x_max":656,"o":"m 656 0 l 550 0 l 546 110 q 488 51 515 75 q 433 14 460 28 q 379 -6 406 -1 q 321 -12 351 -12 q 162 50 216 -12 q 109 236 109 111 l 109 681 l 227 681 l 227 245 q 345 89 227 89 q 387 95 366 89 q 430 118 408 102 q 479 161 453 134 q 538 229 505 188 l 538 681 l 656 681 l 656 0 z "},"v":{"ha":764,"x_min":45,"x_max":714,"o":"m 45 681 l 179 681 l 346 231 l 382 121 l 419 233 l 585 681 l 714 681 l 447 0 l 311 0 l 45 681 z "},"w":{"ha":764,"x_min":25,"x_max":739,"o":"m 739 681 l 640 0 l 497 0 l 399 285 l 379 354 l 357 281 l 262 0 l 123 0 l 25 681 l 140 681 l 197 218 l 210 115 l 239 205 l 338 511 l 422 511 l 529 210 l 559 119 l 570 215 l 623 681 l 739 681 z "},"x":{"ha":764,"x_min":47,"x_max":722,"o":"m 722 0 l 566 0 l 382 260 l 200 0 l 47 0 l 311 342 l 60 681 l 211 681 l 390 419 l 566 681 l 711 681 l 456 339 l 722 0 z "},"y":{"ha":764,"x_min":40,"x_max":714,"o":"m 714 681 l 482 72 q 408 -88 446 -21 q 324 -198 370 -155 q 224 -262 279 -241 q 103 -282 170 -282 q 71 -281 85 -282 q 40 -279 57 -281 l 40 -172 q 73 -176 55 -174 q 110 -178 90 -178 q 171 -168 142 -178 q 224 -137 199 -159 q 272 -82 249 -116 q 317 0 295 -48 l 45 681 l 179 681 l 351 231 l 386 125 l 425 233 l 585 681 l 714 681 z "},"z":{"ha":764,"x_min":111,"x_max":660,"o":"m 660 0 l 111 0 l 111 85 l 496 582 l 121 582 l 121 681 l 637 681 l 637 589 l 260 100 l 660 100 l 660 0 z "},"à":{"ha":764,"x_min":0,"x_max":652,"o":"m 546 0 l 543 92 q 430 12 488 37 q 310 -12 373 -12 q 210 3 252 -12 q 142 44 169 18 q 103 105 115 70 q 90 182 90 140 q 166 342 90 284 q 392 400 243 400 l 533 400 l 533 460 q 494 556 533 520 q 376 593 456 593 q 263 580 319 593 q 147 543 207 567 l 147 650 q 197 666 170 658 q 255 680 224 673 q 319 689 286 686 q 386 693 352 693 q 497 680 448 693 q 581 638 547 666 q 633 568 615 610 q 652 469 652 526 l 652 0 l 546 0 m 533 310 l 383 310 q 307 301 339 310 q 255 276 275 292 q 225 237 235 260 q 215 186 215 214 q 221 148 215 166 q 241 116 227 130 q 276 94 254 102 q 329 86 298 86 q 422 111 370 86 q 533 189 475 136 l 533 310 m 453 794 l 335 794 l 118 958 l 289 958 l 453 794 m 0 681 z "},"á":{"ha":764,"x_min":0,"x_max":652,"o":"m 546 0 l 543 92 q 430 12 488 37 q 310 -12 373 -12 q 210 3 252 -12 q 142 44 169 18 q 103 105 115 70 q 90 182 90 140 q 166 342 90 284 q 392 400 243 400 l 533 400 l 533 460 q 494 556 533 520 q 376 593 456 593 q 263 580 319 593 q 147 543 207 567 l 147 650 q 197 666 170 658 q 255 680 224 673 q 319 689 286 686 q 386 693 352 693 q 497 680 448 693 q 581 638 547 666 q 633 568 615 610 q 652 469 652 526 l 652 0 l 546 0 m 533 310 l 383 310 q 307 301 339 310 q 255 276 275 292 q 225 237 235 260 q 215 186 215 214 q 221 148 215 166 q 241 116 227 130 q 276 94 254 102 q 329 86 298 86 q 422 111 370 86 q 533 189 475 136 l 533 310 m 646 958 l 429 794 l 311 794 l 475 958 l 646 958 m 0 681 z "},"â":{"ha":764,"x_min":0,"x_max":652,"o":"m 546 0 l 543 92 q 430 12 488 37 q 310 -12 373 -12 q 210 3 252 -12 q 142 44 169 18 q 103 105 115 70 q 90 182 90 140 q 166 342 90 284 q 392 400 243 400 l 533 400 l 533 460 q 494 556 533 520 q 376 593 456 593 q 263 580 319 593 q 147 543 207 567 l 147 650 q 197 666 170 658 q 255 680 224 673 q 319 689 286 686 q 386 693 352 693 q 497 680 448 693 q 581 638 547 666 q 633 568 615 610 q 652 469 652 526 l 652 0 l 546 0 m 533 310 l 383 310 q 307 301 339 310 q 255 276 275 292 q 225 237 235 260 q 215 186 215 214 q 221 148 215 166 q 241 116 227 130 q 276 94 254 102 q 329 86 298 86 q 422 111 370 86 q 533 189 475 136 l 533 310 m 431 958 l 596 794 l 476 794 l 380 876 l 285 794 l 168 794 l 334 958 l 431 958 m 0 681 z "},"ã":{"ha":764,"x_min":0,"x_max":652,"o":"m 546 0 l 543 92 q 430 12 488 37 q 310 -12 373 -12 q 210 3 252 -12 q 142 44 169 18 q 103 105 115 70 q 90 182 90 140 q 166 342 90 284 q 392 400 243 400 l 533 400 l 533 460 q 494 556 533 520 q 376 593 456 593 q 263 580 319 593 q 147 543 207 567 l 147 650 q 197 666 170 658 q 255 680 224 673 q 319 689 286 686 q 386 693 352 693 q 497 680 448 693 q 581 638 547 666 q 633 568 615 610 q 652 469 652 526 l 652 0 l 546 0 m 533 310 l 383 310 q 307 301 339 310 q 255 276 275 292 q 225 237 235 260 q 215 186 215 214 q 221 148 215 166 q 241 116 227 130 q 276 94 254 102 q 329 86 298 86 q 422 111 370 86 q 533 189 475 136 l 533 310 m 136 860 q 202 933 165 909 q 286 958 239 958 q 353 947 326 958 q 401 922 380 935 q 440 897 422 908 q 482 885 459 885 q 530 904 509 885 q 570 951 551 922 l 628 893 q 562 820 598 844 q 478 795 525 795 q 411 806 438 795 q 363 831 385 817 q 324 857 342 845 q 282 868 305 868 q 234 849 254 868 q 195 802 214 831 l 136 860 m 0 681 z "},"ä":{"ha":764,"x_min":0,"x_max":652,"o":"m 546 0 l 543 92 q 430 12 488 37 q 310 -12 373 -12 q 210 3 252 -12 q 142 44 169 18 q 103 105 115 70 q 90 182 90 140 q 166 342 90 284 q 392 400 243 400 l 533 400 l 533 460 q 494 556 533 520 q 376 593 456 593 q 263 580 319 593 q 147 543 207 567 l 147 650 q 197 666 170 658 q 255 680 224 673 q 319 689 286 686 q 386 693 352 693 q 497 680 448 693 q 581 638 547 666 q 633 568 615 610 q 652 469 652 526 l 652 0 l 546 0 m 533 310 l 383 310 q 307 301 339 310 q 255 276 275 292 q 225 237 235 260 q 215 186 215 214 q 221 148 215 166 q 241 116 227 130 q 276 94 254 102 q 329 86 298 86 q 422 111 370 86 q 533 189 475 136 l 533 310 m 236 953 q 266 947 252 953 q 290 930 279 941 q 307 906 300 920 q 313 876 313 892 q 307 847 313 861 q 290 823 300 833 q 266 806 279 812 q 236 800 252 800 q 207 806 220 800 q 182 823 193 812 q 166 847 172 833 q 160 876 160 861 q 166 906 160 892 q 182 930 172 920 q 207 947 193 941 q 236 953 220 953 m 528 953 q 557 947 543 953 q 582 930 571 941 q 598 906 592 920 q 604 876 604 892 q 598 847 604 861 q 582 823 592 833 q 557 806 571 812 q 528 800 543 800 q 498 806 512 800 q 474 823 484 812 q 458 847 464 833 q 452 876 452 861 q 458 906 452 892 q 474 930 464 920 q 498 947 484 941 q 528 953 512 953 m 0 681 z "},"ā":{"ha":764,"x_min":0,"x_max":652,"o":"m 546 0 l 543 92 q 430 12 488 37 q 310 -12 373 -12 q 210 3 252 -12 q 142 44 169 18 q 103 105 115 70 q 90 182 90 140 q 166 342 90 284 q 392 400 243 400 l 533 400 l 533 460 q 494 556 533 520 q 376 593 456 593 q 263 580 319 593 q 147 543 207 567 l 147 650 q 197 666 170 658 q 255 680 224 673 q 319 689 286 686 q 386 693 352 693 q 497 680 448 693 q 581 638 547 666 q 633 568 615 610 q 652 469 652 526 l 652 0 l 546 0 m 533 310 l 383 310 q 307 301 339 310 q 255 276 275 292 q 225 237 235 260 q 215 186 215 214 q 221 148 215 166 q 241 116 227 130 q 276 94 254 102 q 329 86 298 86 q 422 111 370 86 q 533 189 475 136 l 533 310 m 559 831 l 204 831 l 204 921 l 559 921 l 559 831 m 0 681 z "},"ă":{"ha":764,"x_min":0,"x_max":652,"o":"m 546 0 l 543 92 q 430 12 488 37 q 310 -12 373 -12 q 210 3 252 -12 q 142 44 169 18 q 103 105 115 70 q 90 182 90 140 q 166 342 90 284 q 392 400 243 400 l 533 400 l 533 460 q 494 556 533 520 q 376 593 456 593 q 263 580 319 593 q 147 543 207 567 l 147 650 q 197 666 170 658 q 255 680 224 673 q 319 689 286 686 q 386 693 352 693 q 497 680 448 693 q 581 638 547 666 q 633 568 615 610 q 652 469 652 526 l 652 0 l 546 0 m 533 310 l 383 310 q 307 301 339 310 q 255 276 275 292 q 225 237 235 260 q 215 186 215 214 q 221 148 215 166 q 241 116 227 130 q 276 94 254 102 q 329 86 298 86 q 422 111 370 86 q 533 189 475 136 l 533 310 m 550 958 q 536 886 550 917 q 500 835 523 855 q 447 804 477 814 q 382 794 416 794 q 317 804 347 794 q 263 835 286 814 q 227 886 241 855 q 214 958 214 917 l 306 958 q 325 903 306 924 q 382 882 344 882 q 439 903 420 882 q 458 958 458 924 l 550 958 m 0 681 z "},"å":{"ha":764,"x_min":0,"x_max":652,"o":"m 546 0 l 543 92 q 430 12 488 37 q 310 -12 373 -12 q 210 3 252 -12 q 142 44 169 18 q 103 105 115 70 q 90 182 90 140 q 166 342 90 284 q 392 400 243 400 l 533 400 l 533 460 q 494 556 533 520 q 376 593 456 593 q 263 580 319 593 q 147 543 207 567 l 147 650 q 197 666 170 658 q 255 680 224 673 q 319 689 286 686 q 386 693 352 693 q 497 680 448 693 q 581 638 547 666 q 633 568 615 610 q 652 469 652 526 l 652 0 l 546 0 m 533 310 l 383 310 q 307 301 339 310 q 255 276 275 292 q 225 237 235 260 q 215 186 215 214 q 221 148 215 166 q 241 116 227 130 q 276 94 254 102 q 329 86 298 86 q 422 111 370 86 q 533 189 475 136 l 533 310 m 382 1018 q 439 1007 412 1018 q 485 977 465 996 q 516 932 505 958 q 528 878 528 907 q 516 823 528 848 q 485 779 505 798 q 439 749 465 760 q 382 738 412 738 q 325 749 351 738 q 279 779 298 760 q 248 823 259 798 q 236 878 236 848 q 248 932 236 907 q 279 977 259 958 q 325 1007 298 996 q 382 1018 351 1018 m 382 946 q 355 941 368 946 q 334 926 343 935 q 319 904 325 917 q 314 878 314 892 q 334 829 314 849 q 382 810 353 810 q 408 815 396 810 q 430 830 420 821 q 444 851 439 839 q 450 878 450 863 q 444 904 450 892 q 430 926 439 917 q 408 941 420 935 q 382 946 396 946 m 0 681 z "},"ǻ":{"ha":764,"x_min":0,"x_max":652,"o":"m 546 0 l 543 92 q 430 12 488 37 q 310 -12 373 -12 q 210 3 252 -12 q 142 44 169 18 q 103 105 115 70 q 90 182 90 140 q 166 342 90 284 q 392 400 243 400 l 533 400 l 533 460 q 494 556 533 520 q 376 593 456 593 q 263 580 319 593 q 147 543 207 567 l 147 650 q 197 666 170 658 q 255 680 224 673 q 319 689 286 686 q 386 693 352 693 q 497 680 448 693 q 581 638 547 666 q 633 568 615 610 q 652 469 652 526 l 652 0 l 546 0 m 533 310 l 383 310 q 307 301 339 310 q 255 276 275 292 q 225 237 235 260 q 215 186 215 214 q 221 148 215 166 q 241 116 227 130 q 276 94 254 102 q 329 86 298 86 q 422 111 370 86 q 533 189 475 136 l 533 310 m 382 1018 q 439 1007 412 1018 q 485 977 465 996 q 516 932 505 958 q 528 878 528 907 q 516 823 528 848 q 485 779 505 798 q 439 749 465 760 q 382 738 412 738 q 325 749 351 738 q 279 779 298 760 q 248 823 259 798 q 236 878 236 848 q 248 932 236 907 q 279 977 259 958 q 325 1007 298 996 q 382 1018 351 1018 m 382 946 q 355 941 368 946 q 334 926 343 935 q 319 904 325 917 q 314 878 314 892 q 334 829 314 849 q 382 810 353 810 q 408 815 396 810 q 430 830 420 821 q 444 851 439 839 q 450 878 450 863 q 444 904 450 892 q 430 926 439 917 q 408 941 420 935 q 382 946 396 946 m 0 681 m 632 1193 l 439 1048 l 318 1048 l 461 1193 l 632 1193 m 7 954 z "},"ą":{"ha":764,"x_min":90,"x_max":688,"o":"m 688 -254 q 650 -259 671 -258 q 612 -261 629 -261 q 502 -230 539 -261 q 464 -150 464 -199 q 467 -119 464 -134 q 479 -85 470 -103 q 504 -47 488 -68 q 546 0 519 -26 l 543 92 q 430 12 488 37 q 310 -12 373 -12 q 210 3 252 -12 q 142 44 169 18 q 103 105 115 70 q 90 182 90 140 q 166 342 90 284 q 392 400 243 400 l 533 400 l 533 460 q 494 556 533 520 q 376 593 456 593 q 263 580 319 593 q 147 543 207 567 l 147 650 q 197 666 170 658 q 255 680 224 673 q 319 689 286 686 q 386 693 352 693 q 497 680 448 693 q 581 638 547 666 q 633 568 615 610 q 652 469 652 526 l 652 0 q 612 -43 627 -24 q 589 -77 597 -62 q 578 -105 581 -92 q 575 -131 575 -118 q 590 -166 575 -153 q 640 -180 604 -180 q 663 -180 650 -180 q 688 -178 676 -179 l 688 -254 m 533 310 l 383 310 q 307 301 339 310 q 255 276 275 292 q 225 237 235 260 q 215 186 215 214 q 221 148 215 166 q 241 116 227 130 q 276 94 254 102 q 329 86 298 86 q 422 111 370 86 q 533 189 475 136 l 533 310 z "},"æ":{"ha":764,"x_min":21,"x_max":737,"o":"m 231 693 q 334 673 292 693 q 393 611 376 653 q 455 671 417 649 q 542 693 492 693 q 632 671 595 693 q 692 610 669 650 q 726 516 715 571 q 737 393 737 460 q 736 338 737 357 q 734 310 736 320 l 433 310 q 465 143 433 201 q 570 85 496 85 q 646 93 608 85 q 713 113 684 101 l 713 18 q 677 6 697 12 q 634 -4 656 0 q 589 -10 612 -8 q 545 -12 566 -12 q 363 106 413 -12 q 283 19 328 50 q 187 -12 239 -12 q 63 37 106 -12 q 21 182 21 87 q 34 273 21 233 q 75 341 47 313 q 145 383 102 368 q 248 397 188 397 l 329 397 l 329 454 q 306 560 329 523 q 225 597 282 597 q 143 584 186 597 q 58 547 100 571 l 58 650 q 95 666 75 658 q 138 680 116 673 q 184 689 161 686 q 231 693 208 693 m 244 310 q 159 276 185 310 q 132 186 132 242 q 150 110 132 135 q 200 85 168 85 q 260 108 229 85 q 329 191 292 131 l 329 310 l 244 310 m 538 599 q 492 583 511 599 q 459 541 473 568 q 440 477 446 514 q 433 397 433 440 l 627 397 q 623 476 627 439 q 608 541 618 513 q 580 583 597 568 q 538 599 563 599 z "},"ǽ":{"ha":764,"x_min":0,"x_max":737,"o":"m 231 693 q 334 673 292 693 q 393 611 376 653 q 455 671 417 649 q 542 693 492 693 q 632 671 595 693 q 692 610 669 650 q 726 516 715 571 q 737 393 737 460 q 736 338 737 357 q 734 310 736 320 l 433 310 q 465 143 433 201 q 570 85 496 85 q 646 93 608 85 q 713 113 684 101 l 713 18 q 677 6 697 12 q 634 -4 656 0 q 589 -10 612 -8 q 545 -12 566 -12 q 363 106 413 -12 q 283 19 328 50 q 187 -12 239 -12 q 63 37 106 -12 q 21 182 21 87 q 34 273 21 233 q 75 341 47 313 q 145 383 102 368 q 248 397 188 397 l 329 397 l 329 454 q 306 560 329 523 q 225 597 282 597 q 143 584 186 597 q 58 547 100 571 l 58 650 q 95 666 75 658 q 138 680 116 673 q 184 689 161 686 q 231 693 208 693 m 244 310 q 159 276 185 310 q 132 186 132 242 q 150 110 132 135 q 200 85 168 85 q 260 108 229 85 q 329 191 292 131 l 329 310 l 244 310 m 538 599 q 492 583 511 599 q 459 541 473 568 q 440 477 446 514 q 433 397 433 440 l 627 397 q 623 476 627 439 q 608 541 618 513 q 580 583 597 568 q 538 599 563 599 m 646 958 l 429 794 l 311 794 l 475 958 l 646 958 m 0 681 z "},"ć":{"ha":764,"x_min":28,"x_max":673,"o":"m 637 25 q 543 -1 591 7 q 443 -9 494 -9 q 194 78 281 -9 q 107 334 107 165 q 132 480 107 414 q 203 593 157 546 q 311 665 248 640 q 450 690 374 690 q 549 683 503 690 q 637 659 595 675 l 637 546 q 548 579 593 569 q 453 590 502 590 q 367 573 408 590 q 296 523 327 555 q 248 444 266 490 q 231 338 231 397 q 291 153 231 214 q 457 92 351 92 q 550 102 505 92 q 637 135 595 113 l 637 25 m 673 958 l 457 794 l 339 794 l 503 958 l 673 958 m 28 681 z "},"ĉ":{"ha":764,"x_min":28,"x_max":637,"o":"m 637 25 q 543 -1 591 7 q 443 -9 494 -9 q 194 78 281 -9 q 107 334 107 165 q 132 480 107 414 q 203 593 157 546 q 311 665 248 640 q 450 690 374 690 q 549 683 503 690 q 637 659 595 675 l 637 546 q 548 579 593 569 q 453 590 502 590 q 367 573 408 590 q 296 523 327 555 q 248 444 266 490 q 231 338 231 397 q 291 153 231 214 q 457 92 351 92 q 550 102 505 92 q 637 135 595 113 l 637 25 m 458 958 l 624 794 l 504 794 l 408 876 l 313 794 l 196 794 l 361 958 l 458 958 m 28 681 z "},"č":{"ha":764,"x_min":41,"x_max":637,"o":"m 637 25 q 543 -1 591 7 q 443 -9 494 -9 q 194 78 281 -9 q 107 334 107 165 q 132 480 107 414 q 203 593 157 546 q 311 665 248 640 q 450 690 374 690 q 549 683 503 690 q 637 659 595 675 l 637 546 q 548 579 593 569 q 453 590 502 590 q 367 573 408 590 q 296 523 327 555 q 248 444 266 490 q 231 338 231 397 q 291 153 231 214 q 457 92 351 92 q 550 102 505 92 q 637 135 595 113 l 637 25 m 375 794 l 210 958 l 329 958 l 425 876 l 521 958 l 637 958 l 472 794 l 375 794 m 41 681 z "},"ċ":{"ha":764,"x_min":28,"x_max":637,"o":"m 637 25 q 543 -1 591 7 q 443 -9 494 -9 q 194 78 281 -9 q 107 334 107 165 q 132 480 107 414 q 203 593 157 546 q 311 665 248 640 q 450 690 374 690 q 549 683 503 690 q 637 659 595 675 l 637 546 q 548 579 593 569 q 453 590 502 590 q 367 573 408 590 q 296 523 327 555 q 248 444 266 490 q 231 338 231 397 q 291 153 231 214 q 457 92 351 92 q 550 102 505 92 q 637 135 595 113 l 637 25 m 410 964 q 445 957 429 964 q 474 937 462 949 q 493 909 486 925 q 500 873 500 892 q 493 838 500 854 q 474 810 486 822 q 445 790 462 798 q 410 783 429 783 q 374 790 390 783 q 345 810 357 798 q 326 838 333 822 q 319 873 319 854 q 326 909 319 892 q 345 937 333 925 q 374 957 357 949 q 410 964 390 964 m 28 681 z "},"ç":{"ha":764,"x_min":107,"x_max":637,"o":"m 459 -9 l 404 -200 l 300 -200 l 345 0 q 167 111 227 26 q 107 334 107 196 q 132 480 107 414 q 203 593 157 546 q 311 665 248 640 q 450 690 374 690 q 549 683 503 690 q 637 659 595 675 l 637 546 q 548 579 593 569 q 453 590 502 590 q 367 573 408 590 q 296 523 327 555 q 248 444 266 490 q 231 338 231 397 q 291 153 231 214 q 457 92 351 92 q 550 102 505 92 q 637 135 595 113 l 637 25 q 546 -1 591 7 q 459 -9 500 -9 z "},"ď":{"ha":764,"x_min":-9,"x_max":828,"o":"m 41 326 q 64 480 41 413 q 132 594 88 548 q 237 665 176 641 q 374 689 298 689 q 438 685 406 689 q 500 672 469 681 l 500 958 l 618 958 l 618 0 l 513 0 l 509 129 q 401 22 459 57 q 277 -12 344 -12 q 174 12 218 -12 q 100 81 130 37 q 56 188 71 125 q 41 326 41 250 m 161 334 q 198 150 161 210 q 300 89 234 89 q 395 129 345 89 q 500 248 445 169 l 500 564 q 435 584 471 577 q 366 591 400 591 q 215 529 269 591 q 161 334 161 467 m 828 994 l 754 794 l 656 794 l 713 994 l 828 994 m -9 681 z "},"ð":{"ha":764,"x_min":68,"x_max":682,"o":"m 486 578 q 436 586 458 584 q 395 589 414 589 q 298 568 338 589 q 235 511 259 547 q 200 429 211 475 q 189 330 189 382 q 203 226 189 271 q 242 150 217 180 q 301 103 267 119 q 375 87 335 87 q 457 105 422 87 q 515 156 492 123 q 549 233 538 188 q 561 334 561 279 q 543 451 561 392 q 486 578 525 510 m 418 685 q 388 728 404 705 q 354 775 372 751 l 164 734 l 164 833 l 290 860 l 212 958 l 359 958 l 415 888 l 616 929 l 616 831 l 478 803 q 566 672 528 734 q 629 553 604 610 q 669 444 655 496 q 682 340 682 391 q 676 264 682 304 q 657 185 671 224 q 620 110 644 146 q 562 47 597 75 q 478 4 527 20 q 366 -12 430 -12 q 238 12 294 -12 q 145 80 182 36 q 87 186 107 124 q 68 323 68 248 q 89 464 68 397 q 151 579 110 530 q 251 659 191 629 q 387 688 310 688 q 401 687 392 688 q 418 685 410 686 z "},"đ":{"ha":764,"x_min":66,"x_max":764,"o":"m 323 869 l 519 869 l 519 958 l 637 958 l 637 869 l 764 869 l 764 771 l 637 771 l 637 0 l 532 0 l 528 129 q 421 22 479 57 q 297 -12 364 -12 q 195 12 239 -12 q 123 81 152 37 q 81 188 95 125 q 66 326 66 250 q 90 480 66 413 q 155 594 113 548 q 259 665 198 641 q 395 689 319 689 q 519 672 460 689 l 519 771 l 323 771 l 323 869 m 187 334 q 221 149 187 210 q 321 89 255 89 q 415 129 366 89 q 519 248 464 169 l 519 564 q 455 584 490 577 q 386 591 420 591 q 239 529 290 591 q 187 334 187 467 z "},"è":{"ha":764,"x_min":0,"x_max":684,"o":"m 684 376 q 683 334 684 351 q 681 302 682 317 l 203 302 q 261 142 203 198 q 429 86 319 86 q 489 89 459 86 q 547 95 519 91 q 600 104 574 99 q 647 115 625 109 l 647 18 q 538 -4 599 5 q 412 -12 477 -12 q 262 12 325 -12 q 158 80 199 35 q 99 191 118 125 q 79 339 79 256 q 100 475 79 411 q 160 588 121 539 q 258 665 200 636 q 389 693 315 693 q 515 671 460 693 q 607 607 570 648 q 664 508 645 566 q 684 376 684 449 m 561 393 q 552 476 563 439 q 518 541 541 514 q 462 584 496 568 q 383 599 428 599 q 313 584 345 599 q 258 542 281 569 q 220 477 235 515 q 203 393 206 439 l 561 393 m 453 794 l 335 794 l 118 958 l 289 958 l 453 794 m 0 681 z "},"é":{"ha":764,"x_min":0,"x_max":684,"o":"m 684 376 q 683 334 684 351 q 681 302 682 317 l 203 302 q 261 142 203 198 q 429 86 319 86 q 489 89 459 86 q 547 95 519 91 q 600 104 574 99 q 647 115 625 109 l 647 18 q 538 -4 599 5 q 412 -12 477 -12 q 262 12 325 -12 q 158 80 199 35 q 99 191 118 125 q 79 339 79 256 q 100 475 79 411 q 160 588 121 539 q 258 665 200 636 q 389 693 315 693 q 515 671 460 693 q 607 607 570 648 q 664 508 645 566 q 684 376 684 449 m 561 393 q 552 476 563 439 q 518 541 541 514 q 462 584 496 568 q 383 599 428 599 q 313 584 345 599 q 258 542 281 569 q 220 477 235 515 q 203 393 206 439 l 561 393 m 646 958 l 429 794 l 311 794 l 475 958 l 646 958 m 0 681 z "},"ê":{"ha":764,"x_min":0,"x_max":684,"o":"m 684 376 q 683 334 684 351 q 681 302 682 317 l 203 302 q 261 142 203 198 q 429 86 319 86 q 489 89 459 86 q 547 95 519 91 q 600 104 574 99 q 647 115 625 109 l 647 18 q 538 -4 599 5 q 412 -12 477 -12 q 262 12 325 -12 q 158 80 199 35 q 99 191 118 125 q 79 339 79 256 q 100 475 79 411 q 160 588 121 539 q 258 665 200 636 q 389 693 315 693 q 515 671 460 693 q 607 607 570 648 q 664 508 645 566 q 684 376 684 449 m 561 393 q 552 476 563 439 q 518 541 541 514 q 462 584 496 568 q 383 599 428 599 q 313 584 345 599 q 258 542 281 569 q 220 477 235 515 q 203 393 206 439 l 561 393 m 431 958 l 596 794 l 476 794 l 380 876 l 285 794 l 168 794 l 334 958 l 431 958 m 0 681 z "},"ě":{"ha":764,"x_min":0,"x_max":684,"o":"m 684 376 q 683 334 684 351 q 681 302 682 317 l 203 302 q 261 142 203 198 q 429 86 319 86 q 489 89 459 86 q 547 95 519 91 q 600 104 574 99 q 647 115 625 109 l 647 18 q 538 -4 599 5 q 412 -12 477 -12 q 262 12 325 -12 q 158 80 199 35 q 99 191 118 125 q 79 339 79 256 q 100 475 79 411 q 160 588 121 539 q 258 665 200 636 q 389 693 315 693 q 515 671 460 693 q 607 607 570 648 q 664 508 645 566 q 684 376 684 449 m 561 393 q 552 476 563 439 q 518 541 541 514 q 462 584 496 568 q 383 599 428 599 q 313 584 345 599 q 258 542 281 569 q 220 477 235 515 q 203 393 206 439 l 561 393 m 334 794 l 168 958 l 288 958 l 383 876 l 479 958 l 596 958 l 431 794 l 334 794 m 0 681 z "},"ë":{"ha":764,"x_min":0,"x_max":684,"o":"m 684 376 q 683 334 684 351 q 681 302 682 317 l 203 302 q 261 142 203 198 q 429 86 319 86 q 489 89 459 86 q 547 95 519 91 q 600 104 574 99 q 647 115 625 109 l 647 18 q 538 -4 599 5 q 412 -12 477 -12 q 262 12 325 -12 q 158 80 199 35 q 99 191 118 125 q 79 339 79 256 q 100 475 79 411 q 160 588 121 539 q 258 665 200 636 q 389 693 315 693 q 515 671 460 693 q 607 607 570 648 q 664 508 645 566 q 684 376 684 449 m 561 393 q 552 476 563 439 q 518 541 541 514 q 462 584 496 568 q 383 599 428 599 q 313 584 345 599 q 258 542 281 569 q 220 477 235 515 q 203 393 206 439 l 561 393 m 236 953 q 266 947 252 953 q 290 930 279 941 q 307 906 300 920 q 313 876 313 892 q 307 847 313 861 q 290 823 300 833 q 266 806 279 812 q 236 800 252 800 q 207 806 220 800 q 182 823 193 812 q 166 847 172 833 q 160 876 160 861 q 166 906 160 892 q 182 930 172 920 q 207 947 193 941 q 236 953 220 953 m 528 953 q 557 947 543 953 q 582 930 571 941 q 598 906 592 920 q 604 876 604 892 q 598 847 604 861 q 582 823 592 833 q 557 806 571 812 q 528 800 543 800 q 498 806 512 800 q 474 823 484 812 q 458 847 464 833 q 452 876 452 861 q 458 906 452 892 q 474 930 464 920 q 498 947 484 941 q 528 953 512 953 m 0 681 z "},"ē":{"ha":764,"x_min":0,"x_max":684,"o":"m 684 376 q 683 334 684 351 q 681 302 682 317 l 203 302 q 261 142 203 198 q 429 86 319 86 q 489 89 459 86 q 547 95 519 91 q 600 104 574 99 q 647 115 625 109 l 647 18 q 538 -4 599 5 q 412 -12 477 -12 q 262 12 325 -12 q 158 80 199 35 q 99 191 118 125 q 79 339 79 256 q 100 475 79 411 q 160 588 121 539 q 258 665 200 636 q 389 693 315 693 q 515 671 460 693 q 607 607 570 648 q 664 508 645 566 q 684 376 684 449 m 561 393 q 552 476 563 439 q 518 541 541 514 q 462 584 496 568 q 383 599 428 599 q 313 584 345 599 q 258 542 281 569 q 220 477 235 515 q 203 393 206 439 l 561 393 m 559 831 l 204 831 l 204 921 l 559 921 l 559 831 m 0 681 z "},"ĕ":{"ha":764,"x_min":0,"x_max":684,"o":"m 684 376 q 683 334 684 351 q 681 302 682 317 l 203 302 q 261 142 203 198 q 429 86 319 86 q 489 89 459 86 q 547 95 519 91 q 600 104 574 99 q 647 115 625 109 l 647 18 q 538 -4 599 5 q 412 -12 477 -12 q 262 12 325 -12 q 158 80 199 35 q 99 191 118 125 q 79 339 79 256 q 100 475 79 411 q 160 588 121 539 q 258 665 200 636 q 389 693 315 693 q 515 671 460 693 q 607 607 570 648 q 664 508 645 566 q 684 376 684 449 m 561 393 q 552 476 563 439 q 518 541 541 514 q 462 584 496 568 q 383 599 428 599 q 313 584 345 599 q 258 542 281 569 q 220 477 235 515 q 203 393 206 439 l 561 393 m 550 958 q 536 886 550 917 q 500 835 523 855 q 447 804 477 814 q 382 794 416 794 q 317 804 347 794 q 263 835 286 814 q 227 886 241 855 q 214 958 214 917 l 306 958 q 325 903 306 924 q 382 882 344 882 q 439 903 420 882 q 458 958 458 924 l 550 958 m 0 681 z "},"ė":{"ha":764,"x_min":0,"x_max":684,"o":"m 684 376 q 683 334 684 351 q 681 302 682 317 l 203 302 q 261 142 203 198 q 429 86 319 86 q 489 89 459 86 q 547 95 519 91 q 600 104 574 99 q 647 115 625 109 l 647 18 q 538 -4 599 5 q 412 -12 477 -12 q 262 12 325 -12 q 158 80 199 35 q 99 191 118 125 q 79 339 79 256 q 100 475 79 411 q 160 588 121 539 q 258 665 200 636 q 389 693 315 693 q 515 671 460 693 q 607 607 570 648 q 664 508 645 566 q 684 376 684 449 m 561 393 q 552 476 563 439 q 518 541 541 514 q 462 584 496 568 q 383 599 428 599 q 313 584 345 599 q 258 542 281 569 q 220 477 235 515 q 203 393 206 439 l 561 393 m 382 964 q 417 957 401 964 q 446 937 434 949 q 465 909 458 925 q 472 873 472 892 q 465 838 472 854 q 446 810 458 822 q 417 790 434 798 q 382 783 401 783 q 346 790 362 783 q 317 810 330 798 q 298 838 305 822 q 292 873 292 854 q 298 909 292 892 q 317 937 305 925 q 346 957 330 949 q 382 964 362 964 m 0 681 z "},"ę":{"ha":764,"x_min":79,"x_max":684,"o":"m 599 -254 q 561 -259 582 -258 q 524 -261 541 -261 q 413 -230 450 -261 q 375 -150 375 -199 q 378 -120 375 -135 q 388 -89 380 -106 q 409 -54 395 -73 q 446 -12 423 -35 q 429 -12 437 -12 q 412 -12 420 -12 q 262 12 325 -12 q 158 80 199 35 q 99 191 118 125 q 79 339 79 256 q 100 475 79 411 q 160 588 121 539 q 258 665 200 636 q 389 693 315 693 q 515 671 460 693 q 607 607 570 648 q 664 508 645 566 q 684 376 684 449 q 683 334 684 351 q 681 302 682 317 l 203 302 q 261 142 203 198 q 429 86 319 86 q 489 89 459 86 q 547 95 519 91 q 600 104 574 99 q 647 115 625 109 l 647 18 q 562 0 608 7 q 523 -43 538 -24 q 500 -77 509 -62 q 489 -105 492 -92 q 486 -131 486 -118 q 501 -166 486 -153 q 551 -180 515 -180 q 574 -180 561 -180 q 599 -178 587 -179 l 599 -254 m 561 393 q 552 476 563 439 q 518 541 541 514 q 462 584 496 568 q 383 599 428 599 q 313 584 345 599 q 258 542 281 569 q 220 477 235 515 q 203 393 206 439 l 561 393 z "},"ﬁ":{"ha":764,"x_min":0,"x_max":653,"o":"m 653 0 l 534 0 l 534 514 l 271 514 l 271 0 l 153 0 l 153 514 l 32 514 l 32 612 l 153 612 l 153 694 q 230 899 153 831 q 461 966 308 966 q 543 961 497 966 q 631 945 588 955 l 631 843 q 544 861 590 854 q 457 868 498 868 q 318 827 366 868 q 271 701 271 785 l 271 612 l 653 612 l 653 0 m 0 681 z "},"ﬂ":{"ha":764,"x_min":0,"x_max":653,"o":"m 534 864 q 494 868 514 867 q 453 869 475 869 q 315 827 360 869 q 271 700 271 784 l 271 612 l 415 612 l 415 514 l 271 514 l 271 0 l 153 0 l 153 514 l 32 514 l 32 612 l 153 612 l 153 693 q 230 897 153 829 q 457 965 307 965 q 550 961 501 965 q 653 945 600 956 l 653 0 l 534 0 l 534 864 m 0 681 z "},"ĝ":{"ha":764,"x_min":0,"x_max":708,"o":"m 599 585 q 628 529 618 561 q 639 461 639 498 q 620 365 639 408 q 565 290 600 321 q 480 241 530 258 q 372 224 431 224 q 292 233 330 224 q 233 256 255 242 q 212 220 220 237 q 203 182 203 203 q 228 139 203 156 q 293 121 252 122 l 472 114 q 566 101 523 113 q 640 68 609 90 q 688 14 671 46 q 705 -60 705 -18 q 686 -146 705 -105 q 625 -217 666 -186 q 521 -267 584 -248 q 371 -285 458 -285 q 230 -272 288 -285 q 135 -235 172 -258 q 81 -179 98 -212 q 64 -109 64 -147 q 87 -22 64 -59 q 158 50 110 16 q 127 71 140 58 q 106 97 115 83 q 94 128 98 112 q 90 160 90 144 q 111 241 90 204 q 160 310 132 277 q 137 340 147 326 q 120 373 127 355 q 110 410 113 390 q 106 456 106 430 q 125 552 106 509 q 179 627 144 596 q 263 676 214 659 q 372 693 313 693 q 420 690 397 693 q 461 681 444 686 l 708 681 l 708 585 l 599 585 m 189 -98 q 239 -169 189 -146 q 379 -191 290 -191 q 474 -180 435 -191 q 535 -154 512 -170 q 569 -116 559 -137 q 579 -72 579 -94 q 545 -11 579 -31 q 441 12 511 9 l 264 18 q 227 -11 241 3 q 204 -40 212 -25 q 193 -69 196 -54 q 189 -98 189 -83 m 225 458 q 236 399 225 426 q 267 353 247 372 q 313 323 286 334 q 372 313 340 313 q 435 325 408 313 q 481 357 463 336 q 510 404 500 377 q 519 458 519 430 q 509 518 519 491 q 478 564 498 545 q 432 594 458 583 q 372 604 405 604 q 310 592 337 604 q 263 560 282 580 q 235 513 245 540 q 225 458 225 487 m 431 958 l 596 794 l 476 794 l 380 876 l 285 794 l 168 794 l 334 958 l 431 958 m 0 681 z "},"ğ":{"ha":764,"x_min":0,"x_max":708,"o":"m 599 585 q 628 529 618 561 q 639 461 639 498 q 620 365 639 408 q 565 290 600 321 q 480 241 530 258 q 372 224 431 224 q 292 233 330 224 q 233 256 255 242 q 212 220 220 237 q 203 182 203 203 q 228 139 203 156 q 293 121 252 122 l 472 114 q 566 101 523 113 q 640 68 609 90 q 688 14 671 46 q 705 -60 705 -18 q 686 -146 705 -105 q 625 -217 666 -186 q 521 -267 584 -248 q 371 -285 458 -285 q 230 -272 288 -285 q 135 -235 172 -258 q 81 -179 98 -212 q 64 -109 64 -147 q 87 -22 64 -59 q 158 50 110 16 q 127 71 140 58 q 106 97 115 83 q 94 128 98 112 q 90 160 90 144 q 111 241 90 204 q 160 310 132 277 q 137 340 147 326 q 120 373 127 355 q 110 410 113 390 q 106 456 106 430 q 125 552 106 509 q 179 627 144 596 q 263 676 214 659 q 372 693 313 693 q 420 690 397 693 q 461 681 444 686 l 708 681 l 708 585 l 599 585 m 189 -98 q 239 -169 189 -146 q 379 -191 290 -191 q 474 -180 435 -191 q 535 -154 512 -170 q 569 -116 559 -137 q 579 -72 579 -94 q 545 -11 579 -31 q 441 12 511 9 l 264 18 q 227 -11 241 3 q 204 -40 212 -25 q 193 -69 196 -54 q 189 -98 189 -83 m 225 458 q 236 399 225 426 q 267 353 247 372 q 313 323 286 334 q 372 313 340 313 q 435 325 408 313 q 481 357 463 336 q 510 404 500 377 q 519 458 519 430 q 509 518 519 491 q 478 564 498 545 q 432 594 458 583 q 372 604 405 604 q 310 592 337 604 q 263 560 282 580 q 235 513 245 540 q 225 458 225 487 m 550 958 q 536 886 550 917 q 500 835 523 855 q 447 804 477 814 q 382 794 416 794 q 317 804 347 794 q 263 835 286 814 q 227 886 241 855 q 214 958 214 917 l 306 958 q 325 903 306 924 q 382 882 344 882 q 439 903 420 882 q 458 958 458 924 l 550 958 m 0 681 z "},"ġ":{"ha":764,"x_min":0,"x_max":708,"o":"m 599 585 q 628 529 618 561 q 639 461 639 498 q 620 365 639 408 q 565 290 600 321 q 480 241 530 258 q 372 224 431 224 q 292 233 330 224 q 233 256 255 242 q 212 220 220 237 q 203 182 203 203 q 228 139 203 156 q 293 121 252 122 l 472 114 q 566 101 523 113 q 640 68 609 90 q 688 14 671 46 q 705 -60 705 -18 q 686 -146 705 -105 q 625 -217 666 -186 q 521 -267 584 -248 q 371 -285 458 -285 q 230 -272 288 -285 q 135 -235 172 -258 q 81 -179 98 -212 q 64 -109 64 -147 q 87 -22 64 -59 q 158 50 110 16 q 127 71 140 58 q 106 97 115 83 q 94 128 98 112 q 90 160 90 144 q 111 241 90 204 q 160 310 132 277 q 137 340 147 326 q 120 373 127 355 q 110 410 113 390 q 106 456 106 430 q 125 552 106 509 q 179 627 144 596 q 263 676 214 659 q 372 693 313 693 q 420 690 397 693 q 461 681 444 686 l 708 681 l 708 585 l 599 585 m 189 -98 q 239 -169 189 -146 q 379 -191 290 -191 q 474 -180 435 -191 q 535 -154 512 -170 q 569 -116 559 -137 q 579 -72 579 -94 q 545 -11 579 -31 q 441 12 511 9 l 264 18 q 227 -11 241 3 q 204 -40 212 -25 q 193 -69 196 -54 q 189 -98 189 -83 m 225 458 q 236 399 225 426 q 267 353 247 372 q 313 323 286 334 q 372 313 340 313 q 435 325 408 313 q 481 357 463 336 q 510 404 500 377 q 519 458 519 430 q 509 518 519 491 q 478 564 498 545 q 432 594 458 583 q 372 604 405 604 q 310 592 337 604 q 263 560 282 580 q 235 513 245 540 q 225 458 225 487 m 382 964 q 417 957 401 964 q 446 937 434 949 q 465 909 458 925 q 472 873 472 892 q 465 838 472 854 q 446 810 458 822 q 417 790 434 798 q 382 783 401 783 q 346 790 362 783 q 317 810 330 798 q 298 838 305 822 q 292 873 292 854 q 298 909 292 892 q 317 937 305 925 q 346 957 330 949 q 382 964 362 964 m 0 681 z "},"ģ":{"ha":764,"x_min":0,"x_max":708,"o":"m 599 585 q 628 529 618 561 q 639 461 639 498 q 620 365 639 408 q 565 290 600 321 q 480 241 530 258 q 372 224 431 224 q 292 233 330 224 q 233 256 255 242 q 212 220 220 237 q 203 182 203 203 q 228 139 203 156 q 293 121 252 122 l 472 114 q 566 101 523 113 q 640 68 609 90 q 688 14 671 46 q 705 -60 705 -18 q 686 -146 705 -105 q 625 -217 666 -186 q 521 -267 584 -248 q 371 -285 458 -285 q 230 -272 288 -285 q 135 -235 172 -258 q 81 -179 98 -212 q 64 -109 64 -147 q 87 -22 64 -59 q 158 50 110 16 q 127 71 140 58 q 106 97 115 83 q 94 128 98 112 q 90 160 90 144 q 111 241 90 204 q 160 310 132 277 q 137 340 147 326 q 120 373 127 355 q 110 410 113 390 q 106 456 106 430 q 125 552 106 509 q 179 627 144 596 q 263 676 214 659 q 372 693 313 693 q 420 690 397 693 q 461 681 444 686 l 708 681 l 708 585 l 599 585 m 189 -98 q 239 -169 189 -146 q 379 -191 290 -191 q 474 -180 435 -191 q 535 -154 512 -170 q 569 -116 559 -137 q 579 -72 579 -94 q 545 -11 579 -31 q 441 12 511 9 l 264 18 q 227 -11 241 3 q 204 -40 212 -25 q 193 -69 196 -54 q 189 -98 189 -83 m 225 458 q 236 399 225 426 q 267 353 247 372 q 313 323 286 334 q 372 313 340 313 q 435 325 408 313 q 481 357 463 336 q 510 404 500 377 q 519 458 519 430 q 509 518 519 491 q 478 564 498 545 q 432 594 458 583 q 372 604 405 604 q 310 592 337 604 q 263 560 282 580 q 235 513 245 540 q 225 458 225 487 m 315 794 l 389 994 l 488 994 l 431 794 l 315 794 m 0 681 z "},"ĥ":{"ha":764,"x_min":0,"x_max":656,"o":"m 656 0 l 538 0 l 538 435 q 508 552 538 513 q 424 591 479 591 q 379 585 400 591 q 336 563 359 578 q 288 519 314 547 q 227 452 261 492 l 227 0 l 109 0 l 109 958 l 227 958 l 227 681 l 222 574 q 277 630 250 607 q 331 667 304 652 q 385 687 357 681 q 443 693 413 693 q 600 631 545 693 q 656 444 656 569 l 656 0 m 596 1015 l 472 1015 l 380 1084 l 289 1015 l 168 1015 l 325 1160 l 439 1160 l 596 1015 m 0 921 z "},"ħ":{"ha":764,"x_min":0,"x_max":656,"o":"m 227 653 l 222 541 q 277 596 250 574 q 331 633 304 619 q 385 654 357 648 q 443 660 413 660 q 600 598 545 660 q 656 411 656 536 l 656 0 l 538 0 l 538 401 q 508 519 538 479 q 424 558 479 558 q 379 552 400 558 q 336 529 359 545 q 288 486 314 513 q 227 418 261 459 l 227 0 l 109 0 l 109 772 l 0 772 l 0 868 l 109 868 l 109 958 l 227 958 l 227 868 l 440 868 l 440 772 l 227 772 l 227 653 m 0 681 z "},"ì":{"ha":764,"x_min":0,"x_max":663,"o":"m 340 583 l 139 583 l 139 681 l 460 681 l 460 98 l 663 98 l 663 0 l 117 0 l 117 98 l 340 98 l 340 583 m 453 794 l 335 794 l 118 958 l 289 958 l 453 794 m 0 681 z "},"í":{"ha":764,"x_min":0,"x_max":663,"o":"m 340 583 l 139 583 l 139 681 l 460 681 l 460 98 l 663 98 l 663 0 l 117 0 l 117 98 l 340 98 l 340 583 m 646 958 l 429 794 l 311 794 l 475 958 l 646 958 m 0 681 z "},"î":{"ha":764,"x_min":0,"x_max":663,"o":"m 340 583 l 139 583 l 139 681 l 460 681 l 460 98 l 663 98 l 663 0 l 117 0 l 117 98 l 340 98 l 340 583 m 431 958 l 596 794 l 476 794 l 380 876 l 285 794 l 168 794 l 334 958 l 431 958 m 0 681 z "},"ĩ":{"ha":764,"x_min":0,"x_max":663,"o":"m 340 583 l 139 583 l 139 681 l 460 681 l 460 98 l 663 98 l 663 0 l 117 0 l 117 98 l 340 98 l 340 583 m 136 860 q 202 933 165 909 q 286 958 239 958 q 353 947 326 958 q 401 922 380 935 q 440 897 422 908 q 482 885 459 885 q 530 904 509 885 q 570 951 551 922 l 628 893 q 562 820 598 844 q 478 795 525 795 q 411 806 438 795 q 363 831 385 817 q 324 857 342 845 q 282 868 305 868 q 234 849 254 868 q 195 802 214 831 l 136 860 m 0 681 z "},"ï":{"ha":764,"x_min":0,"x_max":663,"o":"m 340 583 l 139 583 l 139 681 l 460 681 l 460 98 l 663 98 l 663 0 l 117 0 l 117 98 l 340 98 l 340 583 m 236 953 q 266 947 252 953 q 290 930 279 941 q 307 906 300 920 q 313 876 313 892 q 307 847 313 861 q 290 823 300 833 q 266 806 279 812 q 236 800 252 800 q 207 806 220 800 q 182 823 193 812 q 166 847 172 833 q 160 876 160 861 q 166 906 160 892 q 182 930 172 920 q 207 947 193 941 q 236 953 220 953 m 528 953 q 557 947 543 953 q 582 930 571 941 q 598 906 592 920 q 604 876 604 892 q 598 847 604 861 q 582 823 592 833 q 557 806 571 812 q 528 800 543 800 q 498 806 512 800 q 474 823 484 812 q 458 847 464 833 q 452 876 452 861 q 458 906 452 892 q 474 930 464 920 q 498 947 484 941 q 528 953 512 953 m 0 681 z "},"ī":{"ha":764,"x_min":0,"x_max":663,"o":"m 340 583 l 139 583 l 139 681 l 460 681 l 460 98 l 663 98 l 663 0 l 117 0 l 117 98 l 340 98 l 340 583 m 559 831 l 204 831 l 204 921 l 559 921 l 559 831 m 0 681 z "},"ĭ":{"ha":764,"x_min":0,"x_max":663,"o":"m 340 583 l 139 583 l 139 681 l 460 681 l 460 98 l 663 98 l 663 0 l 117 0 l 117 98 l 340 98 l 340 583 m 550 958 q 536 886 550 917 q 500 835 523 855 q 447 804 477 814 q 382 794 416 794 q 317 804 347 794 q 263 835 286 814 q 227 886 241 855 q 214 958 214 917 l 306 958 q 325 903 306 924 q 382 882 344 882 q 439 903 420 882 q 458 958 458 924 l 550 958 m 0 681 z "},"į":{"ha":764,"x_min":117,"x_max":699,"o":"m 699 -254 q 661 -259 682 -258 q 623 -261 640 -261 q 512 -230 550 -261 q 475 -150 475 -199 q 478 -119 475 -134 q 490 -85 481 -103 q 514 -47 498 -68 q 557 0 530 -26 l 117 0 l 117 98 l 340 98 l 340 583 l 139 583 l 139 681 l 460 681 l 460 98 l 663 98 l 663 0 q 623 -43 638 -24 q 600 -77 608 -62 q 589 -105 592 -92 q 586 -131 586 -118 q 601 -166 586 -153 q 651 -180 615 -180 q 674 -180 661 -180 q 699 -178 687 -179 l 699 -254 m 382 966 q 418 959 401 966 q 448 939 435 952 q 468 910 460 926 q 475 873 475 893 q 468 838 475 854 q 448 808 460 821 q 418 788 435 795 q 382 781 401 781 q 345 788 362 781 q 316 808 328 795 q 296 838 303 821 q 289 873 289 854 q 296 910 289 893 q 316 939 303 926 q 345 959 328 952 q 382 966 362 966 z "},"ı":{"ha":764,"x_min":117,"x_max":663,"o":"m 340 583 l 139 583 l 139 681 l 460 681 l 460 98 l 663 98 l 663 0 l 117 0 l 117 98 l 340 98 l 340 583 z "},"ĳ":{"ha":764,"x_min":72,"x_max":692,"o":"m 232 -154 q 266 -166 247 -161 q 306 -175 286 -172 q 348 -181 327 -179 q 386 -183 368 -183 q 498 -135 458 -183 q 538 8 538 -87 l 538 681 l 656 681 l 656 12 q 637 -114 656 -59 q 582 -208 618 -170 q 496 -265 547 -245 q 382 -285 446 -285 q 297 -277 336 -285 q 232 -258 258 -269 l 232 -154 m 227 681 l 227 0 l 109 0 l 109 681 l 227 681 m 72 869 q 79 907 72 889 q 99 937 86 924 q 129 958 112 950 q 167 965 146 965 q 205 958 188 965 q 235 937 222 950 q 255 907 248 924 q 262 869 262 889 q 255 832 262 850 q 235 802 248 814 q 205 781 222 789 q 167 774 188 774 q 129 781 146 774 q 99 802 112 789 q 79 832 86 814 q 72 869 72 850 m 501 869 q 508 907 501 889 q 528 937 515 924 q 558 958 541 950 q 596 965 576 965 q 634 958 617 965 q 665 937 652 950 q 685 907 677 924 q 692 869 692 889 q 685 832 692 850 q 665 802 677 814 q 634 781 652 789 q 596 774 617 774 q 558 781 576 774 q 528 802 541 789 q 508 832 515 814 q 501 869 501 850 z "},"ȷ":{"ha":764,"x_min":89,"x_max":570,"o":"m 570 681 l 570 12 q 549 -114 570 -59 q 491 -208 529 -170 q 398 -265 453 -245 q 273 -285 342 -285 q 175 -276 223 -285 q 89 -250 127 -267 l 89 -138 q 134 -157 110 -149 q 183 -172 158 -166 q 235 -181 209 -178 q 285 -184 260 -184 q 406 -136 362 -184 q 450 8 450 -87 l 450 583 l 117 583 l 117 681 l 570 681 z "},"ĵ":{"ha":764,"x_min":0,"x_max":596,"o":"m 570 681 l 570 12 q 549 -114 570 -59 q 491 -208 529 -170 q 398 -265 453 -245 q 273 -285 342 -285 q 175 -276 223 -285 q 89 -250 127 -267 l 89 -138 q 134 -157 110 -149 q 183 -172 158 -166 q 235 -181 209 -178 q 285 -184 260 -184 q 406 -136 362 -184 q 450 8 450 -87 l 450 583 l 117 583 l 117 681 l 570 681 m 431 958 l 596 794 l 476 794 l 380 876 l 285 794 l 168 794 l 334 958 l 431 958 m 0 681 z "},"ķ":{"ha":764,"x_min":123,"x_max":721,"o":"m 721 0 l 559 0 l 241 365 l 241 0 l 123 0 l 123 958 l 241 958 l 241 370 l 547 681 l 703 681 l 384 367 l 721 0 m 453 -78 l 393 -278 l 293 -278 l 338 -78 l 453 -78 z "},"ĸ":{"ha":764,"x_min":123,"x_max":721,"o":"m 721 0 l 559 0 l 241 365 l 241 0 l 123 0 l 123 681 l 241 681 l 241 370 l 547 681 l 703 681 l 384 367 l 721 0 z "},"ĺ":{"ha":764,"x_min":28,"x_max":663,"o":"m 340 861 l 139 861 l 139 958 l 460 958 l 460 98 l 663 98 l 663 0 l 117 0 l 117 98 l 340 98 l 340 861 m 653 1166 l 460 1022 l 339 1022 l 482 1166 l 653 1166 m 28 928 z "},"ľ":{"ha":764,"x_min":-96,"x_max":742,"o":"m 340 861 l 139 861 l 139 958 l 460 958 l 460 98 l 663 98 l 663 0 l 117 0 l 117 98 l 340 98 l 340 861 m 742 994 l 668 794 l 570 794 l 627 994 l 742 994 m -96 681 z "},"ļ":{"ha":764,"x_min":117,"x_max":663,"o":"m 340 861 l 139 861 l 139 958 l 460 958 l 460 98 l 663 98 l 663 0 l 117 0 l 117 98 l 340 98 l 340 861 m 453 -78 l 393 -278 l 293 -278 l 338 -78 l 453 -78 z "},"ł":{"ha":764,"x_min":117,"x_max":663,"o":"m 340 449 l 146 350 l 146 457 l 340 555 l 340 863 l 139 863 l 139 958 l 460 958 l 460 615 l 654 714 l 654 607 l 460 509 l 460 96 l 663 96 l 663 0 l 117 0 l 117 96 l 340 96 l 340 449 z "},"ŀ":{"ha":764,"x_min":76,"x_max":860,"o":"m 300 861 l 98 861 l 98 958 l 419 958 l 419 98 l 622 98 l 622 0 l 76 0 l 76 98 l 300 98 l 300 861 m 747 525 q 791 516 770 525 q 827 491 812 507 q 851 455 842 476 q 860 411 860 434 q 851 368 860 388 q 827 332 842 347 q 791 308 812 317 q 747 298 770 298 q 703 308 724 298 q 668 332 683 317 q 644 368 652 347 q 635 411 635 388 q 644 455 635 434 q 668 491 652 476 q 703 516 683 507 q 747 525 724 525 z "},"ń":{"ha":764,"x_min":0,"x_max":656,"o":"m 109 681 l 214 681 l 218 571 q 276 630 248 606 q 331 667 304 653 q 385 687 357 682 q 443 693 413 693 q 602 631 548 693 q 656 444 656 569 l 656 0 l 538 0 l 538 435 q 508 553 538 515 q 419 591 478 591 q 377 585 397 591 q 334 563 356 578 q 285 519 311 547 q 227 452 259 492 l 227 0 l 109 0 l 109 681 m 646 958 l 429 794 l 311 794 l 475 958 l 646 958 m 0 681 z "},"ň":{"ha":764,"x_min":0,"x_max":656,"o":"m 109 681 l 214 681 l 218 571 q 276 630 248 606 q 331 667 304 653 q 385 687 357 682 q 443 693 413 693 q 602 631 548 693 q 656 444 656 569 l 656 0 l 538 0 l 538 435 q 508 553 538 515 q 419 591 478 591 q 377 585 397 591 q 334 563 356 578 q 285 519 311 547 q 227 452 259 492 l 227 0 l 109 0 l 109 681 m 334 794 l 168 958 l 288 958 l 383 876 l 479 958 l 596 958 l 431 794 l 334 794 m 0 681 z "},"ñ":{"ha":764,"x_min":0,"x_max":656,"o":"m 109 681 l 214 681 l 218 571 q 276 630 248 606 q 331 667 304 653 q 385 687 357 682 q 443 693 413 693 q 602 631 548 693 q 656 444 656 569 l 656 0 l 538 0 l 538 435 q 508 553 538 515 q 419 591 478 591 q 377 585 397 591 q 334 563 356 578 q 285 519 311 547 q 227 452 259 492 l 227 0 l 109 0 l 109 681 m 136 860 q 202 933 165 909 q 286 958 239 958 q 353 947 326 958 q 401 922 380 935 q 440 897 422 908 q 482 885 459 885 q 530 904 509 885 q 570 951 551 922 l 628 893 q 562 820 598 844 q 478 795 525 795 q 411 806 438 795 q 363 831 385 817 q 324 857 342 845 q 282 868 305 868 q 234 849 254 868 q 195 802 214 831 l 136 860 m 0 681 z "},"ņ":{"ha":764,"x_min":109,"x_max":656,"o":"m 109 681 l 214 681 l 218 571 q 276 630 248 606 q 331 667 304 653 q 385 687 357 682 q 443 693 413 693 q 602 631 548 693 q 656 444 656 569 l 656 0 l 538 0 l 538 435 q 508 553 538 515 q 419 591 478 591 q 377 585 397 591 q 334 563 356 578 q 285 519 311 547 q 227 452 259 492 l 227 0 l 109 0 l 109 681 m 453 -78 l 393 -278 l 293 -278 l 338 -78 l 453 -78 z "},"ŉ":{"ha":764,"x_min":0,"x_max":669,"o":"m 122 681 l 227 681 l 232 571 q 290 630 262 606 q 344 667 317 653 q 399 687 371 682 q 456 693 427 693 q 615 631 562 693 q 669 444 669 569 l 669 0 l 551 0 l 551 435 q 522 553 551 515 q 433 591 492 591 q 390 585 411 591 q 347 563 370 578 q 299 519 325 547 q 240 452 273 492 l 240 0 l 122 0 l 122 681 m 0 798 q 40 803 21 798 q 72 818 58 808 q 94 841 86 827 q 102 873 102 855 q 94 908 102 895 q 77 932 86 921 q 59 956 67 943 q 52 990 52 968 q 56 1013 52 1001 q 69 1035 60 1025 q 91 1051 77 1044 q 122 1057 104 1057 q 158 1050 141 1057 q 187 1028 174 1043 q 208 989 200 1013 q 215 935 215 966 q 198 845 215 884 q 152 778 181 806 q 83 736 123 751 q 0 720 44 721 l 0 798 m 0 681 z "},"ŋ":{"ha":764,"x_min":109,"x_max":656,"o":"m 383 -183 q 497 -135 457 -183 q 538 8 538 -87 l 538 435 q 508 553 538 515 q 419 591 478 591 q 377 585 397 591 q 334 563 356 578 q 285 519 311 547 q 227 452 259 492 l 227 0 l 109 0 l 109 681 l 214 681 l 218 571 q 276 630 248 606 q 331 667 304 653 q 385 687 357 682 q 443 693 413 693 q 602 631 548 693 q 656 444 656 569 l 656 12 q 637 -114 656 -59 q 582 -208 618 -170 q 496 -265 547 -245 q 382 -285 446 -285 l 383 -183 z "},"ò":{"ha":764,"x_min":0,"x_max":701,"o":"m 701 346 q 679 200 701 267 q 614 87 656 134 q 512 14 572 40 q 375 -12 452 -12 q 244 11 302 -12 q 145 77 186 33 q 84 186 105 121 q 62 336 62 252 q 85 481 62 416 q 149 594 107 547 q 252 667 191 641 q 389 693 312 693 q 520 670 462 693 q 618 604 578 648 q 680 495 659 560 q 701 346 701 430 m 581 340 q 567 451 581 404 q 527 529 553 498 q 464 577 501 561 q 382 593 427 593 q 291 572 329 593 q 230 517 254 551 q 194 436 205 482 q 183 340 183 391 q 197 230 183 277 q 237 151 211 182 q 299 103 262 119 q 382 87 336 87 q 472 108 435 87 q 534 163 510 129 q 569 244 558 198 q 581 340 581 290 m 453 794 l 335 794 l 118 958 l 289 958 l 453 794 m 0 681 z "},"ó":{"ha":764,"x_min":0,"x_max":701,"o":"m 701 346 q 679 200 701 267 q 614 87 656 134 q 512 14 572 40 q 375 -12 452 -12 q 244 11 302 -12 q 145 77 186 33 q 84 186 105 121 q 62 336 62 252 q 85 481 62 416 q 149 594 107 547 q 252 667 191 641 q 389 693 312 693 q 520 670 462 693 q 618 604 578 648 q 680 495 659 560 q 701 346 701 430 m 581 340 q 567 451 581 404 q 527 529 553 498 q 464 577 501 561 q 382 593 427 593 q 291 572 329 593 q 230 517 254 551 q 194 436 205 482 q 183 340 183 391 q 197 230 183 277 q 237 151 211 182 q 299 103 262 119 q 382 87 336 87 q 472 108 435 87 q 534 163 510 129 q 569 244 558 198 q 581 340 581 290 m 646 958 l 429 794 l 311 794 l 475 958 l 646 958 m 0 681 z "},"ô":{"ha":764,"x_min":0,"x_max":701,"o":"m 701 346 q 679 200 701 267 q 614 87 656 134 q 512 14 572 40 q 375 -12 452 -12 q 244 11 302 -12 q 145 77 186 33 q 84 186 105 121 q 62 336 62 252 q 85 481 62 416 q 149 594 107 547 q 252 667 191 641 q 389 693 312 693 q 520 670 462 693 q 618 604 578 648 q 680 495 659 560 q 701 346 701 430 m 581 340 q 567 451 581 404 q 527 529 553 498 q 464 577 501 561 q 382 593 427 593 q 291 572 329 593 q 230 517 254 551 q 194 436 205 482 q 183 340 183 391 q 197 230 183 277 q 237 151 211 182 q 299 103 262 119 q 382 87 336 87 q 472 108 435 87 q 534 163 510 129 q 569 244 558 198 q 581 340 581 290 m 431 958 l 596 794 l 476 794 l 380 876 l 285 794 l 168 794 l 334 958 l 431 958 m 0 681 z "},"õ":{"ha":764,"x_min":0,"x_max":701,"o":"m 701 346 q 679 200 701 267 q 614 87 656 134 q 512 14 572 40 q 375 -12 452 -12 q 244 11 302 -12 q 145 77 186 33 q 84 186 105 121 q 62 336 62 252 q 85 481 62 416 q 149 594 107 547 q 252 667 191 641 q 389 693 312 693 q 520 670 462 693 q 618 604 578 648 q 680 495 659 560 q 701 346 701 430 m 581 340 q 567 451 581 404 q 527 529 553 498 q 464 577 501 561 q 382 593 427 593 q 291 572 329 593 q 230 517 254 551 q 194 436 205 482 q 183 340 183 391 q 197 230 183 277 q 237 151 211 182 q 299 103 262 119 q 382 87 336 87 q 472 108 435 87 q 534 163 510 129 q 569 244 558 198 q 581 340 581 290 m 136 860 q 202 933 165 909 q 286 958 239 958 q 353 947 326 958 q 401 922 380 935 q 440 897 422 908 q 482 885 459 885 q 530 904 509 885 q 570 951 551 922 l 628 893 q 562 820 598 844 q 478 795 525 795 q 411 806 438 795 q 363 831 385 817 q 324 857 342 845 q 282 868 305 868 q 234 849 254 868 q 195 802 214 831 l 136 860 m 0 681 z "},"ö":{"ha":764,"x_min":0,"x_max":701,"o":"m 701 346 q 679 200 701 267 q 614 87 656 134 q 512 14 572 40 q 375 -12 452 -12 q 244 11 302 -12 q 145 77 186 33 q 84 186 105 121 q 62 336 62 252 q 85 481 62 416 q 149 594 107 547 q 252 667 191 641 q 389 693 312 693 q 520 670 462 693 q 618 604 578 648 q 680 495 659 560 q 701 346 701 430 m 581 340 q 567 451 581 404 q 527 529 553 498 q 464 577 501 561 q 382 593 427 593 q 291 572 329 593 q 230 517 254 551 q 194 436 205 482 q 183 340 183 391 q 197 230 183 277 q 237 151 211 182 q 299 103 262 119 q 382 87 336 87 q 472 108 435 87 q 534 163 510 129 q 569 244 558 198 q 581 340 581 290 m 236 953 q 266 947 252 953 q 290 930 279 941 q 307 906 300 920 q 313 876 313 892 q 307 847 313 861 q 290 823 300 833 q 266 806 279 812 q 236 800 252 800 q 207 806 220 800 q 182 823 193 812 q 166 847 172 833 q 160 876 160 861 q 166 906 160 892 q 182 930 172 920 q 207 947 193 941 q 236 953 220 953 m 528 953 q 557 947 543 953 q 582 930 571 941 q 598 906 592 920 q 604 876 604 892 q 598 847 604 861 q 582 823 592 833 q 557 806 571 812 q 528 800 543 800 q 498 806 512 800 q 474 823 484 812 q 458 847 464 833 q 452 876 452 861 q 458 906 452 892 q 474 930 464 920 q 498 947 484 941 q 528 953 512 953 m 0 681 z "},"ō":{"ha":764,"x_min":0,"x_max":701,"o":"m 701 346 q 679 200 701 267 q 614 87 656 134 q 512 14 572 40 q 375 -12 452 -12 q 244 11 302 -12 q 145 77 186 33 q 84 186 105 121 q 62 336 62 252 q 85 481 62 416 q 149 594 107 547 q 252 667 191 641 q 389 693 312 693 q 520 670 462 693 q 618 604 578 648 q 680 495 659 560 q 701 346 701 430 m 581 340 q 567 451 581 404 q 527 529 553 498 q 464 577 501 561 q 382 593 427 593 q 291 572 329 593 q 230 517 254 551 q 194 436 205 482 q 183 340 183 391 q 197 230 183 277 q 237 151 211 182 q 299 103 262 119 q 382 87 336 87 q 472 108 435 87 q 534 163 510 129 q 569 244 558 198 q 581 340 581 290 m 559 831 l 204 831 l 204 921 l 559 921 l 559 831 m 0 681 z "},"ŏ":{"ha":764,"x_min":0,"x_max":701,"o":"m 701 346 q 679 200 701 267 q 614 87 656 134 q 512 14 572 40 q 375 -12 452 -12 q 244 11 302 -12 q 145 77 186 33 q 84 186 105 121 q 62 336 62 252 q 85 481 62 416 q 149 594 107 547 q 252 667 191 641 q 389 693 312 693 q 520 670 462 693 q 618 604 578 648 q 680 495 659 560 q 701 346 701 430 m 581 340 q 567 451 581 404 q 527 529 553 498 q 464 577 501 561 q 382 593 427 593 q 291 572 329 593 q 230 517 254 551 q 194 436 205 482 q 183 340 183 391 q 197 230 183 277 q 237 151 211 182 q 299 103 262 119 q 382 87 336 87 q 472 108 435 87 q 534 163 510 129 q 569 244 558 198 q 581 340 581 290 m 550 958 q 536 886 550 917 q 500 835 523 855 q 447 804 477 814 q 382 794 416 794 q 317 804 347 794 q 263 835 286 814 q 227 886 241 855 q 214 958 214 917 l 306 958 q 325 903 306 924 q 382 882 344 882 q 439 903 420 882 q 458 958 458 924 l 550 958 m 0 681 z "},"ő":{"ha":764,"x_min":0,"x_max":747,"o":"m 701 346 q 679 200 701 267 q 614 87 656 134 q 512 14 572 40 q 375 -12 452 -12 q 244 11 302 -12 q 145 77 186 33 q 84 186 105 121 q 62 336 62 252 q 85 481 62 416 q 149 594 107 547 q 252 667 191 641 q 389 693 312 693 q 520 670 462 693 q 618 604 578 648 q 680 495 659 560 q 701 346 701 430 m 581 340 q 567 451 581 404 q 527 529 553 498 q 464 577 501 561 q 382 593 427 593 q 291 572 329 593 q 230 517 254 551 q 194 436 205 482 q 183 340 183 391 q 197 230 183 277 q 237 151 211 182 q 299 103 262 119 q 382 87 336 87 q 472 108 435 87 q 534 163 510 129 q 569 244 558 198 q 581 340 581 290 m 440 958 l 275 794 l 157 794 l 297 958 l 440 958 m 747 958 l 558 794 l 440 794 l 590 958 l 747 958 m 0 681 z "},"ø":{"ha":764,"x_min":62,"x_max":701,"o":"m 496 827 l 595 827 l 539 661 q 659 546 616 625 q 701 346 701 467 q 679 197 701 263 q 615 84 657 130 q 513 13 573 37 q 375 -12 452 -12 q 315 -8 345 -12 l 269 -146 l 171 -146 l 227 20 q 106 136 149 57 q 62 336 62 215 q 84 485 62 418 q 149 597 106 551 q 251 668 191 643 q 389 693 311 693 q 450 689 418 693 l 496 827 m 349 89 q 367 87 357 87 q 386 86 378 86 q 476 106 439 86 q 537 162 513 127 q 572 243 561 197 q 583 340 583 289 q 563 471 583 416 q 504 555 542 525 l 349 89 m 416 591 q 398 594 408 593 q 378 595 387 595 q 288 574 325 595 q 227 519 250 554 q 192 438 203 484 q 180 340 180 392 q 201 210 180 264 q 261 125 221 155 l 416 591 z "},"ǿ":{"ha":764,"x_min":-54,"x_max":701,"o":"m 496 827 l 595 827 l 539 661 q 659 546 616 625 q 701 346 701 467 q 679 197 701 263 q 615 84 657 130 q 513 13 573 37 q 375 -12 452 -12 q 315 -8 345 -12 l 269 -146 l 171 -146 l 227 20 q 106 136 149 57 q 62 336 62 215 q 84 485 62 418 q 149 597 106 551 q 251 668 191 643 q 389 693 311 693 q 450 689 418 693 l 496 827 m 349 89 q 367 87 357 87 q 386 86 378 86 q 476 106 439 86 q 537 162 513 127 q 572 243 561 197 q 583 340 583 289 q 563 471 583 416 q 504 555 542 525 l 349 89 m 416 591 q 398 594 408 593 q 378 595 387 595 q 288 574 325 595 q 227 519 250 554 q 192 438 203 484 q 180 340 180 392 q 201 210 180 264 q 261 125 221 155 l 416 591 m 591 958 l 375 794 l 257 794 l 420 958 l 591 958 m -54 681 z "},"œ":{"ha":764,"x_min":26,"x_max":739,"o":"m 387 107 q 325 19 363 50 q 233 -12 286 -12 q 142 7 180 -12 q 77 70 103 27 q 39 178 52 112 q 26 335 26 243 q 40 484 26 418 q 80 596 54 550 q 148 668 107 643 q 243 693 189 693 q 332 665 296 693 q 396 575 368 636 q 422 625 408 603 q 455 662 437 647 q 497 685 473 677 q 550 693 520 693 q 630 672 595 693 q 689 610 665 651 q 726 511 713 570 q 739 376 739 452 q 739 335 739 351 q 737 311 739 319 l 450 311 q 481 145 450 202 q 576 89 513 89 q 651 97 615 89 q 715 117 688 105 l 715 18 q 646 -4 685 5 q 566 -12 607 -12 q 456 17 504 -12 q 387 107 409 47 m 332 339 q 325 457 332 409 q 307 536 319 506 q 277 581 294 567 q 237 595 259 595 q 195 580 214 595 q 163 534 176 566 q 144 455 151 503 q 138 339 138 407 q 143 222 138 271 q 161 144 149 174 q 193 100 174 114 q 237 86 212 86 q 332 339 332 86 m 629 399 q 623 489 630 452 q 605 550 616 526 q 577 584 593 573 q 543 595 562 595 q 474 543 496 595 q 450 399 452 492 l 629 399 z "},"þ":{"ha":764,"x_min":109,"x_max":690,"o":"m 690 353 q 667 201 690 268 q 601 88 644 134 q 496 17 557 41 q 357 -8 434 -8 q 292 -5 324 -8 q 227 7 260 -1 l 227 -278 l 109 -278 l 109 958 l 227 958 l 227 694 l 221 568 q 330 665 272 637 q 454 693 388 693 q 557 669 513 693 q 631 600 601 644 q 675 493 661 555 q 690 353 690 430 m 570 347 q 562 446 570 401 q 537 522 554 490 q 494 572 520 554 q 431 590 467 590 q 385 583 408 590 q 337 559 362 576 q 285 515 313 543 q 227 447 258 488 l 227 117 q 297 95 261 103 q 366 87 333 87 q 443 100 406 87 q 508 143 480 113 q 553 223 536 174 q 570 347 570 273 z "},"ŕ":{"ha":764,"x_min":0,"x_max":700,"o":"m 136 681 l 244 681 l 248 555 q 367 661 308 628 q 485 693 425 693 q 645 625 591 693 q 696 421 700 556 l 576 421 q 550 551 578 511 q 468 591 522 591 q 420 583 444 591 q 371 556 396 574 q 317 508 345 537 q 256 437 288 479 l 256 0 l 136 0 l 136 681 m 646 958 l 429 794 l 311 794 l 475 958 l 646 958 m 0 681 z "},"ř":{"ha":764,"x_min":0,"x_max":700,"o":"m 136 681 l 244 681 l 248 555 q 367 661 308 628 q 485 693 425 693 q 645 625 591 693 q 696 421 700 556 l 576 421 q 550 551 578 511 q 468 591 522 591 q 420 583 444 591 q 371 556 396 574 q 317 508 345 537 q 256 437 288 479 l 256 0 l 136 0 l 136 681 m 334 794 l 168 958 l 288 958 l 383 876 l 479 958 l 596 958 l 431 794 l 334 794 m 0 681 z "},"ŗ":{"ha":764,"x_min":136,"x_max":700,"o":"m 136 681 l 244 681 l 248 555 q 367 661 308 628 q 485 693 425 693 q 645 625 591 693 q 696 421 700 556 l 576 421 q 550 551 578 511 q 468 591 522 591 q 420 583 444 591 q 371 556 396 574 q 317 508 345 537 q 256 437 288 479 l 256 0 l 136 0 l 136 681 m 453 -78 l 393 -278 l 293 -278 l 338 -78 l 453 -78 z "},"ś":{"ha":764,"x_min":0,"x_max":648,"o":"m 648 186 q 635 121 648 150 q 602 71 623 93 q 553 33 581 49 q 494 7 526 18 q 429 -7 463 -3 q 364 -12 396 -12 q 237 -6 295 -12 q 123 14 179 0 l 123 122 q 242 96 183 105 q 359 87 301 87 q 485 111 444 87 q 526 176 526 134 q 519 209 526 195 q 496 237 513 224 q 443 264 479 250 q 346 297 408 279 q 261 328 300 311 q 193 369 222 345 q 149 425 165 393 q 132 500 132 456 q 145 562 132 528 q 191 625 159 596 q 277 674 222 654 q 412 693 331 693 q 501 689 452 693 q 603 673 550 684 l 603 568 q 497 588 547 582 q 411 595 448 595 q 337 588 367 595 q 288 569 307 581 q 261 542 269 557 q 253 507 253 526 q 260 474 253 489 q 287 445 267 459 q 340 417 306 431 q 431 387 375 404 q 532 350 491 370 q 600 307 574 331 q 636 254 625 283 q 648 186 648 224 m 646 958 l 429 794 l 311 794 l 475 958 l 646 958 m 0 681 z "},"ŝ":{"ha":764,"x_min":0,"x_max":648,"o":"m 648 186 q 635 121 648 150 q 602 71 623 93 q 553 33 581 49 q 494 7 526 18 q 429 -7 463 -3 q 364 -12 396 -12 q 237 -6 295 -12 q 123 14 179 0 l 123 122 q 242 96 183 105 q 359 87 301 87 q 485 111 444 87 q 526 176 526 134 q 519 209 526 195 q 496 237 513 224 q 443 264 479 250 q 346 297 408 279 q 261 328 300 311 q 193 369 222 345 q 149 425 165 393 q 132 500 132 456 q 145 562 132 528 q 191 625 159 596 q 277 674 222 654 q 412 693 331 693 q 501 689 452 693 q 603 673 550 684 l 603 568 q 497 588 547 582 q 411 595 448 595 q 337 588 367 595 q 288 569 307 581 q 261 542 269 557 q 253 507 253 526 q 260 474 253 489 q 287 445 267 459 q 340 417 306 431 q 431 387 375 404 q 532 350 491 370 q 600 307 574 331 q 636 254 625 283 q 648 186 648 224 m 431 958 l 596 794 l 476 794 l 380 876 l 285 794 l 168 794 l 334 958 l 431 958 m 0 681 z "},"š":{"ha":764,"x_min":0,"x_max":648,"o":"m 648 186 q 635 121 648 150 q 602 71 623 93 q 553 33 581 49 q 494 7 526 18 q 429 -7 463 -3 q 364 -12 396 -12 q 237 -6 295 -12 q 123 14 179 0 l 123 122 q 242 96 183 105 q 359 87 301 87 q 485 111 444 87 q 526 176 526 134 q 519 209 526 195 q 496 237 513 224 q 443 264 479 250 q 346 297 408 279 q 261 328 300 311 q 193 369 222 345 q 149 425 165 393 q 132 500 132 456 q 145 562 132 528 q 191 625 159 596 q 277 674 222 654 q 412 693 331 693 q 501 689 452 693 q 603 673 550 684 l 603 568 q 497 588 547 582 q 411 595 448 595 q 337 588 367 595 q 288 569 307 581 q 261 542 269 557 q 253 507 253 526 q 260 474 253 489 q 287 445 267 459 q 340 417 306 431 q 431 387 375 404 q 532 350 491 370 q 600 307 574 331 q 636 254 625 283 q 648 186 648 224 m 334 794 l 168 958 l 288 958 l 383 876 l 479 958 l 596 958 l 431 794 l 334 794 m 0 681 z "},"ş":{"ha":764,"x_min":123,"x_max":648,"o":"m 648 186 q 630 111 648 143 q 585 55 613 78 q 520 17 557 31 q 444 -5 484 2 l 387 -200 l 285 -200 l 326 -12 q 220 -4 269 -10 q 123 14 171 2 l 123 122 q 242 96 183 105 q 359 87 301 87 q 485 111 444 87 q 526 176 526 134 q 519 209 526 195 q 496 237 513 224 q 443 264 479 250 q 346 297 408 279 q 261 328 300 311 q 193 369 222 345 q 149 425 165 393 q 132 500 132 456 q 145 562 132 528 q 191 625 159 596 q 277 674 222 654 q 412 693 331 693 q 501 689 452 693 q 603 673 550 684 l 603 568 q 497 588 547 582 q 411 595 448 595 q 337 588 367 595 q 288 569 307 581 q 261 542 269 557 q 253 507 253 526 q 260 474 253 489 q 287 445 267 459 q 340 417 306 431 q 431 387 375 404 q 532 350 491 370 q 600 307 574 331 q 636 254 625 283 q 648 186 648 224 z "},"ș":{"ha":764,"x_min":123,"x_max":648,"o":"m 648 186 q 635 121 648 150 q 602 71 623 93 q 553 33 581 49 q 494 7 526 18 q 429 -7 463 -3 q 364 -12 396 -12 q 237 -6 295 -12 q 123 14 179 0 l 123 122 q 242 96 183 105 q 359 87 301 87 q 485 111 444 87 q 526 176 526 134 q 519 209 526 195 q 496 237 513 224 q 443 264 479 250 q 346 297 408 279 q 261 328 300 311 q 193 369 222 345 q 149 425 165 393 q 132 500 132 456 q 145 562 132 528 q 191 625 159 596 q 277 674 222 654 q 412 693 331 693 q 501 689 452 693 q 603 673 550 684 l 603 568 q 497 588 547 582 q 411 595 448 595 q 337 588 367 595 q 288 569 307 581 q 261 542 269 557 q 253 507 253 526 q 260 474 253 489 q 287 445 267 459 q 340 417 306 431 q 431 387 375 404 q 532 350 491 370 q 600 307 574 331 q 636 254 625 283 q 648 186 648 224 m 453 -78 l 393 -278 l 293 -278 l 338 -78 l 453 -78 z "},"ß":{"ha":764,"x_min":100,"x_max":693,"o":"m 693 189 q 680 118 693 153 q 636 55 667 83 q 558 9 606 27 q 440 -8 510 -8 q 377 -5 406 -8 q 332 0 349 -2 l 332 104 q 351 99 339 102 q 378 94 363 96 q 407 91 392 92 q 435 90 422 90 q 497 97 471 90 q 539 115 523 104 q 564 142 556 127 q 572 175 572 157 q 555 231 572 207 q 511 277 537 256 q 453 321 484 299 q 395 368 422 342 q 351 426 369 393 q 334 501 334 458 q 347 566 334 539 q 380 614 360 593 q 422 651 399 635 q 465 683 446 667 q 498 719 485 700 q 511 765 511 739 q 477 846 511 821 q 378 871 443 871 q 312 861 341 871 q 262 828 283 850 q 230 772 241 806 q 218 689 218 737 l 218 0 l 100 0 l 100 685 q 121 810 100 757 q 182 898 143 863 q 273 949 220 932 q 389 966 326 966 q 491 953 446 966 q 568 914 536 939 q 615 853 599 889 q 631 774 631 818 q 617 705 631 733 q 585 655 604 676 q 542 618 565 634 q 499 586 519 602 q 466 551 479 570 q 453 507 453 533 q 471 460 453 481 q 515 418 488 439 q 573 376 542 397 q 631 327 604 354 q 675 266 658 300 q 693 189 693 233 z "},"ſ":{"ha":764,"x_min":196,"x_max":699,"o":"m 699 950 l 699 851 q 654 859 677 856 q 608 865 631 863 q 563 868 585 867 q 522 869 541 869 q 368 820 420 869 q 317 664 317 770 l 317 0 l 196 0 l 196 652 q 219 791 196 732 q 285 890 243 850 q 386 948 327 929 q 515 968 444 968 q 609 963 560 968 q 699 950 658 958 z "},"ť":{"ha":764,"x_min":-123,"x_max":714,"o":"m 657 9 q 574 -5 617 -1 q 488 -9 532 -9 q 296 48 359 -9 q 233 227 233 106 l 233 582 l 43 582 l 43 681 l 233 681 l 233 868 l 351 899 l 351 681 l 657 681 l 657 582 l 351 582 l 351 236 q 390 126 351 163 q 505 90 429 90 q 576 95 538 90 q 657 111 615 100 l 657 9 m 714 994 l 640 794 l 542 794 l 599 994 l 714 994 m -123 681 z "},"ț":{"ha":764,"x_min":43,"x_max":657,"o":"m 657 9 q 574 -5 617 -1 q 488 -9 532 -9 q 296 48 359 -9 q 233 227 233 106 l 233 582 l 43 582 l 43 681 l 233 681 l 233 868 l 351 899 l 351 681 l 657 681 l 657 582 l 351 582 l 351 236 q 390 126 351 163 q 505 90 429 90 q 576 95 538 90 q 657 111 615 100 l 657 9 m 453 -78 l 393 -278 l 293 -278 l 338 -78 l 453 -78 z "},"ŧ":{"ha":764,"x_min":43,"x_max":657,"o":"m 657 9 q 574 -5 617 -1 q 488 -9 532 -9 q 296 48 359 -9 q 233 227 233 106 l 233 304 l 71 304 l 71 403 l 233 403 l 233 582 l 43 582 l 43 681 l 233 681 l 233 868 l 351 899 l 351 681 l 657 681 l 657 582 l 351 582 l 351 403 l 615 403 l 615 304 l 351 304 l 351 236 q 390 126 351 163 q 505 90 429 90 q 576 95 538 90 q 657 111 615 100 l 657 9 z "},"ù":{"ha":764,"x_min":0,"x_max":656,"o":"m 656 0 l 550 0 l 546 110 q 488 51 515 75 q 433 14 460 28 q 379 -6 406 -1 q 321 -12 351 -12 q 162 50 216 -12 q 109 236 109 111 l 109 681 l 227 681 l 227 245 q 345 89 227 89 q 387 95 366 89 q 430 118 408 102 q 479 161 453 134 q 538 229 505 188 l 538 681 l 656 681 l 656 0 m 453 794 l 335 794 l 118 958 l 289 958 l 453 794 m 0 681 z "},"ú":{"ha":764,"x_min":0,"x_max":656,"o":"m 656 0 l 550 0 l 546 110 q 488 51 515 75 q 433 14 460 28 q 379 -6 406 -1 q 321 -12 351 -12 q 162 50 216 -12 q 109 236 109 111 l 109 681 l 227 681 l 227 245 q 345 89 227 89 q 387 95 366 89 q 430 118 408 102 q 479 161 453 134 q 538 229 505 188 l 538 681 l 656 681 l 656 0 m 646 958 l 429 794 l 311 794 l 475 958 l 646 958 m 0 681 z "},"û":{"ha":764,"x_min":0,"x_max":656,"o":"m 656 0 l 550 0 l 546 110 q 488 51 515 75 q 433 14 460 28 q 379 -6 406 -1 q 321 -12 351 -12 q 162 50 216 -12 q 109 236 109 111 l 109 681 l 227 681 l 227 245 q 345 89 227 89 q 387 95 366 89 q 430 118 408 102 q 479 161 453 134 q 538 229 505 188 l 538 681 l 656 681 l 656 0 m 431 958 l 596 794 l 476 794 l 380 876 l 285 794 l 168 794 l 334 958 l 431 958 m 0 681 z "},"ũ":{"ha":764,"x_min":0,"x_max":656,"o":"m 656 0 l 550 0 l 546 110 q 488 51 515 75 q 433 14 460 28 q 379 -6 406 -1 q 321 -12 351 -12 q 162 50 216 -12 q 109 236 109 111 l 109 681 l 227 681 l 227 245 q 345 89 227 89 q 387 95 366 89 q 430 118 408 102 q 479 161 453 134 q 538 229 505 188 l 538 681 l 656 681 l 656 0 m 136 860 q 202 933 165 909 q 286 958 239 958 q 353 947 326 958 q 401 922 380 935 q 440 897 422 908 q 482 885 459 885 q 530 904 509 885 q 570 951 551 922 l 628 893 q 562 820 598 844 q 478 795 525 795 q 411 806 438 795 q 363 831 385 817 q 324 857 342 845 q 282 868 305 868 q 234 849 254 868 q 195 802 214 831 l 136 860 m 0 681 z "},"ü":{"ha":764,"x_min":0,"x_max":656,"o":"m 656 0 l 550 0 l 546 110 q 488 51 515 75 q 433 14 460 28 q 379 -6 406 -1 q 321 -12 351 -12 q 162 50 216 -12 q 109 236 109 111 l 109 681 l 227 681 l 227 245 q 345 89 227 89 q 387 95 366 89 q 430 118 408 102 q 479 161 453 134 q 538 229 505 188 l 538 681 l 656 681 l 656 0 m 236 953 q 266 947 252 953 q 290 930 279 941 q 307 906 300 920 q 313 876 313 892 q 307 847 313 861 q 290 823 300 833 q 266 806 279 812 q 236 800 252 800 q 207 806 220 800 q 182 823 193 812 q 166 847 172 833 q 160 876 160 861 q 166 906 160 892 q 182 930 172 920 q 207 947 193 941 q 236 953 220 953 m 528 953 q 557 947 543 953 q 582 930 571 941 q 598 906 592 920 q 604 876 604 892 q 598 847 604 861 q 582 823 592 833 q 557 806 571 812 q 528 800 543 800 q 498 806 512 800 q 474 823 484 812 q 458 847 464 833 q 452 876 452 861 q 458 906 452 892 q 474 930 464 920 q 498 947 484 941 q 528 953 512 953 m 0 681 z "},"ū":{"ha":764,"x_min":0,"x_max":656,"o":"m 656 0 l 550 0 l 546 110 q 488 51 515 75 q 433 14 460 28 q 379 -6 406 -1 q 321 -12 351 -12 q 162 50 216 -12 q 109 236 109 111 l 109 681 l 227 681 l 227 245 q 345 89 227 89 q 387 95 366 89 q 430 118 408 102 q 479 161 453 134 q 538 229 505 188 l 538 681 l 656 681 l 656 0 m 559 831 l 204 831 l 204 921 l 559 921 l 559 831 m 0 681 z "},"ŭ":{"ha":764,"x_min":0,"x_max":656,"o":"m 656 0 l 550 0 l 546 110 q 488 51 515 75 q 433 14 460 28 q 379 -6 406 -1 q 321 -12 351 -12 q 162 50 216 -12 q 109 236 109 111 l 109 681 l 227 681 l 227 245 q 345 89 227 89 q 387 95 366 89 q 430 118 408 102 q 479 161 453 134 q 538 229 505 188 l 538 681 l 656 681 l 656 0 m 550 958 q 536 886 550 917 q 500 835 523 855 q 447 804 477 814 q 382 794 416 794 q 317 804 347 794 q 263 835 286 814 q 227 886 241 855 q 214 958 214 917 l 306 958 q 325 903 306 924 q 382 882 344 882 q 439 903 420 882 q 458 958 458 924 l 550 958 m 0 681 z "},"ů":{"ha":764,"x_min":0,"x_max":656,"o":"m 656 0 l 550 0 l 546 110 q 488 51 515 75 q 433 14 460 28 q 379 -6 406 -1 q 321 -12 351 -12 q 162 50 216 -12 q 109 236 109 111 l 109 681 l 227 681 l 227 245 q 345 89 227 89 q 387 95 366 89 q 430 118 408 102 q 479 161 453 134 q 538 229 505 188 l 538 681 l 656 681 l 656 0 m 382 1018 q 439 1007 412 1018 q 485 977 465 996 q 516 932 505 958 q 528 878 528 907 q 516 823 528 848 q 485 779 505 798 q 439 749 465 760 q 382 738 412 738 q 325 749 351 738 q 279 779 298 760 q 248 823 259 798 q 236 878 236 848 q 248 932 236 907 q 279 977 259 958 q 325 1007 298 996 q 382 1018 351 1018 m 382 946 q 355 941 368 946 q 334 926 343 935 q 319 904 325 917 q 314 878 314 892 q 334 829 314 849 q 382 810 353 810 q 408 815 396 810 q 430 830 420 821 q 444 851 439 839 q 450 878 450 863 q 444 904 450 892 q 430 926 439 917 q 408 941 420 935 q 382 946 396 946 m 0 681 z "},"ű":{"ha":764,"x_min":0,"x_max":747,"o":"m 656 0 l 550 0 l 546 110 q 488 51 515 75 q 433 14 460 28 q 379 -6 406 -1 q 321 -12 351 -12 q 162 50 216 -12 q 109 236 109 111 l 109 681 l 227 681 l 227 245 q 345 89 227 89 q 387 95 366 89 q 430 118 408 102 q 479 161 453 134 q 538 229 505 188 l 538 681 l 656 681 l 656 0 m 440 958 l 275 794 l 157 794 l 297 958 l 440 958 m 747 958 l 558 794 l 440 794 l 590 958 l 747 958 m 0 681 z "},"ų":{"ha":764,"x_min":109,"x_max":692,"o":"m 692 -254 q 654 -259 675 -258 q 616 -261 633 -261 q 506 -230 543 -261 q 468 -150 468 -199 q 471 -119 468 -134 q 483 -85 474 -103 q 508 -47 492 -68 q 550 0 524 -26 l 546 110 q 488 51 515 75 q 433 14 460 28 q 379 -6 406 -1 q 321 -12 351 -12 q 162 50 216 -12 q 109 236 109 111 l 109 681 l 227 681 l 227 245 q 345 89 227 89 q 387 95 366 89 q 430 118 408 102 q 479 161 453 134 q 538 229 505 188 l 538 681 l 656 681 l 656 0 q 616 -43 631 -24 q 593 -77 602 -62 q 582 -105 585 -92 q 579 -131 579 -118 q 594 -166 579 -153 q 644 -180 608 -180 q 667 -180 654 -180 q 692 -178 680 -179 l 692 -254 z "},"ẁ":{"ha":764,"x_min":0,"x_max":739,"o":"m 739 681 l 640 0 l 497 0 l 399 285 l 379 354 l 357 281 l 262 0 l 123 0 l 25 681 l 140 681 l 197 218 l 210 115 l 239 205 l 338 511 l 422 511 l 529 210 l 559 119 l 570 215 l 623 681 l 739 681 m 453 794 l 335 794 l 118 958 l 289 958 l 453 794 m 0 681 z "},"ẃ":{"ha":764,"x_min":0,"x_max":739,"o":"m 739 681 l 640 0 l 497 0 l 399 285 l 379 354 l 357 281 l 262 0 l 123 0 l 25 681 l 140 681 l 197 218 l 210 115 l 239 205 l 338 511 l 422 511 l 529 210 l 559 119 l 570 215 l 623 681 l 739 681 m 646 958 l 429 794 l 311 794 l 475 958 l 646 958 m 0 681 z "},"ŵ":{"ha":764,"x_min":0,"x_max":739,"o":"m 739 681 l 640 0 l 497 0 l 399 285 l 379 354 l 357 281 l 262 0 l 123 0 l 25 681 l 140 681 l 197 218 l 210 115 l 239 205 l 338 511 l 422 511 l 529 210 l 559 119 l 570 215 l 623 681 l 739 681 m 431 958 l 596 794 l 476 794 l 380 876 l 285 794 l 168 794 l 334 958 l 431 958 m 0 681 z "},"ẅ":{"ha":764,"x_min":0,"x_max":739,"o":"m 739 681 l 640 0 l 497 0 l 399 285 l 379 354 l 357 281 l 262 0 l 123 0 l 25 681 l 140 681 l 197 218 l 210 115 l 239 205 l 338 511 l 422 511 l 529 210 l 559 119 l 570 215 l 623 681 l 739 681 m 236 953 q 266 947 252 953 q 290 930 279 941 q 307 906 300 920 q 313 876 313 892 q 307 847 313 861 q 290 823 300 833 q 266 806 279 812 q 236 800 252 800 q 207 806 220 800 q 182 823 193 812 q 166 847 172 833 q 160 876 160 861 q 166 906 160 892 q 182 930 172 920 q 207 947 193 941 q 236 953 220 953 m 528 953 q 557 947 543 953 q 582 930 571 941 q 598 906 592 920 q 604 876 604 892 q 598 847 604 861 q 582 823 592 833 q 557 806 571 812 q 528 800 543 800 q 498 806 512 800 q 474 823 484 812 q 458 847 464 833 q 452 876 452 861 q 458 906 452 892 q 474 930 464 920 q 498 947 484 941 q 528 953 512 953 m 0 681 z "},"ỳ":{"ha":764,"x_min":0,"x_max":714,"o":"m 714 681 l 482 72 q 408 -88 446 -21 q 324 -198 370 -155 q 224 -262 279 -241 q 103 -282 170 -282 q 71 -281 85 -282 q 40 -279 57 -281 l 40 -172 q 73 -176 55 -174 q 110 -178 90 -178 q 171 -168 142 -178 q 224 -137 199 -159 q 272 -82 249 -116 q 317 0 295 -48 l 45 681 l 179 681 l 351 231 l 386 125 l 425 233 l 585 681 l 714 681 m 453 794 l 335 794 l 118 958 l 289 958 l 453 794 m 0 681 z "},"ý":{"ha":764,"x_min":0,"x_max":714,"o":"m 714 681 l 482 72 q 408 -88 446 -21 q 324 -198 370 -155 q 224 -262 279 -241 q 103 -282 170 -282 q 71 -281 85 -282 q 40 -279 57 -281 l 40 -172 q 73 -176 55 -174 q 110 -178 90 -178 q 171 -168 142 -178 q 224 -137 199 -159 q 272 -82 249 -116 q 317 0 295 -48 l 45 681 l 179 681 l 351 231 l 386 125 l 425 233 l 585 681 l 714 681 m 646 958 l 429 794 l 311 794 l 475 958 l 646 958 m 0 681 z "},"ŷ":{"ha":764,"x_min":0,"x_max":714,"o":"m 714 681 l 482 72 q 408 -88 446 -21 q 324 -198 370 -155 q 224 -262 279 -241 q 103 -282 170 -282 q 71 -281 85 -282 q 40 -279 57 -281 l 40 -172 q 73 -176 55 -174 q 110 -178 90 -178 q 171 -168 142 -178 q 224 -137 199 -159 q 272 -82 249 -116 q 317 0 295 -48 l 45 681 l 179 681 l 351 231 l 386 125 l 425 233 l 585 681 l 714 681 m 431 958 l 596 794 l 476 794 l 380 876 l 285 794 l 168 794 l 334 958 l 431 958 m 0 681 z "},"ÿ":{"ha":764,"x_min":0,"x_max":714,"o":"m 714 681 l 482 72 q 408 -88 446 -21 q 324 -198 370 -155 q 224 -262 279 -241 q 103 -282 170 -282 q 71 -281 85 -282 q 40 -279 57 -281 l 40 -172 q 73 -176 55 -174 q 110 -178 90 -178 q 171 -168 142 -178 q 224 -137 199 -159 q 272 -82 249 -116 q 317 0 295 -48 l 45 681 l 179 681 l 351 231 l 386 125 l 425 233 l 585 681 l 714 681 m 236 953 q 266 947 252 953 q 290 930 279 941 q 307 906 300 920 q 313 876 313 892 q 307 847 313 861 q 290 823 300 833 q 266 806 279 812 q 236 800 252 800 q 207 806 220 800 q 182 823 193 812 q 166 847 172 833 q 160 876 160 861 q 166 906 160 892 q 182 930 172 920 q 207 947 193 941 q 236 953 220 953 m 528 953 q 557 947 543 953 q 582 930 571 941 q 598 906 592 920 q 604 876 604 892 q 598 847 604 861 q 582 823 592 833 q 557 806 571 812 q 528 800 543 800 q 498 806 512 800 q 474 823 484 812 q 458 847 464 833 q 452 876 452 861 q 458 906 452 892 q 474 930 464 920 q 498 947 484 941 q 528 953 512 953 m 0 681 z "},"ź":{"ha":764,"x_min":0,"x_max":660,"o":"m 660 0 l 111 0 l 111 85 l 496 582 l 121 582 l 121 681 l 637 681 l 637 589 l 260 100 l 660 100 l 660 0 m 646 958 l 429 794 l 311 794 l 475 958 l 646 958 m 0 681 z "},"ž":{"ha":764,"x_min":0,"x_max":660,"o":"m 660 0 l 111 0 l 111 85 l 496 582 l 121 582 l 121 681 l 637 681 l 637 589 l 260 100 l 660 100 l 660 0 m 334 794 l 168 958 l 288 958 l 383 876 l 479 958 l 596 958 l 431 794 l 334 794 m 0 681 z "},"ż":{"ha":764,"x_min":0,"x_max":660,"o":"m 660 0 l 111 0 l 111 85 l 496 582 l 121 582 l 121 681 l 637 681 l 637 589 l 260 100 l 660 100 l 660 0 m 382 964 q 417 957 401 964 q 446 937 434 949 q 465 909 458 925 q 472 873 472 892 q 465 838 472 854 q 446 810 458 822 q 417 790 434 798 q 382 783 401 783 q 346 790 362 783 q 317 810 330 798 q 298 838 305 822 q 292 873 292 854 q 298 909 292 892 q 317 937 305 925 q 346 957 330 949 q 382 964 362 964 m 0 681 z "},"&":{"ha":764,"x_min":39,"x_max":764,"o":"m 694 463 q 677 301 694 374 q 627 171 659 229 l 764 0 l 607 0 l 547 74 q 440 12 499 33 q 311 -9 380 -9 q 195 9 245 -9 q 109 60 144 27 q 57 138 75 93 q 39 239 39 184 q 52 331 39 290 q 89 402 66 371 q 142 458 112 434 q 205 503 172 482 l 191 524 q 134 618 153 570 q 115 713 115 667 q 131 803 115 762 q 177 874 146 844 q 251 922 207 905 q 353 939 296 939 q 449 923 408 939 q 518 880 490 907 q 560 818 546 853 q 574 742 574 782 q 556 653 574 691 q 511 585 539 614 q 447 532 483 555 q 372 488 410 509 l 547 269 q 575 463 577 349 l 694 463 m 161 253 q 173 187 161 217 q 206 136 184 157 q 258 103 227 115 q 328 92 289 92 q 482 157 416 92 l 267 427 q 224 393 243 411 q 191 355 205 376 q 169 309 177 334 q 161 253 161 283 m 454 730 q 426 810 454 781 q 349 839 397 839 q 301 830 321 839 q 266 806 280 821 q 244 769 252 790 q 237 724 237 748 q 251 655 237 687 q 294 586 264 624 l 313 562 q 368 595 342 578 q 413 632 393 612 q 443 676 432 652 q 454 730 454 700 z "},"`":{"ha":764,"x_min":0,"x_max":453,"o":"m 453 794 l 335 794 l 118 958 l 289 958 l 453 794 m 0 681 z "},"´":{"ha":764,"x_min":0,"x_max":646,"o":"m 646 958 l 429 794 l 311 794 l 475 958 l 646 958 m 0 681 z "},"ˆ":{"ha":764,"x_min":0,"x_max":596,"o":"m 431 958 l 596 794 l 476 794 l 380 876 l 285 794 l 168 794 l 334 958 l 431 958 m 0 681 z "},"ˇ":{"ha":764,"x_min":0,"x_max":596,"o":"m 334 794 l 168 958 l 288 958 l 383 876 l 479 958 l 596 958 l 431 794 l 334 794 m 0 681 z "},"̕":{"ha":764,"x_min":0,"x_max":838,"o":"m 838 994 l 764 794 l 665 794 l 722 994 l 838 994 m 0 681 z "},"˜":{"ha":764,"x_min":0,"x_max":628,"o":"m 136 860 q 202 933 165 909 q 286 958 239 958 q 353 947 326 958 q 401 922 380 935 q 440 897 422 908 q 482 885 459 885 q 530 904 509 885 q 570 951 551 922 l 628 893 q 562 820 598 844 q 478 795 525 795 q 411 806 438 795 q 363 831 385 817 q 324 857 342 845 q 282 868 305 868 q 234 849 254 868 q 195 802 214 831 l 136 860 m 0 681 z "},"¨":{"ha":764,"x_min":0,"x_max":604,"o":"m 236 953 q 266 947 252 953 q 290 930 279 941 q 307 906 300 920 q 313 876 313 892 q 307 847 313 861 q 290 823 300 833 q 266 806 279 812 q 236 800 252 800 q 207 806 220 800 q 182 823 193 812 q 166 847 172 833 q 160 876 160 861 q 166 906 160 892 q 182 930 172 920 q 207 947 193 941 q 236 953 220 953 m 528 953 q 557 947 543 953 q 582 930 571 941 q 598 906 592 920 q 604 876 604 892 q 598 847 604 861 q 582 823 592 833 q 557 806 571 812 q 528 800 543 800 q 498 806 512 800 q 474 823 484 812 q 458 847 464 833 q 452 876 452 861 q 458 906 452 892 q 474 930 464 920 q 498 947 484 941 q 528 953 512 953 m 0 681 z "},"¯":{"ha":764,"x_min":0,"x_max":559,"o":"m 559 831 l 204 831 l 204 921 l 559 921 l 559 831 m 0 681 z "},"˘":{"ha":764,"x_min":0,"x_max":550,"o":"m 550 958 q 536 886 550 917 q 500 835 523 855 q 447 804 477 814 q 382 794 416 794 q 317 804 347 794 q 263 835 286 814 q 227 886 241 855 q 214 958 214 917 l 306 958 q 325 903 306 924 q 382 882 344 882 q 439 903 420 882 q 458 958 458 924 l 550 958 m 0 681 z "},"˚":{"ha":764,"x_min":0,"x_max":528,"o":"m 382 1018 q 439 1007 412 1018 q 485 977 465 996 q 516 932 505 958 q 528 878 528 907 q 516 823 528 848 q 485 779 505 798 q 439 749 465 760 q 382 738 412 738 q 325 749 351 738 q 279 779 298 760 q 248 823 259 798 q 236 878 236 848 q 248 932 236 907 q 279 977 259 958 q 325 1007 298 996 q 382 1018 351 1018 m 382 946 q 355 941 368 946 q 334 926 343 935 q 319 904 325 917 q 314 878 314 892 q 334 829 314 849 q 382 810 353 810 q 408 815 396 810 q 430 830 420 821 q 444 851 439 839 q 450 878 450 863 q 444 904 450 892 q 430 926 439 917 q 408 941 420 935 q 382 946 396 946 m 0 681 z "},"˝":{"ha":764,"x_min":0,"x_max":747,"o":"m 440 958 l 275 794 l 157 794 l 297 958 l 440 958 m 747 958 l 558 794 l 440 794 l 590 958 l 747 958 m 0 681 z "},"˙":{"ha":764,"x_min":0,"x_max":472,"o":"m 382 964 q 417 957 401 964 q 446 937 434 949 q 465 909 458 925 q 472 873 472 892 q 465 838 472 854 q 446 810 458 822 q 417 790 434 798 q 382 783 401 783 q 346 790 362 783 q 317 810 330 798 q 298 838 305 822 q 292 873 292 854 q 298 909 292 892 q 317 937 305 925 q 346 957 330 949 q 382 964 362 964 m 0 681 z "},"¸":{"ha":764,"x_min":296,"x_max":457,"o":"m 457 0 l 399 -200 l 296 -200 l 340 0 l 457 0 z "},"˛":{"ha":764,"x_min":464,"x_max":688,"o":"m 688 -254 q 650 -259 671 -258 q 612 -261 629 -261 q 502 -230 539 -261 q 464 -150 464 -199 q 467 -119 464 -134 q 479 -85 470 -103 q 504 -47 488 -68 q 546 0 519 -26 l 652 0 q 612 -43 627 -24 q 589 -77 597 -62 q 578 -105 581 -92 q 575 -131 575 -118 q 590 -166 575 -153 q 640 -180 604 -180 q 663 -180 650 -180 q 688 -178 676 -179 l 688 -254 z "},"̦":{"ha":764,"x_min":293,"x_max":453,"o":"m 453 -78 l 393 -278 l 293 -278 l 338 -78 l 453 -78 z "},"̒":{"ha":764,"x_min":0,"x_max":488,"o":"m 315 794 l 389 994 l 488 994 l 431 794 l 315 794 m 0 681 z "},",":{"ha":764,"x_min":161,"x_max":489,"o":"m 161 -139 q 229 -133 196 -140 q 286 -111 261 -125 q 326 -75 311 -96 q 340 -25 340 -53 q 331 21 340 3 q 309 54 321 39 q 287 85 296 68 q 277 131 277 102 q 282 161 277 145 q 299 189 288 176 q 327 210 310 202 q 368 218 345 218 q 414 209 392 218 q 453 178 436 199 q 479 127 469 158 q 489 56 489 97 q 468 -53 489 -1 q 407 -144 448 -104 q 304 -208 366 -184 q 161 -232 243 -232 l 161 -139 z "},";":{"ha":764,"x_min":170,"x_max":497,"o":"m 170 -139 q 237 -133 204 -140 q 294 -111 269 -125 q 334 -75 319 -96 q 349 -25 349 -53 q 339 21 349 3 q 317 54 329 39 q 295 85 304 68 q 285 131 285 102 q 290 161 285 145 q 307 189 296 176 q 335 210 318 202 q 376 218 353 218 q 422 209 400 218 q 461 178 444 199 q 487 127 477 158 q 497 56 497 97 q 476 -53 497 -1 q 415 -144 456 -104 q 312 -208 374 -184 q 170 -232 251 -232 l 170 -139 m 382 693 q 422 685 403 693 q 455 662 441 676 q 478 629 469 648 q 486 589 486 610 q 478 548 486 567 q 455 515 469 530 q 422 493 441 501 q 382 485 403 485 q 341 493 360 485 q 309 515 323 501 q 286 548 294 530 q 278 589 278 567 q 286 629 278 610 q 309 662 294 648 q 341 685 323 676 q 382 693 360 693 z "},":":{"ha":764,"x_min":278,"x_max":486,"o":"m 382 693 q 422 685 403 693 q 455 662 441 676 q 478 629 469 648 q 486 589 486 610 q 478 548 486 567 q 455 515 469 530 q 422 493 441 501 q 382 485 403 485 q 341 493 360 485 q 309 515 323 501 q 286 548 294 530 q 278 589 278 567 q 286 629 278 610 q 309 662 294 648 q 341 685 323 676 q 382 693 360 693 m 382 196 q 422 188 403 196 q 455 165 441 179 q 478 132 469 151 q 486 92 486 113 q 478 51 486 70 q 455 18 469 33 q 422 -4 441 4 q 382 -12 403 -12 q 341 -4 360 -12 q 309 18 323 4 q 286 51 294 33 q 278 92 278 70 q 286 132 278 113 q 309 165 294 151 q 341 188 323 179 q 382 196 360 196 z "},".":{"ha":764,"x_min":264,"x_max":489,"o":"m 376 214 q 420 205 399 214 q 456 180 441 196 q 480 144 471 165 q 489 100 489 123 q 480 56 489 77 q 456 21 471 36 q 420 -3 441 5 q 376 -12 399 -12 q 332 -3 353 -12 q 297 21 312 5 q 273 56 281 36 q 264 100 264 77 q 273 144 264 123 q 297 180 281 165 q 332 205 312 196 q 376 214 353 214 z "},"…":{"ha":764,"x_min":40,"x_max":724,"o":"m 201 69 q 195 38 201 53 q 179 12 189 23 q 153 -6 168 1 q 121 -12 138 -12 q 88 -6 103 -12 q 63 12 73 1 q 46 37 52 22 q 40 69 40 52 q 46 101 40 86 q 63 127 52 116 q 88 145 73 138 q 121 151 103 151 q 153 145 138 151 q 179 127 168 138 q 195 101 189 117 q 201 69 201 86 m 463 69 q 456 38 463 53 q 440 12 450 23 q 414 -6 429 1 q 382 -12 399 -12 q 349 -6 364 -12 q 324 12 334 1 q 307 37 313 22 q 301 69 301 52 q 307 101 301 86 q 324 127 313 116 q 349 145 334 138 q 382 151 364 151 q 414 145 399 151 q 440 127 429 138 q 456 101 450 117 q 463 69 463 86 m 724 69 q 718 38 724 53 q 701 12 711 23 q 675 -6 690 1 q 643 -12 661 -12 q 610 -6 625 -12 q 585 12 595 1 q 568 37 574 22 q 562 69 562 52 q 568 101 562 86 q 585 127 574 116 q 610 145 595 138 q 643 151 625 151 q 675 145 661 151 q 701 127 690 138 q 718 101 711 117 q 724 69 724 86 z "},"-":{"ha":764,"x_min":179,"x_max":585,"o":"m 585 314 l 179 314 l 179 425 l 585 425 l 585 314 z "},"!":{"ha":764,"x_min":290,"x_max":469,"o":"m 452 958 l 433 260 l 329 260 l 309 958 l 452 958 m 380 167 q 415 160 399 167 q 443 140 431 153 q 462 112 455 128 q 469 77 469 95 q 462 42 469 58 q 443 14 455 26 q 415 -5 431 2 q 380 -12 399 -12 q 345 -5 361 -12 q 317 14 329 2 q 297 42 304 26 q 290 77 290 58 q 297 112 290 95 q 317 140 304 128 q 345 160 329 153 q 380 167 361 167 z "},"¡":{"ha":764,"x_min":294,"x_max":473,"o":"m 313 -278 l 330 421 l 435 421 l 456 -278 l 313 -278 m 383 514 q 349 521 365 514 q 321 541 333 528 q 301 569 309 553 q 294 604 294 585 q 301 639 294 623 q 321 667 309 655 q 349 686 333 679 q 383 693 365 693 q 418 686 402 693 q 447 667 435 679 q 466 639 459 655 q 473 604 473 623 q 466 569 473 585 q 447 541 459 553 q 418 521 435 528 q 383 514 402 514 z "},"?":{"ha":764,"x_min":205,"x_max":625,"o":"m 625 657 q 564 491 625 547 q 387 427 503 434 l 382 260 l 281 260 l 272 519 l 351 519 q 420 528 393 519 q 465 553 448 537 q 490 593 482 570 q 497 646 497 616 q 477 734 497 695 q 420 799 456 772 q 333 839 383 825 q 222 852 282 852 l 205 852 l 205 958 l 224 958 q 349 945 292 958 q 450 910 406 932 q 527 859 494 888 q 582 795 560 829 q 615 727 604 762 q 625 657 625 691 m 330 167 q 366 160 349 167 q 394 140 382 153 q 412 112 406 128 q 419 77 419 95 q 412 42 419 58 q 394 14 406 26 q 366 -5 382 2 q 330 -12 349 -12 q 296 -5 312 -12 q 267 14 279 2 q 248 42 255 26 q 241 77 241 58 q 248 112 241 95 q 267 140 255 128 q 296 160 279 153 q 330 167 312 167 z "},"¿":{"ha":764,"x_min":138,"x_max":557,"o":"m 138 24 q 199 190 138 133 q 375 254 260 247 l 380 421 l 482 421 l 490 161 l 411 161 q 342 153 370 161 q 297 127 314 144 q 273 88 280 111 q 265 35 265 64 q 286 -53 265 -15 q 343 -118 307 -92 q 430 -158 380 -144 q 541 -172 481 -172 l 557 -172 l 557 -278 l 539 -278 q 414 -265 471 -278 q 313 -230 357 -252 q 235 -178 268 -208 q 180 -115 202 -149 q 148 -46 159 -81 q 138 24 138 -10 m 432 514 q 397 521 413 514 q 369 541 380 528 q 350 569 357 553 q 343 604 343 585 q 350 639 343 623 q 369 667 357 655 q 397 686 380 679 q 432 693 413 693 q 467 686 451 693 q 495 667 484 679 q 514 639 507 655 q 521 604 521 623 q 514 569 521 585 q 495 541 507 553 q 467 521 484 528 q 432 514 451 514 z "},"‽":{"ha":764,"x_min":133,"x_max":628,"o":"m 298 167 q 334 160 317 167 q 362 140 350 153 q 380 112 374 128 q 387 77 387 95 q 380 42 387 58 q 362 14 374 26 q 334 -5 350 2 q 298 -12 317 -12 q 264 -5 280 -12 q 235 14 248 2 q 216 42 223 26 q 210 77 210 58 q 216 112 210 95 q 235 140 223 128 q 264 160 248 153 q 298 167 280 167 m 364 831 l 357 512 q 423 522 395 513 q 470 548 451 531 q 497 590 488 565 q 506 646 506 616 q 482 738 506 698 q 424 799 458 777 q 364 831 390 821 m 367 940 q 453 908 412 928 q 528 859 494 888 q 584 795 562 829 q 617 727 606 762 q 628 657 628 691 q 565 483 628 542 q 355 415 503 423 l 352 260 l 248 260 l 233 851 q 150 852 197 852 l 133 852 l 133 958 l 151 958 q 231 958 197 958 l 227 1087 l 370 1087 l 367 940 z "},"‘":{"ha":764,"x_min":275,"x_max":603,"o":"m 603 873 q 536 867 568 874 q 478 846 503 861 q 439 810 454 831 q 424 760 424 788 q 434 714 424 731 q 456 682 444 696 q 478 649 468 667 q 488 604 488 632 q 482 574 488 590 q 466 546 477 559 q 437 525 454 533 q 396 517 420 517 q 350 527 372 517 q 312 557 328 536 q 285 608 295 577 q 275 679 275 638 q 296 787 275 735 q 357 879 316 840 q 459 943 398 919 q 603 966 521 966 l 603 873 z "},"’":{"ha":764,"x_min":161,"x_max":489,"o":"m 161 610 q 229 615 196 608 q 286 637 261 623 q 326 673 311 652 q 340 724 340 695 q 331 770 340 752 q 309 802 321 787 q 287 834 296 817 q 277 879 277 851 q 282 909 277 894 q 299 937 288 924 q 327 958 310 950 q 368 966 345 966 q 414 957 392 966 q 453 927 436 947 q 479 876 469 907 q 489 804 489 846 q 468 696 489 748 q 407 604 448 644 q 304 541 366 564 q 161 517 243 517 l 161 610 z "},"“":{"ha":764,"x_min":71,"x_max":725,"o":"m 370 879 q 312 873 340 880 q 261 853 283 867 q 226 819 239 840 q 212 772 212 799 q 221 730 212 746 q 241 699 230 713 q 260 669 252 685 q 269 627 269 653 q 264 598 269 613 q 249 572 259 584 q 222 552 238 560 q 183 545 205 545 q 140 554 161 545 q 104 583 120 564 q 80 630 89 602 q 71 697 71 659 q 90 799 71 750 q 147 884 109 847 q 240 944 184 922 q 370 966 296 966 l 370 879 m 725 879 q 667 873 695 880 q 617 853 639 867 q 582 819 595 840 q 568 772 568 799 q 577 730 568 746 q 597 699 586 713 q 616 669 608 685 q 625 627 625 653 q 620 598 625 613 q 605 572 615 584 q 578 552 594 560 q 539 545 562 545 q 496 554 517 545 q 460 583 476 564 q 436 630 445 602 q 427 697 427 659 q 446 799 427 750 q 502 884 465 847 q 596 944 540 922 q 725 966 652 966 l 725 879 z "},"”":{"ha":764,"x_min":39,"x_max":693,"o":"m 395 632 q 452 637 424 631 q 503 658 481 644 q 538 692 524 671 q 551 739 551 713 q 543 782 551 766 q 523 812 534 798 q 503 842 512 826 q 494 885 494 859 q 499 913 494 899 q 515 939 505 927 q 542 959 526 951 q 581 966 558 966 q 623 957 603 966 q 659 929 644 947 q 684 881 675 910 q 693 814 693 852 q 674 712 693 761 q 617 627 654 664 q 524 567 579 589 q 395 545 468 545 l 395 632 m 39 632 q 97 637 68 631 q 147 658 125 644 q 182 692 169 671 q 196 739 196 713 q 187 782 196 766 q 168 812 178 798 q 148 842 157 826 q 139 885 139 859 q 144 913 139 899 q 160 939 149 927 q 186 959 170 951 q 225 966 203 966 q 268 957 248 966 q 304 929 288 947 q 329 881 319 910 q 338 814 338 852 q 318 712 338 761 q 261 627 299 664 q 168 567 224 589 q 39 545 112 545 l 39 632 z "},"‚":{"ha":764,"x_min":161,"x_max":489,"o":"m 161 -139 q 229 -133 196 -140 q 286 -111 261 -125 q 326 -75 311 -96 q 340 -25 340 -53 q 331 21 340 3 q 309 54 321 39 q 287 85 296 68 q 277 131 277 102 q 282 161 277 145 q 299 189 288 176 q 327 210 310 202 q 368 218 345 218 q 414 209 392 218 q 453 178 436 199 q 479 127 469 158 q 489 56 489 97 q 468 -53 489 -1 q 407 -144 448 -104 q 304 -208 366 -184 q 161 -232 243 -232 l 161 -139 z "},"„":{"ha":764,"x_min":39,"x_max":693,"o":"m 395 -134 q 452 -128 424 -135 q 503 -107 481 -121 q 538 -73 524 -94 q 551 -26 551 -53 q 543 16 551 0 q 523 47 534 33 q 503 77 512 61 q 494 119 494 93 q 499 148 494 133 q 515 174 505 162 q 542 194 526 186 q 581 201 558 201 q 623 192 603 201 q 659 163 644 182 q 684 116 675 144 q 693 49 693 87 q 674 -53 693 -4 q 617 -139 654 -101 q 524 -199 579 -176 q 395 -221 468 -221 l 395 -134 m 39 -134 q 97 -128 68 -135 q 147 -107 125 -121 q 182 -73 169 -94 q 196 -26 196 -53 q 187 16 196 0 q 168 47 178 33 q 148 77 157 61 q 139 119 139 93 q 144 148 139 133 q 160 174 149 162 q 186 194 170 186 q 225 201 203 201 q 268 192 248 201 q 304 163 288 182 q 329 116 319 144 q 338 49 338 87 q 318 -53 338 -4 q 261 -139 299 -101 q 168 -199 224 -176 q 39 -221 112 -221 l 39 -134 z "},"‹":{"ha":764,"x_min":195,"x_max":530,"o":"m 530 606 l 331 370 l 530 133 l 439 66 l 195 370 l 439 672 l 530 606 z "},"›":{"ha":764,"x_min":234,"x_max":568,"o":"m 234 132 l 433 369 l 234 606 l 325 672 l 568 369 l 325 66 l 234 132 z "},"«":{"ha":764,"x_min":97,"x_max":659,"o":"m 366 595 l 218 368 l 366 140 l 272 93 l 97 368 l 272 642 l 366 595 m 659 590 l 500 368 l 659 146 l 568 97 l 382 368 l 568 639 l 659 590 z "},"»":{"ha":764,"x_min":106,"x_max":667,"o":"m 399 140 l 546 368 l 399 595 l 492 642 l 667 368 l 492 93 l 399 140 m 106 146 l 264 368 l 106 590 l 196 639 l 382 368 l 196 97 l 106 146 z "},"/":{"ha":764,"x_min":78,"x_max":656,"o":"m 656 958 l 191 -146 l 78 -146 l 543 958 l 656 958 z "},"|":{"ha":764,"x_min":326,"x_max":437,"o":"m 437 -278 l 326 -278 l 326 1111 l 437 1111 l 437 -278 z "},"–":{"ha":764,"x_min":90,"x_max":673,"o":"m 673 318 l 90 318 l 90 421 l 673 421 l 673 318 z "},"—":{"ha":764,"x_min":-3,"x_max":766,"o":"m 766 318 l -3 318 l -3 421 l 766 421 l 766 318 z "},"―":{"ha":764,"x_min":-3,"x_max":766,"o":"m 766 318 l -3 318 l -3 421 l 766 421 l 766 318 z "},"•":{"ha":764,"x_min":175,"x_max":589,"o":"m 382 590 q 462 574 425 590 q 528 529 500 557 q 572 464 556 501 q 589 383 589 426 q 572 303 589 340 q 528 237 556 265 q 462 193 500 209 q 382 176 425 176 q 301 193 339 176 q 236 237 264 209 q 191 303 208 265 q 175 383 175 340 q 191 464 175 426 q 236 529 208 501 q 301 574 264 557 q 382 590 339 590 z "},"·":{"ha":764,"x_min":269,"x_max":494,"o":"m 382 497 q 426 488 405 497 q 461 464 446 479 q 486 427 477 448 q 494 383 494 406 q 486 340 494 360 q 461 304 477 319 q 426 280 446 289 q 382 271 405 271 q 338 280 358 271 q 302 304 317 289 q 278 340 287 319 q 269 383 269 360 q 278 427 269 406 q 302 464 287 448 q 338 488 317 479 q 382 497 358 497 z "},"(":{"ha":764,"x_min":203,"x_max":587,"o":"m 516 -285 q 203 355 203 5 q 220 519 203 437 q 274 683 237 601 q 371 847 311 765 q 519 1010 432 929 l 587 940 q 324 364 324 680 q 391 62 324 207 q 587 -212 457 -83 l 516 -285 z "},")":{"ha":764,"x_min":176,"x_max":560,"o":"m 248 1010 q 560 366 560 720 q 545 214 560 292 q 494 53 530 135 q 398 -115 458 -30 q 245 -285 337 -199 l 176 -215 q 374 58 309 -84 q 439 357 439 201 q 176 937 439 680 l 248 1010 z "},"[":{"ha":764,"x_min":234,"x_max":568,"o":"m 568 -278 l 234 -278 l 234 982 l 568 982 l 568 887 l 347 887 l 347 -183 l 568 -183 l 568 -278 z "},"]":{"ha":764,"x_min":195,"x_max":530,"o":"m 530 -278 l 195 -278 l 195 -183 l 416 -183 l 416 887 l 195 887 l 195 982 l 530 982 l 530 -278 z "},"{":{"ha":764,"x_min":110,"x_max":608,"o":"m 608 -278 l 558 -278 q 363 -217 427 -278 q 300 -31 300 -155 l 300 203 q 292 262 300 236 q 266 306 285 288 q 217 334 248 324 q 139 343 186 343 l 110 343 l 110 437 l 139 437 q 220 446 189 437 q 269 470 251 454 q 293 513 286 487 q 300 574 300 538 l 300 734 q 313 837 300 791 q 358 915 327 883 q 438 965 389 947 q 558 982 487 982 l 608 982 l 608 887 l 568 887 q 411 734 411 887 l 411 576 q 268 390 411 411 q 412 204 412 376 l 412 -28 q 568 -183 412 -183 l 608 -183 l 608 -278 z "},"}":{"ha":764,"x_min":155,"x_max":654,"o":"m 155 982 l 205 982 q 400 921 336 982 q 464 734 464 859 l 464 578 q 471 518 464 545 q 497 474 479 492 q 547 447 516 456 q 625 437 578 437 l 654 437 l 654 343 l 625 343 q 544 335 576 343 q 495 310 513 327 q 471 268 477 294 q 464 207 464 242 l 464 -31 q 450 -133 464 -87 q 406 -211 437 -179 q 326 -261 376 -243 q 205 -278 277 -278 l 155 -278 l 155 -183 l 196 -183 q 353 -31 353 -183 l 353 204 q 496 390 353 370 q 351 576 351 406 l 351 732 q 196 887 351 887 l 155 887 l 155 982 z "},"*":{"ha":764,"x_min":111,"x_max":653,"o":"m 652 570 l 606 489 l 415 615 l 431 383 l 334 383 l 349 615 l 154 489 l 111 568 l 319 671 l 111 775 l 158 854 l 350 726 l 334 958 l 431 958 l 414 726 l 606 856 l 653 772 l 444 669 l 652 570 z "},"†":{"ha":764,"x_min":122,"x_max":642,"o":"m 642 679 l 440 679 l 440 172 l 323 172 l 323 679 l 122 679 l 122 778 l 323 778 l 323 958 l 440 958 l 440 778 l 642 778 l 642 679 z "},"‡":{"ha":764,"x_min":122,"x_max":642,"o":"m 122 679 l 122 778 l 323 778 l 323 958 l 440 958 l 440 778 l 642 778 l 642 679 l 440 679 l 440 288 l 642 288 l 642 189 l 440 189 l 440 0 l 323 0 l 323 189 l 122 189 l 122 288 l 323 288 l 323 679 l 122 679 z "},"§":{"ha":764,"x_min":96,"x_max":672,"o":"m 553 161 q 590 116 574 144 q 606 56 606 88 q 579 -41 606 -1 q 511 -107 553 -81 q 419 -146 470 -134 q 321 -158 369 -158 q 259 -157 286 -158 q 208 -153 232 -155 q 163 -145 184 -150 q 118 -135 141 -141 l 118 -26 q 166 -41 143 -35 q 214 -51 190 -47 q 263 -57 237 -55 q 317 -58 288 -58 q 443 -30 401 -58 q 484 47 484 -2 q 467 90 484 70 q 423 128 450 109 q 361 167 395 147 q 290 209 326 186 q 218 256 253 231 q 156 311 184 281 q 112 377 129 341 q 96 457 96 413 q 103 511 96 484 q 125 563 111 538 q 163 611 140 589 q 215 652 185 634 q 180 695 195 668 q 164 760 164 723 q 177 828 164 792 q 222 895 191 865 q 309 946 254 926 q 444 966 363 966 q 597 950 522 966 l 597 848 q 517 865 555 860 q 441 869 479 869 q 368 862 397 869 q 320 841 338 854 q 294 810 302 828 q 286 770 286 791 q 303 727 286 747 q 347 687 319 707 q 408 648 374 667 q 479 606 443 628 q 550 559 515 584 q 612 503 585 534 q 655 436 639 473 q 672 355 672 400 q 664 301 672 328 q 641 249 656 274 q 604 201 626 223 q 553 161 581 178 m 472 222 q 509 248 493 233 q 535 280 524 263 q 551 314 546 297 q 557 346 557 332 q 532 420 557 387 q 468 481 507 453 q 383 535 429 509 q 294 590 336 562 q 258 565 274 580 q 232 533 243 550 q 216 499 222 516 q 211 468 211 482 q 235 394 211 427 q 298 332 260 361 q 382 277 336 303 q 472 222 429 250 z "},"¶":{"ha":764,"x_min":74,"x_max":676,"o":"m 444 387 q 268 410 339 387 q 154 472 197 433 q 92 563 111 511 q 74 675 74 616 q 96 785 74 734 q 163 876 118 837 q 277 936 208 914 q 441 958 347 958 l 676 958 l 676 139 q 656 12 676 68 q 598 -81 636 -43 q 507 -138 561 -119 q 386 -158 453 -158 q 260 -136 319 -158 q 153 -75 202 -115 l 214 14 q 296 -37 250 -18 q 392 -57 342 -57 q 514 -9 469 -57 q 558 135 558 39 l 558 861 l 444 861 l 444 387 z "},"Α":{"ha":764,"x_min":7,"x_max":757,"o":"m 757 0 l 625 0 l 564 193 l 195 193 l 132 0 l 7 0 l 301 886 l 467 886 l 757 0 m 529 301 l 379 775 l 229 301 l 529 301 z "},"Β":{"ha":764,"x_min":107,"x_max":689,"o":"m 689 265 q 664 152 689 201 q 594 69 640 103 q 483 18 548 35 q 339 0 418 0 l 107 0 l 107 886 l 361 886 q 657 671 657 886 q 623 547 657 599 q 511 471 589 496 q 579 448 547 464 q 636 406 612 431 q 675 345 661 380 q 689 265 689 309 m 532 654 q 524 706 532 682 q 495 747 515 730 q 440 774 475 764 q 353 785 406 785 l 228 785 l 228 507 l 349 507 q 424 516 390 507 q 481 543 457 525 q 518 589 505 562 q 532 654 532 616 m 561 261 q 547 322 561 295 q 505 368 532 349 q 439 397 478 387 q 351 407 400 407 l 228 407 l 228 102 l 355 102 q 510 140 459 102 q 561 261 561 179 z "},"Γ":{"ha":764,"x_min":158,"x_max":668,"o":"m 281 783 l 281 0 l 158 0 l 158 886 l 668 886 l 668 783 l 281 783 z "},"Δ":{"ha":764,"x_min":37,"x_max":726,"o":"m 37 103 l 304 886 l 467 886 l 726 103 l 726 0 l 37 0 l 37 103 m 589 113 l 379 775 l 168 113 l 589 113 z "},"Ε":{"ha":764,"x_min":136,"x_max":640,"o":"m 640 0 l 136 0 l 136 886 l 640 886 l 640 785 l 257 785 l 257 510 l 625 510 l 625 408 l 257 408 l 257 103 l 640 103 l 640 0 z "},"Ζ":{"ha":764,"x_min":75,"x_max":688,"o":"m 679 791 l 227 113 l 688 113 l 688 0 l 75 0 l 75 90 l 530 777 l 87 777 l 87 886 l 679 886 l 679 791 z "},"Η":{"ha":764,"x_min":75,"x_max":689,"o":"m 689 0 l 568 0 l 568 407 l 196 407 l 196 0 l 75 0 l 75 886 l 196 886 l 196 511 l 568 511 l 568 886 l 689 886 l 689 0 z "},"Θ":{"ha":764,"x_min":34,"x_max":730,"o":"m 730 449 q 701 243 730 330 q 623 99 672 156 q 510 15 574 43 q 374 -12 446 -12 q 225 19 289 -12 q 119 108 161 50 q 55 250 76 166 q 34 439 34 334 q 62 644 34 557 q 140 787 91 730 q 253 871 189 844 q 388 899 317 899 q 537 867 473 899 q 644 778 602 836 q 708 637 687 720 q 730 449 730 553 m 605 440 q 592 583 605 518 q 552 695 579 648 q 483 768 525 742 q 381 793 440 793 q 282 766 324 793 q 213 691 241 739 q 172 580 186 644 q 159 446 159 517 q 172 302 159 367 q 212 191 185 237 q 281 119 239 144 q 381 93 323 93 q 480 120 438 93 q 550 195 522 148 q 591 305 578 242 q 605 440 605 368 m 253 408 l 253 510 l 511 510 l 511 408 l 253 408 z "},"Ι":{"ha":764,"x_min":117,"x_max":647,"o":"m 321 785 l 117 785 l 117 886 l 647 886 l 647 785 l 443 785 l 443 103 l 647 103 l 647 0 l 117 0 l 117 103 l 321 103 l 321 785 z "},"Κ":{"ha":764,"x_min":106,"x_max":710,"o":"m 710 0 l 558 0 l 227 435 l 227 0 l 106 0 l 106 886 l 227 886 l 227 475 l 551 886 l 694 886 l 345 465 l 710 0 z "},"Λ":{"ha":764,"x_min":3,"x_max":761,"o":"m 3 0 l 304 886 l 467 886 l 761 0 l 625 0 l 433 597 l 379 772 l 323 597 l 132 0 l 3 0 z "},"Μ":{"ha":764,"x_min":33,"x_max":730,"o":"m 730 0 l 612 0 l 595 553 l 587 765 l 546 642 l 415 289 l 332 289 l 207 628 l 165 765 l 163 543 l 147 0 l 33 0 l 77 886 l 220 886 l 339 553 l 378 440 l 415 553 l 541 886 l 688 886 l 730 0 z "},"Ν":{"ha":764,"x_min":81,"x_max":684,"o":"m 684 0 l 526 0 l 268 553 l 193 730 l 193 283 l 193 0 l 81 0 l 81 886 l 236 886 l 482 363 l 571 160 l 571 635 l 571 886 l 684 886 l 684 0 z "},"Ξ":{"ha":764,"x_min":118,"x_max":646,"o":"m 600 406 l 164 406 l 164 513 l 600 513 l 600 406 m 640 779 l 123 779 l 123 886 l 640 886 l 640 779 m 118 0 l 118 109 l 646 109 l 646 0 l 118 0 z "},"Ο":{"ha":764,"x_min":39,"x_max":726,"o":"m 726 449 q 698 243 726 330 q 622 99 670 156 q 510 15 574 43 q 375 -12 446 -12 q 226 19 290 -12 q 121 108 163 50 q 59 250 79 166 q 39 439 39 334 q 66 644 39 557 q 142 787 94 730 q 254 871 190 844 q 389 899 317 899 q 537 867 474 899 q 643 778 601 836 q 706 637 685 720 q 726 449 726 553 m 601 440 q 589 583 601 518 q 551 694 577 648 q 483 767 524 741 q 382 793 441 793 q 284 765 325 793 q 216 691 243 738 q 177 580 190 644 q 164 446 164 517 q 176 302 164 367 q 215 191 189 237 q 282 119 241 144 q 382 93 323 93 q 480 120 439 93 q 548 195 522 148 q 588 305 575 242 q 601 440 601 368 z "},"Π":{"ha":764,"x_min":79,"x_max":684,"o":"m 684 0 l 564 0 l 564 782 l 200 782 l 200 0 l 79 0 l 79 886 l 684 886 l 684 0 z "},"Ρ":{"ha":764,"x_min":107,"x_max":689,"o":"m 689 615 q 669 508 689 561 q 606 412 648 454 q 496 344 563 370 q 338 318 430 318 l 228 318 l 228 0 l 107 0 l 107 886 l 357 886 q 483 872 422 886 q 589 825 543 857 q 662 741 635 792 q 689 615 689 689 m 564 610 q 508 741 564 695 q 351 786 452 786 l 228 786 l 228 421 l 340 421 q 506 468 448 421 q 564 610 564 515 z "},"Σ":{"ha":764,"x_min":75,"x_max":688,"o":"m 232 113 l 688 113 l 688 0 l 75 0 l 75 95 l 372 460 l 87 793 l 87 886 l 679 886 l 679 777 l 259 777 l 522 469 l 232 113 z "},"Τ":{"ha":764,"x_min":58,"x_max":705,"o":"m 705 783 l 443 783 l 443 0 l 321 0 l 321 783 l 58 783 l 58 886 l 705 886 l 705 783 z "},"Υ":{"ha":764,"x_min":0,"x_max":764,"o":"m 764 886 l 443 317 l 443 0 l 321 0 l 321 319 l 0 886 l 146 886 l 322 562 l 387 432 l 447 550 l 625 886 l 764 886 z "},"Φ":{"ha":764,"x_min":0,"x_max":737,"o":"m 437 -57 l 326 -57 l 326 21 q 194 58 250 27 q 101 141 138 88 q 46 270 64 195 q 28 439 28 345 q 51 617 28 541 q 115 746 75 694 q 210 827 155 798 q 326 864 264 856 l 326 943 l 437 943 l 437 865 q 570 828 513 859 q 663 745 626 798 q 719 617 701 692 q 737 449 737 543 q 714 269 737 346 q 650 141 690 193 q 554 60 609 89 q 437 22 500 31 l 437 -57 m 326 762 q 245 727 279 755 q 189 657 212 699 q 156 561 167 615 q 146 446 146 507 q 156 322 146 378 q 188 225 166 267 q 244 157 210 183 q 326 123 278 131 l 326 762 m 437 123 q 518 159 484 132 q 575 229 553 186 q 608 325 597 271 q 619 440 619 379 q 609 563 619 507 q 577 661 599 618 q 520 729 555 703 q 437 762 486 755 l 437 123 m 0 886 z "},"Χ":{"ha":764,"x_min":12,"x_max":747,"o":"m 747 0 l 595 0 l 379 358 l 163 0 l 12 0 l 307 453 l 36 886 l 179 886 l 382 553 l 586 886 l 725 886 l 453 458 l 747 0 z "},"Ψ":{"ha":764,"x_min":43,"x_max":721,"o":"m 440 0 l 323 0 l 323 262 q 197 291 250 269 q 110 350 144 313 q 59 438 76 387 q 43 553 43 490 l 43 886 l 161 886 l 161 562 q 201 424 161 472 q 323 364 241 376 l 323 886 l 440 886 l 440 364 q 561 427 519 378 q 603 564 603 477 l 603 886 l 721 886 l 721 571 q 702 452 721 505 q 647 360 683 399 q 558 296 610 321 q 440 264 506 272 l 440 0 z "},"Ω":{"ha":764,"x_min":29,"x_max":734,"o":"m 734 0 l 441 0 l 441 89 q 517 154 486 117 q 566 238 547 191 q 592 340 584 284 q 600 464 600 397 q 588 596 600 536 q 550 701 576 657 q 483 769 524 745 q 382 794 441 794 q 284 768 325 794 q 216 698 243 743 q 177 593 190 653 q 164 464 164 532 q 172 344 164 399 q 199 243 180 289 q 248 159 218 197 q 322 92 278 121 l 322 0 l 29 0 l 29 98 l 200 98 q 78 243 117 153 q 39 461 39 334 q 66 656 39 574 q 141 792 94 739 q 252 872 189 846 q 386 899 315 899 q 539 868 475 899 q 644 781 603 837 q 705 645 686 724 q 725 469 725 566 q 687 250 725 343 q 562 98 650 157 l 734 98 l 734 0 z "},"Ά":{"ha":764,"x_min":7,"x_max":854,"o":"m 757 0 l 625 0 l 564 193 l 195 193 l 132 0 l 7 0 l 301 886 l 467 886 l 757 0 m 529 301 l 379 775 l 229 301 l 529 301 m 186 972 l 123 790 l 25 790 l 57 972 l 186 972 m 854 886 z "},"Έ":{"ha":764,"x_min":-72,"x_max":758,"o":"m 640 0 l 136 0 l 136 886 l 640 886 l 640 785 l 257 785 l 257 510 l 625 510 l 625 408 l 257 408 l 257 103 l 640 103 l 640 0 m 89 972 l 26 790 l -72 790 l -40 972 l 89 972 m 758 886 z "},"Ή":{"ha":764,"x_min":-100,"x_max":730,"o":"m 689 0 l 568 0 l 568 407 l 196 407 l 196 0 l 75 0 l 75 886 l 196 886 l 196 511 l 568 511 l 568 886 l 689 886 l 689 0 m 61 972 l -1 790 l -100 790 l -68 972 l 61 972 m 730 886 z "},"Ί":{"ha":764,"x_min":-86,"x_max":743,"o":"m 321 785 l 117 785 l 117 886 l 647 886 l 647 785 l 443 785 l 443 103 l 647 103 l 647 0 l 117 0 l 117 103 l 321 103 l 321 785 m 75 972 l 12 790 l -86 790 l -54 972 l 75 972 m 743 886 z "},"Ϊ":{"ha":764,"x_min":0,"x_max":647,"o":"m 321 785 l 117 785 l 117 886 l 647 886 l 647 785 l 443 785 l 443 103 l 647 103 l 647 0 l 117 0 l 117 103 l 321 103 l 321 785 m 233 1125 q 261 1119 248 1125 q 284 1104 275 1114 q 300 1081 294 1095 q 306 1053 306 1067 q 300 1024 306 1038 q 284 1002 294 1011 q 261 986 275 992 q 233 981 248 981 q 182 1001 203 981 q 161 1053 161 1022 q 167 1081 161 1067 q 182 1104 173 1095 q 205 1119 192 1114 q 233 1125 218 1125 m 530 1125 q 559 1119 545 1125 q 582 1104 572 1114 q 597 1081 591 1095 q 603 1053 603 1067 q 597 1024 603 1038 q 582 1002 591 1011 q 559 986 572 992 q 530 981 545 981 q 479 1001 500 981 q 458 1053 458 1022 q 464 1081 458 1067 q 479 1104 470 1095 q 502 1119 489 1114 q 530 1125 515 1125 m 0 886 z "},"Ό":{"ha":764,"x_min":-58,"x_max":771,"o":"m 726 449 q 698 243 726 330 q 622 99 670 156 q 510 15 574 43 q 375 -12 446 -12 q 226 19 290 -12 q 121 108 163 50 q 59 250 79 166 q 39 439 39 334 q 66 644 39 557 q 142 787 94 730 q 254 871 190 844 q 389 899 317 899 q 537 867 474 899 q 643 778 601 836 q 706 637 685 720 q 726 449 726 553 m 601 440 q 589 583 601 518 q 551 694 577 648 q 483 767 524 741 q 382 793 441 793 q 284 765 325 793 q 216 691 243 738 q 177 580 190 644 q 164 446 164 517 q 176 302 164 367 q 215 191 189 237 q 282 119 241 144 q 382 93 323 93 q 480 120 439 93 q 548 195 522 148 q 588 305 575 242 q 601 440 601 368 m 102 972 l 40 790 l -58 790 l -26 972 l 102 972 m 771 886 z "},"Ύ":{"ha":764,"x_min":-132,"x_max":764,"o":"m 764 886 l 443 317 l 443 0 l 321 0 l 321 319 l 0 886 l 146 886 l 322 562 l 387 432 l 447 550 l 625 886 l 764 886 m 29 972 l -33 790 l -132 790 l -100 972 l 29 972 m 698 886 z "},"Ϋ":{"ha":764,"x_min":0,"x_max":764,"o":"m 764 886 l 443 317 l 443 0 l 321 0 l 321 319 l 0 886 l 146 886 l 322 562 l 387 432 l 447 550 l 625 886 l 764 886 m 233 1125 q 261 1119 248 1125 q 284 1104 275 1114 q 300 1081 294 1095 q 306 1053 306 1067 q 300 1024 306 1038 q 284 1002 294 1011 q 261 986 275 992 q 233 981 248 981 q 182 1001 203 981 q 161 1053 161 1022 q 167 1081 161 1067 q 182 1104 173 1095 q 205 1119 192 1114 q 233 1125 218 1125 m 530 1125 q 559 1119 545 1125 q 582 1104 572 1114 q 597 1081 591 1095 q 603 1053 603 1067 q 597 1024 603 1038 q 582 1002 591 1011 q 559 986 572 992 q 530 981 545 981 q 479 1001 500 981 q 458 1053 458 1022 q 464 1081 458 1067 q 479 1104 470 1095 q 502 1119 489 1114 q 530 1125 515 1125 m 0 886 z "},"Ώ":{"ha":764,"x_min":-44,"x_max":785,"o":"m 734 0 l 441 0 l 441 89 q 517 154 486 117 q 566 238 547 191 q 592 340 584 284 q 600 464 600 397 q 588 596 600 536 q 550 701 576 657 q 483 769 524 745 q 382 794 441 794 q 284 768 325 794 q 216 698 243 743 q 177 593 190 653 q 164 464 164 532 q 172 344 164 399 q 199 243 180 289 q 248 159 218 197 q 322 92 278 121 l 322 0 l 29 0 l 29 98 l 200 98 q 78 243 117 153 q 39 461 39 334 q 66 656 39 574 q 141 792 94 739 q 252 872 189 846 q 386 899 315 899 q 539 868 475 899 q 644 781 603 837 q 705 645 686 724 q 725 469 725 566 q 687 250 725 343 q 562 98 650 157 l 734 98 l 734 0 m 117 972 l 54 790 l -44 790 l -12 972 l 117 972 m 785 886 z "},"α":{"ha":764,"x_min":54,"x_max":737,"o":"m 54 330 q 76 481 54 414 q 135 596 97 549 q 227 668 174 643 q 343 693 279 693 q 416 683 382 693 q 480 652 451 672 q 531 602 509 631 q 566 534 553 572 l 590 681 l 696 681 l 631 328 l 631 319 q 657 146 631 202 q 737 97 683 90 l 737 0 q 656 -1 688 -7 q 603 25 624 6 q 571 73 583 43 q 550 142 559 103 q 458 28 516 68 q 317 -12 399 -12 q 201 13 250 -12 q 119 83 152 38 q 71 191 87 128 q 54 330 54 254 m 175 338 q 217 152 175 214 q 340 90 258 90 q 408 108 377 90 q 463 159 439 126 q 499 237 486 192 q 513 334 513 281 l 513 346 q 502 444 513 399 q 470 522 491 489 q 417 573 448 555 q 346 591 386 591 q 273 574 304 591 q 219 523 241 556 q 186 444 197 490 q 175 338 175 397 z "},"β":{"ha":764,"x_min":109,"x_max":701,"o":"m 701 290 q 679 171 701 226 q 617 76 657 116 q 520 14 576 37 q 395 -8 463 -8 q 301 4 342 -8 q 227 35 260 17 l 227 -278 l 109 -278 l 109 693 q 126 798 109 748 q 178 885 143 848 q 266 944 213 922 q 389 966 318 966 q 498 948 450 966 q 578 897 546 929 q 628 821 611 864 q 644 728 644 777 q 634 659 644 692 q 607 599 625 626 q 566 554 590 572 q 515 532 543 536 q 591 507 557 527 q 650 454 625 486 q 688 380 674 422 q 701 290 701 338 m 227 145 q 307 108 264 122 q 396 94 349 94 q 470 105 436 94 q 528 139 504 116 q 567 198 553 163 q 581 285 581 234 q 570 356 581 323 q 536 412 559 389 q 475 450 513 436 q 383 463 437 463 l 326 463 l 326 565 l 368 565 q 439 577 410 565 q 488 610 469 589 q 516 659 507 631 q 525 718 525 686 q 515 777 525 749 q 487 824 505 804 q 442 855 469 844 q 382 866 416 866 q 316 853 345 866 q 267 818 287 841 q 237 762 248 795 q 227 688 227 728 l 227 145 z "},"γ":{"ha":764,"x_min":43,"x_max":677,"o":"m 343 317 q 371 217 358 269 q 395 102 383 166 q 477 267 444 192 q 529 412 509 342 q 555 547 548 481 q 557 681 562 612 l 677 681 q 661 503 677 589 q 613 329 645 416 q 535 153 582 241 q 416 -45 488 64 q 419 -72 418 -54 q 422 -111 420 -90 q 424 -155 423 -132 q 425 -198 425 -178 l 425 -278 l 307 -278 l 307 -198 q 300 -71 307 -130 q 284 38 293 -12 q 262 145 275 87 q 227 286 250 203 q 174 443 197 384 q 133 534 151 503 q 100 574 115 565 q 66 583 86 583 q 54 582 58 583 q 43 581 50 582 l 43 681 q 102 685 77 685 q 145 680 125 685 q 183 661 165 675 q 218 622 201 647 q 255 555 235 596 q 297 456 275 515 q 343 317 319 397 z "},"δ":{"ha":764,"x_min":74,"x_max":685,"o":"m 304 663 q 242 737 262 702 q 222 815 222 772 q 236 876 222 848 q 278 924 250 905 q 349 955 306 944 q 442 966 391 966 q 618 947 524 966 l 618 845 q 438 868 517 868 q 368 856 389 868 q 347 822 347 843 q 351 798 347 809 q 363 775 355 787 q 384 752 371 764 q 414 725 397 740 l 506 646 q 595 559 562 597 q 649 481 628 521 q 677 404 669 441 q 685 319 685 366 q 679 245 685 284 q 658 169 673 206 q 620 100 644 132 q 562 42 597 68 q 481 2 528 16 q 374 -12 434 -12 q 242 13 298 -12 q 149 83 186 38 q 93 187 111 127 q 74 313 74 247 q 94 441 74 383 q 146 544 113 498 q 220 617 180 589 q 304 663 261 646 m 385 593 q 317 565 350 583 q 256 515 285 547 q 211 436 228 483 q 195 325 195 390 q 208 228 195 272 q 245 154 220 184 q 306 106 270 123 q 387 89 341 89 q 464 105 431 89 q 518 151 496 122 q 550 219 539 180 q 561 313 561 257 q 556 371 561 343 q 535 430 551 399 q 495 490 519 460 q 433 553 471 520 l 385 593 z "},"ε":{"ha":764,"x_min":87,"x_max":673,"o":"m 673 17 q 547 -5 606 2 q 428 -12 488 -12 q 273 2 337 -12 q 167 42 208 16 q 106 104 125 68 q 87 187 87 141 q 101 255 87 227 q 138 303 115 283 q 193 333 161 322 q 261 350 224 345 q 198 372 224 356 q 154 408 172 387 q 128 452 136 429 q 119 496 119 475 q 194 643 119 593 q 428 693 269 693 q 535 688 478 693 q 656 668 592 683 l 656 558 q 531 584 591 575 q 414 593 471 593 q 333 585 366 593 q 281 565 301 578 q 253 535 261 553 q 244 498 244 518 q 293 424 244 450 q 441 399 341 399 l 570 399 l 570 301 l 428 301 q 267 275 318 301 q 216 201 216 248 q 228 156 216 176 q 267 120 240 135 q 335 97 293 105 q 439 89 378 89 q 545 96 485 89 q 673 121 604 104 l 673 17 z "},"ζ":{"ha":764,"x_min":107,"x_max":668,"o":"m 107 313 q 124 421 107 369 q 170 522 140 473 q 238 616 199 570 q 319 704 276 662 q 408 784 362 746 q 501 858 453 823 l 146 858 l 146 958 l 668 958 l 668 869 q 482 716 564 788 q 345 578 400 644 q 260 448 289 512 q 231 319 231 385 q 242 240 231 273 q 276 182 253 207 q 336 141 300 157 q 422 114 372 125 q 536 80 491 100 q 609 37 582 61 q 647 -19 636 12 q 659 -87 659 -50 q 652 -137 659 -114 q 635 -182 646 -161 q 612 -224 625 -203 q 586 -265 599 -244 l 473 -265 q 498 -225 486 -244 q 519 -186 510 -205 q 533 -146 528 -167 q 538 -102 538 -125 q 532 -67 538 -83 q 509 -39 526 -52 q 464 -17 493 -27 q 390 1 435 -7 q 259 42 313 16 q 172 108 205 68 q 122 198 138 147 q 107 313 107 249 z "},"η":{"ha":764,"x_min":93,"x_max":659,"o":"m 111 360 q 110 435 111 395 q 105 518 108 476 q 99 602 102 560 q 93 681 96 644 l 201 681 l 212 559 q 279 630 251 606 q 333 667 307 653 q 388 687 360 682 q 446 693 416 693 q 605 631 551 693 q 659 444 659 569 l 659 -278 l 541 -278 l 541 435 q 511 553 541 515 q 422 591 481 591 q 379 585 400 591 q 336 563 359 578 q 288 519 314 547 q 229 452 262 492 l 229 0 l 111 0 l 111 360 z "},"θ":{"ha":764,"x_min":66,"x_max":697,"o":"m 697 484 q 676 286 697 376 q 614 129 654 195 q 514 25 573 62 q 378 -12 454 -12 q 247 18 304 -12 q 149 107 189 47 q 88 258 109 168 q 66 469 66 349 q 88 667 66 576 q 150 825 109 758 q 250 929 191 891 q 386 966 309 966 q 517 936 459 966 q 614 846 574 906 q 676 695 654 785 q 697 484 697 604 m 576 543 q 557 689 572 628 q 517 790 542 751 q 458 849 492 830 q 382 867 424 867 q 301 842 336 867 q 243 771 267 816 q 207 668 220 727 q 189 543 193 609 l 576 543 m 186 444 q 202 282 188 350 q 242 172 217 215 q 302 107 267 128 q 382 87 338 87 q 467 116 431 87 q 527 194 503 145 q 563 308 551 243 q 578 444 575 372 l 186 444 z "},"ι":{"ha":764,"x_min":93,"x_max":671,"o":"m 671 5 q 613 -6 646 -3 q 546 -9 581 -9 q 456 2 497 -9 q 386 40 416 14 q 340 107 357 66 q 323 210 323 149 l 323 582 l 93 582 l 93 681 l 441 681 l 441 229 q 472 123 441 157 q 564 90 503 90 q 620 94 592 90 q 671 106 648 99 l 671 5 z "},"κ":{"ha":764,"x_min":123,"x_max":721,"o":"m 721 0 l 559 0 l 241 365 l 241 0 l 123 0 l 123 681 l 241 681 l 241 370 l 547 681 l 703 681 l 384 367 l 721 0 z "},"λ":{"ha":764,"x_min":45,"x_max":737,"o":"m 304 758 q 282 811 293 790 q 258 844 271 831 q 230 861 245 856 q 195 865 214 865 q 154 861 176 865 q 111 850 132 857 l 111 949 q 161 962 133 957 q 212 966 190 966 q 275 960 246 966 q 329 936 304 954 q 375 885 354 918 q 416 798 397 852 l 636 174 q 652 136 644 151 q 668 112 659 121 q 687 99 676 103 q 711 96 697 96 q 724 96 718 96 q 737 97 730 96 l 737 0 q 672 -8 701 -8 q 623 0 644 -8 q 584 24 602 7 q 553 68 567 41 q 525 134 538 96 l 418 437 l 386 533 l 350 437 l 174 0 l 45 0 l 332 681 l 304 758 z "},"μ":{"ha":764,"x_min":109,"x_max":730,"o":"m 227 681 l 227 248 q 345 90 227 90 q 387 97 365 90 q 430 119 408 104 q 475 161 451 134 q 529 229 499 188 l 529 681 l 647 681 l 647 214 q 650 156 647 179 q 662 119 654 133 q 684 99 671 105 q 718 93 698 93 l 730 93 l 730 -1 q 709 -5 721 -3 q 684 -7 697 -7 q 626 2 650 -7 q 585 26 602 10 q 559 65 569 42 q 543 117 549 88 q 487 53 514 78 q 433 14 460 28 q 382 -5 406 0 q 336 -11 358 -11 q 270 2 300 -11 q 217 41 240 14 l 227 -77 l 227 -278 l 109 -278 l 109 681 l 227 681 z "},"ν":{"ha":764,"x_min":47,"x_max":697,"o":"m 47 681 l 182 681 l 345 231 l 382 125 q 498 401 454 262 q 559 681 542 540 l 697 681 q 655 510 682 596 q 595 337 629 423 q 518 167 560 252 q 428 0 475 82 l 307 0 l 47 681 z "},"ξ":{"ha":764,"x_min":98,"x_max":659,"o":"m 118 860 l 118 958 l 623 958 l 623 860 l 547 860 q 414 842 469 860 q 326 795 360 823 q 277 735 292 768 q 262 675 262 703 q 302 582 262 614 q 429 550 342 550 l 591 550 l 591 452 l 431 452 q 338 439 377 452 q 273 403 298 426 q 235 349 248 380 q 222 282 222 318 q 235 219 222 246 q 272 172 248 192 q 335 138 297 153 q 422 114 372 124 q 536 80 491 100 q 609 37 582 61 q 647 -19 636 12 q 659 -87 659 -50 q 652 -137 659 -114 q 635 -182 646 -161 q 612 -224 625 -203 q 586 -265 599 -244 l 473 -265 q 498 -225 486 -244 q 519 -186 510 -205 q 533 -146 528 -167 q 538 -102 538 -125 q 532 -67 538 -83 q 509 -39 526 -52 q 464 -17 493 -27 q 390 1 435 -7 q 258 40 313 16 q 167 99 203 64 q 115 177 132 133 q 98 275 98 221 q 113 355 98 317 q 150 422 127 392 q 203 472 174 452 q 265 503 233 493 q 214 522 236 507 q 176 559 191 537 q 154 606 161 581 q 146 659 146 632 q 156 720 146 689 q 183 778 165 750 q 226 826 201 805 q 279 860 250 848 l 118 860 z "},"ο":{"ha":764,"x_min":62,"x_max":701,"o":"m 701 346 q 679 200 701 267 q 614 87 656 134 q 512 14 572 40 q 375 -12 452 -12 q 244 11 302 -12 q 145 77 186 33 q 84 186 105 121 q 62 336 62 252 q 85 481 62 416 q 149 594 107 547 q 252 667 191 641 q 389 693 312 693 q 520 670 462 693 q 618 604 578 648 q 680 495 659 560 q 701 346 701 430 m 581 340 q 567 451 581 404 q 527 529 553 498 q 464 577 501 561 q 382 593 427 593 q 291 572 329 593 q 230 517 254 551 q 194 436 205 482 q 183 340 183 391 q 197 230 183 277 q 237 151 211 182 q 299 103 262 119 q 382 87 336 87 q 472 108 435 87 q 534 163 510 129 q 569 244 558 198 q 581 340 581 290 z "},"π":{"ha":764,"x_min":29,"x_max":734,"o":"m 734 -3 q 698 -8 716 -6 q 663 -11 680 -11 q 597 -5 628 -11 q 541 21 567 1 q 499 85 515 41 q 479 181 483 128 q 475 257 475 233 q 475 582 475 281 l 275 582 q 271 437 275 508 q 257 294 267 366 q 228 150 247 222 q 176 0 210 77 l 43 0 q 106 150 83 77 q 140 294 129 223 q 155 437 151 366 q 159 582 159 508 l 29 582 l 29 681 l 728 681 l 728 582 l 593 582 q 593 305 593 327 q 594 238 593 283 q 602 161 596 193 q 620 114 608 130 q 646 94 632 98 q 680 90 661 90 q 708 92 694 90 q 734 97 722 94 l 734 -3 z "},"ρ":{"ha":764,"x_min":109,"x_max":690,"o":"m 690 353 q 666 194 690 262 q 598 81 641 126 q 500 13 556 35 q 383 -10 445 -10 q 297 1 338 -10 q 227 30 255 13 l 227 -278 l 109 -278 l 109 368 q 126 494 109 435 q 180 598 144 553 q 273 668 217 642 q 406 693 329 693 q 536 667 482 693 q 624 596 590 642 q 674 488 659 551 q 690 353 690 426 m 570 350 q 561 445 570 401 q 532 523 552 490 q 479 574 511 555 q 400 593 447 593 q 273 536 319 593 q 227 358 227 479 l 227 141 q 302 106 260 120 q 384 92 345 92 q 520 156 471 92 q 570 350 570 220 z "},"σ":{"ha":764,"x_min":62,"x_max":737,"o":"m 587 583 q 651 484 626 545 q 675 345 675 423 q 655 202 675 267 q 596 89 635 137 q 499 15 557 41 q 368 -12 442 -12 q 241 11 298 -12 q 145 77 184 33 q 84 185 105 121 q 62 335 62 250 q 84 481 62 415 q 149 594 106 547 q 251 667 191 642 q 389 693 311 693 q 472 691 429 693 q 561 687 516 689 q 650 683 606 685 q 737 681 695 681 l 737 578 q 669 579 702 578 q 587 583 635 581 m 454 589 q 434 590 444 590 q 413 591 424 591 q 396 591 403 591 q 382 591 389 591 q 287 569 325 591 q 226 510 249 546 q 193 429 203 474 q 183 339 183 384 q 197 230 183 277 q 236 151 211 182 q 296 103 261 119 q 375 87 332 87 q 460 109 425 87 q 516 165 494 130 q 547 245 537 200 q 556 339 556 291 q 529 485 556 420 q 454 589 503 551 z "},"ς":{"ha":764,"x_min":107,"x_max":659,"o":"m 538 -102 q 532 -66 538 -83 q 507 -34 526 -50 q 458 -10 489 -18 q 381 4 427 -3 q 255 42 306 16 q 171 112 205 68 q 122 215 137 155 q 107 346 107 275 q 130 487 107 422 q 199 599 153 553 q 309 668 244 645 q 450 690 374 690 q 549 683 503 690 q 637 659 595 675 l 637 546 q 548 579 593 569 q 453 590 502 590 q 365 575 408 590 q 292 528 323 559 q 246 450 262 496 q 231 350 231 404 q 241 258 231 298 q 272 191 252 218 q 324 145 291 164 q 427 113 357 125 q 538 85 493 102 q 610 41 583 68 q 648 -18 637 13 q 659 -87 659 -50 q 652 -137 659 -114 q 635 -182 646 -161 q 612 -224 625 -203 q 586 -265 599 -244 l 473 -265 q 498 -225 486 -244 q 519 -186 510 -205 q 533 -146 528 -167 q 538 -102 538 -125 z "},"τ":{"ha":764,"x_min":43,"x_max":663,"o":"m 635 7 q 565 -5 606 -1 q 479 -9 524 -9 q 370 5 416 -9 q 296 49 325 20 q 253 123 267 79 q 239 227 239 167 l 239 582 l 43 582 l 43 681 l 663 681 l 663 582 l 357 582 l 357 236 q 389 126 357 163 q 497 90 421 90 q 566 95 530 90 q 635 109 603 100 l 635 7 z "},"υ":{"ha":764,"x_min":94,"x_max":665,"o":"m 648 681 q 661 534 657 607 q 665 387 665 461 q 644 222 665 296 q 583 96 623 149 q 485 16 543 44 q 353 -12 427 -12 q 166 53 224 -12 q 107 248 107 119 q 109 337 107 295 q 110 414 110 378 q 94 681 110 552 l 212 681 q 228 422 228 556 q 227 350 228 394 q 225 256 225 306 q 233 184 225 217 q 257 131 240 152 q 299 99 273 109 q 363 89 326 89 q 435 106 401 89 q 493 159 469 123 q 533 251 518 195 q 547 382 547 306 q 543 532 547 458 q 530 681 539 606 l 648 681 z "},"φ":{"ha":764,"x_min":28,"x_max":737,"o":"m 437 -278 l 326 -278 l 326 -9 q 101 91 174 1 q 28 338 28 181 q 51 486 28 423 q 115 592 75 549 q 210 660 155 635 q 326 692 264 684 l 326 958 l 437 958 l 437 692 q 570 661 513 686 q 663 591 626 635 q 719 486 701 547 q 737 346 737 424 q 714 196 737 260 q 650 90 690 133 q 554 22 609 46 q 437 -9 500 -2 l 437 -278 m 326 595 q 245 566 279 588 q 189 510 212 543 q 156 433 167 476 q 146 343 146 391 q 156 246 146 290 q 188 169 166 201 q 244 115 210 136 q 326 87 278 94 l 326 595 m 437 87 q 518 116 484 94 q 575 172 553 138 q 608 248 597 205 q 619 339 619 291 q 609 436 619 392 q 577 513 599 480 q 520 568 555 547 q 437 595 486 589 l 437 87 z "},"χ":{"ha":764,"x_min":37,"x_max":722,"o":"m 579 -96 q 599 -139 590 -122 q 618 -166 608 -156 q 641 -179 629 -176 q 671 -183 654 -183 q 699 -181 684 -183 q 722 -178 713 -180 l 722 -278 q 689 -283 707 -281 q 653 -285 671 -285 q 588 -277 615 -285 q 540 -251 561 -269 q 503 -207 519 -234 q 471 -143 486 -180 l 404 16 l 366 109 l 327 26 l 170 -278 l 37 -278 l 313 231 l 197 504 q 177 547 186 530 q 157 574 168 564 q 135 588 147 584 q 106 591 123 591 q 78 590 92 591 q 54 586 64 588 l 54 686 q 88 691 70 690 q 123 693 106 693 q 188 685 161 693 q 236 660 216 677 q 274 616 257 643 q 306 551 290 589 l 359 424 l 393 339 l 435 424 l 566 681 l 697 681 l 447 215 l 579 -96 z "},"ψ":{"ha":764,"x_min":58,"x_max":720,"o":"m 437 -278 l 326 -278 l 326 -11 q 211 12 261 -7 q 127 66 161 31 q 76 154 93 101 q 58 279 58 207 l 58 681 l 170 681 l 170 301 q 208 147 170 198 q 326 86 247 96 l 326 958 l 437 958 l 437 86 q 512 114 479 94 q 565 171 544 135 q 597 259 587 207 q 608 382 608 311 q 602 532 608 458 q 586 681 595 606 l 697 681 q 712 534 705 607 q 720 387 720 461 q 703 233 720 302 q 651 115 686 165 q 563 33 616 64 q 437 -8 510 2 l 437 -278 z "},"ω":{"ha":764,"x_min":26,"x_max":737,"o":"m 439 268 q 461 137 439 179 q 525 94 483 94 q 594 152 569 94 q 619 318 619 210 q 598 528 619 439 q 544 681 578 618 l 671 681 q 718 523 699 614 q 737 313 737 432 q 722 177 737 237 q 678 75 707 117 q 610 10 650 33 q 521 -12 570 -12 q 469 -4 494 -12 q 426 22 445 3 q 394 70 406 40 q 379 144 382 100 q 358 73 373 102 q 322 24 342 43 q 277 -4 301 5 q 228 -12 252 -12 q 148 7 185 -12 q 84 66 111 26 q 42 170 58 106 q 26 321 26 233 q 45 524 26 434 q 92 681 64 614 l 220 681 q 164 526 184 614 q 144 319 144 437 q 151 229 144 271 q 169 158 157 188 q 198 111 180 128 q 239 94 216 94 q 271 103 255 94 q 298 132 286 113 q 317 181 310 151 q 325 250 325 210 l 325 476 l 439 476 l 439 268 z "},"ά":{"ha":764,"x_min":0,"x_max":737,"o":"m 54 330 q 76 481 54 414 q 135 596 97 549 q 227 668 174 643 q 343 693 279 693 q 416 683 382 693 q 480 652 451 672 q 531 602 509 631 q 566 534 553 572 l 590 681 l 696 681 l 631 328 l 631 319 q 657 146 631 202 q 737 97 683 90 l 737 0 q 656 -1 688 -7 q 603 25 624 6 q 571 73 583 43 q 550 142 559 103 q 458 28 516 68 q 317 -12 399 -12 q 201 13 250 -12 q 119 83 152 38 q 71 191 87 128 q 54 330 54 254 m 175 338 q 217 152 175 214 q 340 90 258 90 q 408 108 377 90 q 463 159 439 126 q 499 237 486 192 q 513 334 513 281 l 513 346 q 502 444 513 399 q 470 522 491 489 q 417 573 448 555 q 346 591 386 591 q 273 574 304 591 q 219 523 241 556 q 186 444 197 490 q 175 338 175 397 m 549 972 l 428 790 l 318 790 l 406 972 l 549 972 m 0 681 z "},"έ":{"ha":764,"x_min":28,"x_max":673,"o":"m 673 17 q 547 -5 606 2 q 428 -12 488 -12 q 273 2 337 -12 q 167 42 208 16 q 106 104 125 68 q 87 187 87 141 q 101 255 87 227 q 138 303 115 283 q 193 333 161 322 q 261 350 224 345 q 198 372 224 356 q 154 408 172 387 q 128 452 136 429 q 119 496 119 475 q 194 643 119 593 q 428 693 269 693 q 535 688 478 693 q 656 668 592 683 l 656 558 q 531 584 591 575 q 414 593 471 593 q 333 585 366 593 q 281 565 301 578 q 253 535 261 553 q 244 498 244 518 q 293 424 244 450 q 441 399 341 399 l 570 399 l 570 301 l 428 301 q 267 275 318 301 q 216 201 216 248 q 228 156 216 176 q 267 120 240 135 q 335 97 293 105 q 439 89 378 89 q 545 96 485 89 q 673 121 604 104 l 673 17 m 576 972 l 456 790 l 346 790 l 433 972 l 576 972 m 28 681 z "},"ή":{"ha":764,"x_min":28,"x_max":659,"o":"m 111 360 q 110 435 111 395 q 105 518 108 476 q 99 602 102 560 q 93 681 96 644 l 201 681 l 212 559 q 279 630 251 606 q 333 667 307 653 q 388 687 360 682 q 446 693 416 693 q 605 631 551 693 q 659 444 659 569 l 659 -278 l 541 -278 l 541 435 q 511 553 541 515 q 422 591 481 591 q 379 585 400 591 q 336 563 359 578 q 288 519 314 547 q 229 452 262 492 l 229 0 l 111 0 l 111 360 m 576 972 l 456 790 l 346 790 l 433 972 l 576 972 m 28 681 z "},"ί":{"ha":764,"x_min":0,"x_max":671,"o":"m 671 5 q 613 -6 646 -3 q 546 -9 581 -9 q 456 2 497 -9 q 386 40 416 14 q 340 107 357 66 q 323 210 323 149 l 323 582 l 93 582 l 93 681 l 441 681 l 441 229 q 472 123 441 157 q 564 90 503 90 q 620 94 592 90 q 671 106 648 99 l 671 5 m 549 972 l 428 790 l 318 790 l 406 972 l 549 972 m 0 681 z "},"ϊ":{"ha":764,"x_min":0,"x_max":671,"o":"m 671 5 q 613 -6 646 -3 q 546 -9 581 -9 q 456 2 497 -9 q 386 40 416 14 q 340 107 357 66 q 323 210 323 149 l 323 582 l 93 582 l 93 681 l 441 681 l 441 229 q 472 123 441 157 q 564 90 503 90 q 620 94 592 90 q 671 106 648 99 l 671 5 m 236 953 q 266 947 252 953 q 290 930 279 941 q 307 906 300 920 q 313 876 313 892 q 307 847 313 861 q 290 823 300 833 q 266 806 279 812 q 236 800 252 800 q 207 806 220 800 q 182 823 193 812 q 166 847 172 833 q 160 876 160 861 q 166 906 160 892 q 182 930 172 920 q 207 947 193 941 q 236 953 220 953 m 528 953 q 557 947 543 953 q 582 930 571 941 q 598 906 592 920 q 604 876 604 892 q 598 847 604 861 q 582 823 592 833 q 557 806 571 812 q 528 800 543 800 q 498 806 512 800 q 474 823 484 812 q 458 847 464 833 q 452 876 452 861 q 458 906 452 892 q 474 930 464 920 q 498 947 484 941 q 528 953 512 953 m 0 681 z "},"ΐ":{"ha":764,"x_min":0,"x_max":671,"o":"m 671 5 q 613 -6 646 -3 q 546 -9 581 -9 q 456 2 497 -9 q 386 40 416 14 q 340 107 357 66 q 323 210 323 149 l 323 582 l 93 582 l 93 681 l 441 681 l 441 229 q 472 123 441 157 q 564 90 503 90 q 620 94 592 90 q 671 106 648 99 l 671 5 m 178 943 q 206 938 193 943 q 229 922 220 932 q 244 899 239 912 q 250 871 250 886 q 244 843 250 856 q 229 820 239 829 q 206 805 220 810 q 178 799 193 799 q 126 820 147 799 q 106 871 106 840 q 112 899 106 886 q 127 922 117 912 q 150 938 136 932 q 178 943 163 943 m 586 943 q 614 938 601 943 q 637 922 628 932 q 653 899 647 912 q 659 871 659 886 q 653 843 659 856 q 637 820 647 829 q 614 805 628 810 q 586 799 601 799 q 535 820 555 799 q 514 871 514 840 q 520 899 514 886 q 535 922 526 912 q 558 938 545 932 q 586 943 571 943 m 488 978 l 401 790 l 300 790 l 353 978 l 488 978 m 0 681 z "},"ό":{"ha":764,"x_min":0,"x_max":701,"o":"m 701 346 q 679 200 701 267 q 614 87 656 134 q 512 14 572 40 q 375 -12 452 -12 q 244 11 302 -12 q 145 77 186 33 q 84 186 105 121 q 62 336 62 252 q 85 481 62 416 q 149 594 107 547 q 252 667 191 641 q 389 693 312 693 q 520 670 462 693 q 618 604 578 648 q 680 495 659 560 q 701 346 701 430 m 581 340 q 567 451 581 404 q 527 529 553 498 q 464 577 501 561 q 382 593 427 593 q 291 572 329 593 q 230 517 254 551 q 194 436 205 482 q 183 340 183 391 q 197 230 183 277 q 237 151 211 182 q 299 103 262 119 q 382 87 336 87 q 472 108 435 87 q 534 163 510 129 q 569 244 558 198 q 581 340 581 290 m 549 972 l 428 790 l 318 790 l 406 972 l 549 972 m 0 681 z "},"ύ":{"ha":764,"x_min":0,"x_max":665,"o":"m 648 681 q 661 534 657 607 q 665 387 665 461 q 644 222 665 296 q 583 96 623 149 q 485 16 543 44 q 353 -12 427 -12 q 166 53 224 -12 q 107 248 107 119 q 109 337 107 295 q 110 414 110 378 q 94 681 110 552 l 212 681 q 228 422 228 556 q 227 350 228 394 q 225 256 225 306 q 233 184 225 217 q 257 131 240 152 q 299 99 273 109 q 363 89 326 89 q 435 106 401 89 q 493 159 469 123 q 533 251 518 195 q 547 382 547 306 q 543 532 547 458 q 530 681 539 606 l 648 681 m 549 972 l 428 790 l 318 790 l 406 972 l 549 972 m 0 681 z "},"ΰ":{"ha":764,"x_min":0,"x_max":665,"o":"m 648 681 q 661 534 657 607 q 665 387 665 461 q 644 222 665 296 q 583 96 623 149 q 485 16 543 44 q 353 -12 427 -12 q 166 53 224 -12 q 107 248 107 119 q 109 337 107 295 q 110 414 110 378 q 94 681 110 552 l 212 681 q 228 422 228 556 q 227 350 228 394 q 225 256 225 306 q 233 184 225 217 q 257 131 240 152 q 299 99 273 109 q 363 89 326 89 q 435 106 401 89 q 493 159 469 123 q 533 251 518 195 q 547 382 547 306 q 543 532 547 458 q 530 681 539 606 l 648 681 m 178 943 q 206 938 193 943 q 229 922 220 932 q 244 899 239 912 q 250 871 250 886 q 244 843 250 856 q 229 820 239 829 q 206 805 220 810 q 178 799 193 799 q 126 820 147 799 q 106 871 106 840 q 112 899 106 886 q 127 922 117 912 q 150 938 136 932 q 178 943 163 943 m 586 943 q 614 938 601 943 q 637 922 628 932 q 653 899 647 912 q 659 871 659 886 q 653 843 659 856 q 637 820 647 829 q 614 805 628 810 q 586 799 601 799 q 535 820 555 799 q 514 871 514 840 q 520 899 514 886 q 535 922 526 912 q 558 938 545 932 q 586 943 571 943 m 488 978 l 401 790 l 300 790 l 353 978 l 488 978 m 0 681 z "},"ϋ":{"ha":764,"x_min":0,"x_max":665,"o":"m 648 681 q 661 534 657 607 q 665 387 665 461 q 644 222 665 296 q 583 96 623 149 q 485 16 543 44 q 353 -12 427 -12 q 166 53 224 -12 q 107 248 107 119 q 109 337 107 295 q 110 414 110 378 q 94 681 110 552 l 212 681 q 228 422 228 556 q 227 350 228 394 q 225 256 225 306 q 233 184 225 217 q 257 131 240 152 q 299 99 273 109 q 363 89 326 89 q 435 106 401 89 q 493 159 469 123 q 533 251 518 195 q 547 382 547 306 q 543 532 547 458 q 530 681 539 606 l 648 681 m 236 953 q 266 947 252 953 q 290 930 279 941 q 307 906 300 920 q 313 876 313 892 q 307 847 313 861 q 290 823 300 833 q 266 806 279 812 q 236 800 252 800 q 207 806 220 800 q 182 823 193 812 q 166 847 172 833 q 160 876 160 861 q 166 906 160 892 q 182 930 172 920 q 207 947 193 941 q 236 953 220 953 m 528 953 q 557 947 543 953 q 582 930 571 941 q 598 906 592 920 q 604 876 604 892 q 598 847 604 861 q 582 823 592 833 q 557 806 571 812 q 528 800 543 800 q 498 806 512 800 q 474 823 484 812 q 458 847 464 833 q 452 876 452 861 q 458 906 452 892 q 474 930 464 920 q 498 947 484 941 q 528 953 512 953 m 0 681 z "},"ώ":{"ha":764,"x_min":0,"x_max":737,"o":"m 439 268 q 461 137 439 179 q 525 94 483 94 q 594 152 569 94 q 619 318 619 210 q 598 528 619 439 q 544 681 578 618 l 671 681 q 718 523 699 614 q 737 313 737 432 q 722 177 737 237 q 678 75 707 117 q 610 10 650 33 q 521 -12 570 -12 q 469 -4 494 -12 q 426 22 445 3 q 394 70 406 40 q 379 144 382 100 q 358 73 373 102 q 322 24 342 43 q 277 -4 301 5 q 228 -12 252 -12 q 148 7 185 -12 q 84 66 111 26 q 42 170 58 106 q 26 321 26 233 q 45 524 26 434 q 92 681 64 614 l 220 681 q 164 526 184 614 q 144 319 144 437 q 151 229 144 271 q 169 158 157 188 q 198 111 180 128 q 239 94 216 94 q 271 103 255 94 q 298 132 286 113 q 317 181 310 151 q 325 250 325 210 l 325 476 l 439 476 l 439 268 m 549 972 l 428 790 l 318 790 l 406 972 l 549 972 m 0 681 z "},"΄":{"ha":764,"x_min":0,"x_max":549,"o":"m 549 972 l 428 790 l 318 790 l 406 972 l 549 972 m 0 681 z "},"΅":{"ha":764,"x_min":0,"x_max":659,"o":"m 178 943 q 206 938 193 943 q 229 922 220 932 q 244 899 239 912 q 250 871 250 886 q 244 843 250 856 q 229 820 239 829 q 206 805 220 810 q 178 799 193 799 q 126 820 147 799 q 106 871 106 840 q 112 899 106 886 q 127 922 117 912 q 150 938 136 932 q 178 943 163 943 m 586 943 q 614 938 601 943 q 637 922 628 932 q 653 899 647 912 q 659 871 659 886 q 653 843 659 856 q 637 820 647 829 q 614 805 628 810 q 586 799 601 799 q 535 820 555 799 q 514 871 514 840 q 520 899 514 886 q 535 922 526 912 q 558 938 545 932 q 586 943 571 943 m 488 978 l 401 790 l 300 790 l 353 978 l 488 978 m 0 681 z "},"·":{"ha":764,"x_min":269,"x_max":494,"o":"m 382 808 q 426 799 405 808 q 461 774 446 789 q 486 738 477 759 q 494 694 494 717 q 486 650 494 671 q 461 615 477 630 q 426 590 446 600 q 382 581 405 581 q 338 590 358 581 q 302 615 317 600 q 278 650 287 630 q 269 694 269 671 q 278 738 269 717 q 302 774 287 759 q 338 799 317 789 q 382 808 358 808 z "}}}
